<?xml version="1.0" standalone="no"?>
<!DOCTYPE svg PUBLIC "-//W3C//DTD SVG 20010904//EN"
 "http://www.w3.org/TR/2001/REC-SVG-20010904/DTD/svg10.dtd">
<svg version="1.0" xmlns="http://www.w3.org/2000/svg"
 width="640.000000pt" height="427.000000pt" viewBox="0 0 640.000000 427.000000"
 preserveAspectRatio="xMidYMid meet">

<g transform="translate(0.000000,427.000000) scale(0.100000,-0.100000)"
fill="#000000" stroke="none">
<path d="M4369 4182 l-54 -38 -7 -129 c-20 -400 -95 -730 -243 -1069 -85 -196
-242 -508 -294 -586 -9 -14 -23 -38 -31 -55 -8 -16 -22 -42 -32 -57 -21 -30
-22 -38 -8 -38 6 0 10 7 10 15 0 8 5 15 10 15 6 0 10 7 10 15 0 8 5 15 10 15
6 0 10 5 10 11 0 6 11 25 24 42 13 18 33 48 44 67 11 19 53 94 94 165 94 165
224 430 279 570 7 19 50 138 69 195 15 42 42 133 50 170 5 19 15 62 23 95 40
157 66 299 96 520 13 96 14 115 3 115 -5 0 -33 -17 -63 -38z"/>
<path d="M4197 4054 c-59 -39 -121 -74 -139 -80 -14 -5 -17 -29 -22 -182 -8
-244 -27 -437 -61 -602 -9 -41 -20 -95 -25 -120 -5 -25 -14 -65 -20 -90 -6
-25 -14 -60 -17 -78 -3 -18 -9 -35 -14 -38 -5 -3 -9 -18 -9 -33 0 -15 -4 -31
-8 -36 -4 -6 -14 -28 -21 -50 -7 -22 -16 -49 -21 -60 -10 -22 -44 -101 -67
-155 -8 -19 -40 -86 -70 -148 -31 -62 -53 -115 -51 -118 3 -2 13 10 22 28 9
18 32 58 50 88 19 30 76 138 126 240 51 102 96 193 101 202 5 10 9 25 9 33 0
8 4 23 9 33 26 51 81 203 81 224 0 9 4 19 9 22 5 3 11 20 14 38 9 55 18 92 27
113 5 11 11 34 14 50 3 17 10 51 16 78 5 26 14 66 19 90 5 23 17 78 26 122 18
81 28 141 45 270 15 109 23 185 19 184 -2 0 -21 -11 -42 -25z"/>
<path d="M3839 3857 c-63 -40 -135 -85 -161 -100 -39 -23 -49 -35 -59 -70 -13
-50 -56 -184 -68 -212 -5 -11 -26 -63 -47 -115 -59 -148 -174 -367 -255 -486
-41 -60 -114 -149 -164 -199 -198 -200 -371 -280 -538 -248 -40 7 -88 16 -107
19 -114 21 -375 130 -415 174 -47 52 -47 -3 0 -147 49 -151 85 -228 162 -348
91 -142 251 -304 432 -438 92 -68 260 -177 273 -177 28 0 200 141 318 260 194
194 339 412 440 660 12 30 26 64 30 75 39 91 137 436 161 565 6 30 15 78 20
105 6 28 14 75 19 105 5 30 16 96 24 145 24 146 62 505 53 505 -2 0 -55 -33
-118 -73z"/>
<path d="M3670 2190 c0 -5 5 -10 10 -10 6 0 10 5 10 10 0 6 -4 10 -10 10 -5 0
-10 -4 -10 -10z"/>
<path d="M924 1181 c-2 -2 -4 -127 -4 -278 l0 -273 155 0 c169 0 195 6 234 56
51 65 48 145 -9 199 -30 28 -30 29 -11 49 30 34 41 62 41 108 0 66 -35 109
-103 128 -37 11 -294 20 -303 11z m273 -100 c37 -23 50 -55 33 -86 -18 -34
-52 -45 -135 -45 l-75 0 0 75 0 75 73 0 c53 0 80 -5 104 -19z m25 -238 c11
-10 18 -30 18 -55 0 -32 -5 -41 -32 -58 -27 -17 -47 -20 -108 -18 l-75 3 -8
50 c-4 27 -6 59 -2 72 5 22 10 23 97 23 71 0 96 -4 110 -17z"/>
<path d="M1590 1180 c-14 -9 -99 -219 -182 -450 -11 -30 -24 -63 -29 -72 -14
-27 -13 -28 44 -28 l54 0 13 43 c27 87 27 87 149 87 l108 0 18 -42 c9 -24 21
-53 26 -65 7 -20 16 -23 59 -23 27 0 50 4 50 9 0 5 -9 30 -21 57 -11 27 -24
58 -29 69 -4 11 -32 81 -60 155 -29 74 -58 149 -65 165 -7 17 -18 44 -25 62
-10 28 -17 32 -57 35 -24 2 -48 1 -53 -2z m60 -145 c0 -8 4 -23 9 -33 25 -46
53 -133 47 -147 -9 -24 -139 -17 -144 7 -5 26 59 188 75 188 7 0 13 -7 13 -15z"/>
<path d="M2661 1176 c-10 -12 -51 -102 -51 -111 0 -3 -8 -24 -19 -48 -10 -23
-29 -69 -41 -102 -12 -33 -26 -69 -30 -80 -22 -53 -70 -188 -70 -196 0 -5 22
-9 49 -9 46 0 49 2 61 33 6 17 18 47 26 65 l14 32 110 0 110 0 14 -32 c8 -18
20 -48 26 -65 12 -32 15 -33 66 -33 58 0 59 1 44 28 -6 9 -55 130 -109 267
l-98 250 -47 6 c-27 3 -50 1 -55 -5z m90 -219 c20 -50 34 -98 32 -105 -4 -9
-25 -12 -77 -10 -80 3 -89 14 -62 70 9 17 16 35 16 39 0 16 40 99 47 99 4 0
24 -42 44 -93z"/>
<path d="M3456 1182 l-38 -3 7 -183 c5 -126 4 -186 -4 -190 -11 -7 -72 68
-211 257 l-85 117 -48 -3 -48 -2 0 -270 0 -270 46 -3 46 -3 -1 188 c-1 110 2
189 8 191 5 1 74 -83 153 -188 l143 -190 48 0 48 0 0 274 c0 210 -3 275 -12
278 -7 2 -30 2 -52 0z"/>
<path d="M1950 905 l0 -275 143 0 c190 0 229 15 293 110 107 158 38 384 -131
429 -22 6 -100 11 -172 11 l-133 0 0 -275z m281 181 c147 -61 144 -309 -4
-365 -16 -6 -59 -11 -97 -11 -53 0 -69 4 -74 16 -8 21 -8 359 1 367 12 13 140
7 174 -7z"/>
<path d="M3817 1173 c-4 -3 -7 -125 -7 -270 l0 -263 35 0 35 0 0 69 c0 54 4
70 16 75 9 3 56 6 105 6 133 0 202 39 224 125 9 37 9 89 0 134 -9 39 -76 111
-104 111 -11 0 -23 5 -26 10 -7 11 -267 14 -278 3z m300 -97 c36 -32 38 -38
38 -95 0 -56 -3 -64 -33 -92 -29 -27 -40 -31 -115 -36 -125 -9 -127 -7 -127
125 0 71 4 112 12 120 8 8 45 12 100 12 86 0 89 -1 125 -34z"/>
<path d="M4515 1170 c-3 -5 -16 -10 -27 -10 -35 0 -121 -73 -144 -121 -49
-101 -49 -170 -1 -268 24 -49 98 -110 134 -111 12 0 25 -4 28 -10 13 -21 113
-9 182 23 34 15 86 68 102 102 7 17 17 38 22 47 19 36 10 145 -15 200 -33 72
-108 138 -155 138 -11 0 -23 5 -26 10 -3 6 -26 10 -50 10 -24 0 -47 -4 -50
-10z m144 -87 c43 -33 70 -64 71 -80 0 -7 5 -13 10 -13 6 0 10 -32 10 -76 0
-67 -3 -80 -30 -119 -47 -69 -77 -85 -154 -85 -51 0 -74 5 -99 22 -39 25 -77
79 -77 107 0 11 -4 23 -10 26 -5 3 -10 24 -10 45 0 21 5 42 10 45 6 3 10 16
10 28 1 24 26 56 78 100 29 23 43 27 94 27 51 0 67 -5 97 -27z"/>
<path d="M4914 1167 c-2 -7 -5 -128 -7 -270 l-2 -257 35 0 35 0 -3 151 c-3
163 2 186 38 154 11 -10 20 -24 20 -32 0 -7 4 -21 9 -31 5 -9 13 -28 19 -42 5
-14 19 -45 30 -70 11 -25 28 -64 38 -87 14 -33 23 -42 46 -45 21 -4 31 0 35
11 3 9 9 26 14 39 5 12 14 33 19 47 6 14 15 36 20 50 6 14 14 35 19 48 4 12
13 33 19 47 5 14 13 33 16 42 2 9 14 22 26 28 31 17 34 -4 24 -166 l-9 -144
38 0 37 0 0 128 c0 70 3 191 7 270 l6 142 -35 0 c-41 0 -49 -9 -68 -70 -7 -25
-17 -49 -20 -55 -6 -9 -49 -114 -70 -170 -4 -11 -17 -40 -29 -63 -11 -24 -21
-50 -21 -58 0 -38 -59 0 -60 39 0 9 -4 17 -10 17 -5 0 -10 7 -10 15 0 8 -4 23
-9 33 -5 9 -13 28 -19 42 -5 14 -26 59 -45 100 -19 41 -45 96 -56 123 -17 38
-26 47 -46 47 -14 0 -28 -6 -31 -13z"/>
<path d="M937 493 c-4 -3 -7 -46 -7 -95 l0 -88 59 0 c66 0 84 13 82 57 -1 16
-1 44 -2 63 0 50 -23 70 -79 70 -26 0 -50 -3 -53 -7z m94 -29 c19 -23 -1 -49
-37 -49 -25 0 -29 4 -32 33 -3 30 -1 32 26 32 16 0 35 -7 43 -16z m13 -89 c11
-29 -5 -45 -45 -45 -37 0 -39 2 -39 30 0 28 2 30 39 30 25 0 41 -5 45 -15z"/>
<path d="M1348 478 c-2 -18 -8 -22 -30 -20 -53 5 -87 -76 -52 -126 12 -18 25
-22 65 -22 l50 0 -3 92 c-2 59 -7 93 -15 95 -6 2 -13 -6 -15 -19z m-10 -60
c13 -13 16 -47 6 -72 -10 -26 -53 -20 -60 9 -14 57 20 97 54 63z"/>
<path d="M1789 493 c0 -5 -1 -46 -1 -93 0 -69 3 -86 16 -88 13 -3 16 5 16 37
l0 41 43 0 c68 0 102 54 59 93 -19 17 -131 25 -133 10z m105 -19 c20 -8 21
-38 2 -53 -8 -7 -27 -11 -43 -9 -23 2 -29 8 -31 36 -3 30 -1 32 27 32 16 0 36
-3 45 -6z"/>
<path d="M3153 478 c-37 -42 -45 -66 -33 -103 22 -67 114 -89 161 -39 36 38
33 109 -7 141 -39 31 -93 31 -121 1z m104 -20 c65 -61 -22 -172 -89 -111 -27
25 -25 96 5 116 31 22 57 21 84 -5z"/>
<path d="M3329 498 c-1 -1 -2 -43 -3 -92 -2 -67 1 -89 12 -93 24 -10 37 14 22
42 -10 19 -11 30 -2 48 13 26 3 88 -16 95 -6 2 -13 2 -13 0z"/>
<path d="M3637 476 c-13 -19 -14 -35 -7 -87 5 -35 10 -67 10 -71 0 -5 12 -8
27 -8 21 0 24 3 15 12 -14 14 -16 104 -3 112 8 5 -14 66 -24 66 -1 0 -10 -11
-18 -24z"/>
<path d="M3873 480 c-4 -13 -14 -20 -30 -20 -33 0 -73 -42 -73 -77 0 -51 25
-73 81 -73 l49 0 0 95 c0 62 -4 95 -11 95 -6 0 -13 -9 -16 -20z m-3 -79 c14
-34 -3 -71 -32 -71 -32 0 -51 63 -26 88 20 20 45 13 58 -17z"/>
<path d="M4317 494 c-4 -4 -7 -47 -7 -96 0 -72 3 -88 15 -88 12 0 15 14 15 68
l0 67 19 -40 c10 -22 21 -52 25 -67 3 -16 12 -28 20 -28 14 0 36 41 36 66 0 8
9 25 21 37 l20 22 -2 -57 c-3 -57 6 -83 19 -61 4 6 6 50 4 97 -3 74 -6 86 -21
86 -16 0 -41 -37 -41 -59 0 -16 -31 -83 -36 -78 -3 3 -15 33 -28 68 -21 59
-41 80 -59 63z"/>
<path d="M4680 405 c0 -86 2 -96 17 -93 11 2 18 12 18 27 0 36 21 36 36 1 8
-16 20 -30 26 -30 17 0 16 4 -7 50 -24 48 -25 45 1 69 12 11 16 21 11 25 -6 3
-20 -5 -31 -20 -26 -33 -43 -22 -39 24 2 28 -1 37 -14 40 -16 3 -18 -6 -18
-93z"/>
<path d="M1125 447 c-10 -8 -15 -19 -11 -26 6 -9 11 -9 21 -1 19 15 60 9 60
-10 0 -8 -16 -19 -37 -25 -47 -13 -62 -28 -53 -54 5 -18 14 -21 66 -21 l59 0
0 59 c0 51 -3 62 -22 75 -28 20 -58 20 -83 3z m75 -85 c0 -15 -24 -32 -47 -32
-29 0 -30 18 0 30 28 11 47 12 47 2z"/>
<path d="M1426 445 c-10 -7 -15 -19 -11 -25 5 -8 10 -8 20 0 19 15 60 9 60
-10 0 -8 -16 -19 -39 -25 -86 -24 -70 -75 24 -75 l57 0 -5 58 c-3 41 -9 62
-24 75 -24 20 -56 22 -82 2z m74 -83 c0 -15 -24 -32 -47 -32 -29 0 -30 18 0
30 28 11 47 12 47 2z"/>
<path d="M1588 453 c-27 -4 -28 -6 -28 -74 0 -50 3 -70 12 -67 6 2 12 26 14
52 2 53 13 70 40 64 16 -3 20 -14 22 -61 2 -42 7 -57 17 -57 25 0 20 105 -5
130 -11 11 -26 19 -32 19 -7 -1 -25 -4 -40 -6z"/>
<path d="M1981 434 c-25 -32 -27 -71 -5 -102 19 -27 91 -32 101 -7 8 22 -4 30
-21 16 -20 -17 -60 -10 -64 11 -3 14 6 17 50 20 63 4 72 21 32 61 -34 34 -67
34 -93 1z m77 -26 c3 -15 -4 -18 -32 -18 -34 0 -47 15 -29 34 13 13 58 1 61
-16z"/>
<path d="M2146 451 c-28 -6 -28 -8 -29 -70 -1 -42 3 -66 11 -69 8 -2 12 12 12
45 0 51 12 73 41 73 21 0 29 -20 29 -76 0 -33 4 -44 15 -44 23 0 12 120 -12
138 -18 13 -22 13 -67 3z"/>
<path d="M2292 452 c-14 -10 -42 -58 -42 -74 0 -5 9 -23 21 -39 15 -21 29 -29
51 -29 43 0 30 -24 -15 -28 -45 -4 -39 -22 7 -22 57 0 69 17 74 109 4 80 4 81
-20 81 -12 0 -32 3 -43 5 -11 3 -26 1 -33 -3z m56 -34 c27 -27 11 -88 -23 -88
-13 0 -26 7 -29 16 -8 21 -8 69 1 77 10 11 38 8 51 -5z"/>
<path d="M2435 447 c-10 -8 -15 -19 -11 -26 6 -9 11 -9 21 -1 19 15 60 9 60
-10 0 -8 -16 -19 -39 -25 -84 -24 -70 -75 20 -75 l54 0 0 59 c0 51 -3 62 -22
75 -28 20 -58 20 -83 3z m75 -85 c0 -15 -24 -32 -47 -32 -29 0 -30 18 0 30 28
11 47 12 47 2z"/>
<path d="M2777 442 c-19 -21 -11 -38 9 -21 18 15 58 7 62 -13 2 -12 -7 -18
-38 -23 -25 -4 -44 -14 -51 -27 -18 -33 5 -48 73 -48 51 0 59 2 54 16 -3 9 -6
35 -6 59 0 26 -6 50 -16 59 -21 22 -67 20 -87 -2z m73 -80 c0 -14 -23 -32 -42
-32 -23 0 -24 27 0 33 29 8 42 7 42 -1z"/>
<path d="M2926 447 c-30 -22 -17 -60 24 -73 42 -14 54 -44 18 -44 -13 0 -29 5
-36 12 -8 8 -15 9 -22 2 -18 -18 15 -35 62 -32 40 3 43 5 46 34 3 27 -1 32
-37 46 -55 22 -54 42 2 33 l42 -6 -24 21 c-27 23 -50 25 -75 7z"/>
<path d="M3386 451 c-3 -5 5 -16 19 -25 35 -23 34 -68 -2 -95 l-28 -20 26 -1
c35 0 51 22 53 71 0 32 -5 45 -23 60 -26 21 -37 23 -45 10z"/>
<path d="M3499 441 l-24 -20 45 2 c33 2 45 -2 47 -13 3 -11 -10 -19 -42 -28
-84 -22 -69 -73 21 -71 l54 2 0 63 c0 52 -3 65 -19 74 -29 15 -56 12 -82 -9z
m64 -77 c14 -14 -7 -34 -37 -34 l-31 1 24 19 c24 21 34 24 44 14z"/>
<path d="M3949 440 l-24 -20 45 3 c34 1 45 -2 48 -14 2 -12 -7 -18 -32 -23
-47 -9 -69 -31 -56 -57 9 -15 21 -19 65 -18 l55 2 0 63 c0 52 -3 65 -19 74
-30 15 -56 12 -82 -10z m71 -74 c0 -20 -16 -36 -36 -36 -28 0 -31 15 -6 29 17
11 42 14 42 7z"/>
<path d="M4113 453 l-33 -4 0 -70 c0 -55 3 -69 15 -69 11 0 15 12 15 48 0 27
6 56 13 65 11 15 15 16 31 4 14 -10 19 -27 20 -62 1 -29 6 -50 14 -52 21 -8
16 110 -6 130 -10 10 -23 16 -28 15 -5 0 -24 -3 -41 -5z"/>
<path d="M4549 440 l-24 -21 41 6 c30 5 44 2 53 -9 11 -13 11 -17 0 -20 -8 -3
-31 -10 -52 -16 -33 -10 -38 -15 -35 -38 3 -26 6 -27 64 -29 l60 -1 -4 61 c-4
66 -18 87 -58 87 -12 0 -32 -9 -45 -20z m71 -74 c0 -20 -16 -36 -36 -36 -28 0
-31 15 -6 29 17 11 42 14 42 7z"/>
<path d="M4835 447 c-10 -8 -15 -19 -11 -26 6 -9 11 -9 21 -1 18 15 60 9 60
-9 0 -8 -17 -19 -39 -25 -85 -24 -70 -76 20 -74 l54 2 0 53 c0 40 -5 58 -20
73 -23 23 -58 26 -85 7z m75 -85 c0 -16 -24 -32 -48 -32 -30 0 -24 22 9 31 34
10 39 10 39 1z"/>
<path d="M4993 453 l-33 -4 0 -70 c0 -62 2 -69 20 -69 16 0 19 8 22 58 3 53 5
57 28 57 23 0 25 -4 28 -57 2 -43 7 -58 17 -58 11 0 15 13 15 53 0 57 -20 98
-48 95 -9 0 -32 -3 -49 -5z"/>
<path d="M5136 444 c-19 -19 -11 -40 9 -24 19 16 59 8 63 -11 2 -12 -7 -18
-36 -23 -48 -7 -71 -30 -55 -54 7 -12 26 -17 67 -18 l56 -1 0 57 c0 42 -5 61
-18 73 -23 21 -66 22 -86 1z m74 -82 c0 -15 -24 -32 -47 -32 -32 0 -29 16 5
28 35 13 42 14 42 4z"/>
<path d="M5295 451 c-29 -6 -30 -8 -33 -74 -3 -61 -1 -67 17 -67 17 0 20 8 23
58 3 53 5 57 28 57 23 0 25 -4 28 -57 2 -43 7 -58 17 -58 24 0 21 112 -3 133
-19 18 -28 19 -77 8z"/>
<path d="M2550 435 c0 -8 5 -15 10 -15 6 0 10 -7 10 -16 0 -9 5 -34 12 -56 15
-50 37 -47 53 7 12 41 13 40 35 -18 15 -42 32 -29 57 44 12 35 23 65 23 67 0
1 -7 2 -15 2 -9 0 -15 -9 -15 -22 0 -13 -9 -34 -19 -47 l-18 -24 -7 47 c-9 59
-38 65 -52 9 -13 -50 -30 -52 -38 -3 -4 26 -11 40 -21 40 -8 0 -15 -7 -15 -15z"/>
</g>
</svg>
