<?xml version="1.0" standalone="no"?>
<!DOCTYPE svg PUBLIC "-//W3C//DTD SVG 20010904//EN"
 "http://www.w3.org/TR/2001/REC-SVG-20010904/DTD/svg10.dtd">
<svg version="1.0" xmlns="http://www.w3.org/2000/svg"
 width="1024.000000pt" height="736.000000pt" viewBox="0 0 1024.000000 736.000000"
 preserveAspectRatio="xMidYMid meet">

<g transform="translate(0.000000,736.000000) scale(0.100000,-0.100000)"
fill="#000000" stroke="none">
<path d="M6941 6598 c3 -18 -22 -68 -35 -68 -27 0 15 -21 44 -22 l33 -1 -27
-14 c-20 -11 -31 -11 -41 -3 -10 8 -17 7 -29 -5 -21 -21 -20 -28 3 -42 13 -8
29 -9 50 -3 17 5 31 5 31 1 0 -4 -25 -13 -55 -20 -30 -7 -55 -17 -55 -23 0 -6
12 -8 30 -4 17 3 44 9 60 12 39 8 40 -12 3 -28 l-28 -11 40 -8 c71 -14 84 -12
78 14 -3 12 -13 31 -22 41 -12 14 -13 20 -3 23 17 6 15 24 -5 38 -9 7 -16 25
-15 42 0 18 -8 40 -19 51 -10 12 -19 26 -19 32 0 5 -5 10 -10 10 -6 0 -10 -6
-9 -12z"/>
<path d="M6775 6339 c-38 -11 -88 -23 -110 -28 -22 -5 -103 -25 -180 -46 -521
-135 -1191 -305 -1206 -305 -8 0 -21 5 -29 10 -13 8 -12 11 4 23 20 15 14 37
-10 37 -8 0 -14 10 -14 23 -1 66 -26 86 -54 42 -20 -31 -14 -45 22 -46 24 0
25 -1 7 -9 -11 -4 -32 -6 -46 -3 -20 4 -26 1 -26 -14 0 -23 14 -32 52 -34 25
-1 23 -3 -18 -14 -68 -19 -72 -29 -9 -21 51 7 52 6 52 -20 0 -24 -3 -26 -31
-20 -23 4 -50 -3 -112 -33 -45 -21 -242 -112 -437 -201 -195 -90 -521 -239
-725 -333 -205 -94 -381 -170 -395 -169 -14 1 -67 23 -119 48 -52 25 -100 47
-107 48 -6 1 -18 7 -26 14 -12 9 -15 9 -15 -3 0 -8 9 -17 19 -21 10 -3 18 -9
18 -14 0 -12 -13 -6 -275 125 -134 67 -229 108 -244 107 -26 -3 -535 -136
-565 -148 -17 -7 -17 -8 5 -25 13 -10 32 -19 42 -19 10 0 125 27 257 60 132
33 244 60 250 60 6 0 10 -25 10 -59 0 -70 34 -55 -295 -137 -126 -31 -232 -59
-234 -61 -23 -18 46 -6 258 46 137 33 254 61 260 61 7 0 11 -45 11 -139 0
-114 -3 -140 -15 -145 -13 -5 -184 -45 -437 -103 -43 -10 -78 -21 -78 -25 0
-13 22 -10 269 47 132 30 245 55 251 55 6 0 10 -50 10 -139 0 -124 -2 -140
-17 -145 -10 -2 -106 -23 -213 -47 -229 -49 -311 -71 -288 -76 13 -3 390 69
431 82 7 2 29 6 50 9 l37 6 0 -145 c0 -144 0 -145 -23 -145 -12 0 -97 -15
-187 -34 -91 -18 -200 -40 -242 -47 -77 -13 -104 -29 -50 -29 16 0 134 21 261
46 128 25 234 44 236 42 3 -3 7 -214 6 -269 -1 -12 -14 -18 -43 -23 -124 -18
-352 -59 -418 -74 -53 -12 -67 -17 -47 -20 31 -4 167 17 355 53 69 14 133 25
142 25 15 0 17 -17 18 -140 0 -77 -3 -142 -7 -144 -4 -3 -102 -19 -217 -36
-258 -39 -332 -53 -289 -58 17 -1 126 13 244 33 118 19 227 35 243 35 l28 0 0
-144 0 -143 -37 -6 c-21 -4 -130 -18 -243 -32 -226 -29 -316 -48 -190 -40 41
2 161 17 265 33 105 16 193 27 198 25 4 -2 7 -69 7 -148 l0 -144 -42 -5 c-24
-3 -106 -13 -183 -21 -77 -9 -173 -20 -213 -26 -98 -12 -102 -12 -102 9 0 10
-3 13 -8 7 -4 -6 -17 -12 -29 -12 -16 -1 -25 5 -29 22 -5 22 -8 23 -27 11 -45
-29 -69 -30 -88 -5 -15 20 -19 21 -33 10 -9 -8 -33 -15 -53 -17 -21 -1 -43
-10 -49 -19 -8 -10 -14 -12 -19 -6 -3 6 -1 11 5 11 6 0 9 4 6 8 -5 9 -94 7
-103 -2 -3 -3 0 -13 8 -22 12 -15 12 -16 -6 -11 -11 4 -26 3 -33 -2 -18 -11
10 -39 51 -54 29 -10 29 -11 11 -25 -17 -13 -15 -14 22 -8 36 5 46 2 75 -24
l34 -30 -35 7 c-19 3 -38 11 -42 17 -5 8 -18 5 -40 -7 -29 -17 -33 -17 -44 -3
-6 9 -16 16 -23 16 -6 0 -11 5 -11 11 0 8 -5 8 -15 -1 -8 -7 -28 -10 -45 -8
-17 3 -35 -1 -41 -8 -11 -13 -43 -8 -76 14 -13 8 -30 12 -38 8 -17 -6 -65 13
-65 26 0 5 16 16 35 24 26 11 35 20 35 38 0 14 6 27 13 29 9 4 9 6 0 6 -7 1
-10 8 -7 16 4 8 1 15 -6 15 -6 0 -8 5 -4 12 5 8 2 9 -12 4 -10 -4 -40 -12 -66
-17 -44 -10 -66 -28 -35 -29 6 -1 -7 -10 -31 -22 -46 -22 -63 -19 -41 8 25 30
20 43 -14 39 l-32 -5 31 10 c24 8 33 17 36 39 2 17 1 28 -4 25 -4 -3 -16 2
-25 11 -14 14 -14 18 -2 26 10 6 10 9 2 9 -7 0 -13 7 -13 16 0 8 -5 12 -11 8
-6 -3 -15 -1 -19 7 -6 9 -12 10 -22 2 -7 -6 -26 -13 -43 -17 -16 -4 -37 -14
-47 -22 -11 -11 -18 -12 -23 -4 -10 16 -25 2 -18 -17 4 -11 3 -14 -5 -9 -7 4
-12 14 -12 23 0 9 -6 13 -15 9 -8 -3 -15 -1 -15 4 0 6 -12 10 -26 10 -21 0
-24 3 -16 13 6 7 14 44 17 81 3 49 10 72 22 82 17 13 17 15 1 27 -15 12 -15
14 3 25 25 16 24 42 -2 42 -19 0 -19 1 4 33 21 28 22 35 11 56 -15 30 -9 44
16 36 15 -5 17 -2 13 15 -3 11 -12 20 -20 20 -9 0 -13 6 -9 15 3 9 -3 23 -14
32 -15 13 -16 19 -7 25 9 6 8 12 -5 22 -10 7 -14 16 -10 20 3 4 7 20 8 36 1
16 11 42 23 59 12 17 20 35 17 40 -4 5 12 12 34 16 40 7 50 21 29 42 -7 7 -2
14 20 21 33 12 42 25 14 20 -12 -2 -17 2 -14 12 2 8 4 25 5 38 1 12 8 27 16
32 13 8 12 10 -2 10 -11 0 -18 8 -18 20 0 15 -7 20 -25 20 -15 0 -25 5 -24 13
3 27 -2 37 -21 37 -12 0 -17 5 -14 14 3 7 -2 21 -12 30 -15 16 -15 18 0 35 20
22 21 32 1 25 -18 -7 -20 7 -4 23 15 15 3 34 -16 26 -9 -3 -15 1 -15 9 0 24
-36 51 -59 43 -12 -4 -21 -2 -21 4 0 6 6 11 14 11 8 0 16 7 20 15 4 11 -2 15
-27 15 -18 0 -41 7 -51 15 -19 15 -19 15 -1 28 12 10 14 16 7 21 -7 4 -16 4
-22 1 -5 -3 -10 3 -10 15 0 12 -4 19 -9 16 -5 -3 -7 -16 -3 -28 3 -14 2 -19
-6 -14 -7 4 -12 14 -12 22 0 8 -7 14 -16 14 -11 0 -15 -6 -11 -20 5 -21 -7
-27 -18 -9 -5 7 -15 2 -28 -12 -19 -21 -22 -21 -25 -6 -4 21 -32 23 -32 2 0
-22 -17 -18 -23 5 -8 30 -27 24 -27 -9 0 -17 -6 -31 -16 -35 -8 -3 -13 -2 -10
2 6 11 -56 13 -69 2 -6 -5 -24 -14 -40 -20 l-29 -11 19 22 c11 12 15 19 8 16
-7 -5 -14 4 -18 24 -5 23 -11 29 -23 24 -11 -4 -8 3 7 19 21 22 22 26 7 26
-18 0 -40 18 -42 35 -1 6 -5 20 -9 33 -4 13 -2 22 4 22 6 0 11 7 11 16 0 12
-6 15 -25 10 -31 -8 -32 0 -2 26 l22 20 -22 -5 c-15 -3 -20 -1 -16 9 5 14 -3
16 -54 17 -28 1 -28 5 -6 30 15 17 16 20 2 15 -14 -5 -15 0 -9 32 9 50 1 61
-43 63 -37 2 -42 9 -39 49 1 9 -6 34 -14 54 -14 33 -17 36 -26 20 -9 -16 -12
-15 -35 9 -24 23 -28 24 -43 10 -9 -8 -23 -15 -31 -15 -17 -1 -49 -24 -49 -36
0 -5 -16 -18 -35 -28 -30 -17 -39 -17 -59 -6 -14 7 -32 10 -40 7 -14 -6 -16
-242 -16 -2467 l0 -2460 5120 0 5120 0 0 1243 c0 953 -3 1246 -12 1255 -9 9
-9 12 0 12 9 0 12 38 12 140 0 87 -4 140 -10 140 -5 0 -10 -4 -10 -9 0 -5 -15
-14 -32 -21 -18 -7 -27 -14 -20 -17 6 -2 12 -9 12 -15 0 -10 -26 -6 -67 9 -16
6 -16 5 -4 -10 12 -15 11 -17 -3 -17 -9 0 -16 7 -16 15 0 11 -7 14 -25 9 -19
-5 -31 -1 -46 17 -11 13 -32 24 -47 25 -15 1 -33 3 -40 3 -7 1 -10 5 -7 11 3
5 0 7 -8 4 -8 -3 -18 -1 -22 5 -3 6 -11 11 -17 11 -6 0 -6 -6 2 -15 18 -22 6
-29 -43 -28 -97 3 -138 3 -172 -2 -25 -3 -42 1 -53 11 -10 11 -25 14 -44 10
-40 -8 -74 10 -57 30 6 8 22 14 34 14 23 0 40 23 36 48 -1 6 6 12 16 12 11 0
14 3 7 8 -6 4 -14 24 -18 46 -6 31 -9 35 -19 23 -7 -8 -25 -17 -42 -20 -16 -3
-43 -11 -60 -17 -23 -9 -26 -13 -15 -20 12 -8 11 -10 -6 -10 -12 0 -28 -10
-37 -23 -11 -16 -18 -19 -27 -11 -9 9 -6 16 12 28 22 16 22 18 6 30 -22 16
-24 30 -3 22 23 -9 19 37 -5 52 -21 13 -27 42 -9 42 6 0 4 7 -5 15 -8 8 -19
15 -25 15 -6 0 -11 4 -11 9 0 5 -9 7 -20 4 -11 -3 -17 -10 -13 -16 3 -6 1 -7
-5 -3 -6 4 -24 0 -39 -8 -16 -8 -22 -15 -15 -16 17 0 15 -17 -4 -24 -8 -3 -22
1 -30 9 -20 19 -34 19 -34 0 0 -19 -18 -20 -22 0 -3 13 -6 13 -30 1 -25 -13
-28 -13 -28 0 0 36 -74 68 -92 40 -13 -19 -18 0 -20 76 -3 63 -5 72 -16 59
-12 -14 -13 -11 -8 21 2 20 -2 96 -9 170 -8 86 -10 137 -3 145 8 10 11 153 8
342 -1 24 2 58 6 75 6 27 8 29 15 11 7 -18 8 -17 8 7 1 14 -3 28 -8 30 -6 2
-10 75 -11 168 -2 193 0 218 10 170 4 -19 8 73 8 205 1 233 0 242 -25 315 -14
41 -34 81 -44 88 -10 7 -19 19 -19 26 0 7 -9 21 -20 31 l-21 19 5 -310 c4
-245 8 -2268 5 -2349 -1 -11 2 -32 5 -46 4 -18 1 -29 -8 -32 -18 -7 -18 -54 0
-61 9 -3 14 -21 14 -47 0 -37 2 -41 21 -36 15 4 19 2 15 -10 -3 -8 -6 -16 -6
-19 0 -2 -7 -1 -15 2 -8 4 -15 1 -15 -5 0 -6 5 -11 10 -11 6 0 10 -7 10 -15 0
-8 -9 -15 -20 -15 -20 0 -20 0 0 -20 11 -11 20 -24 20 -30 0 -14 -27 -13 -36
1 -5 8 -9 8 -14 -1 -6 -9 -13 -9 -29 -1 -16 9 -21 9 -21 -1 0 -13 24 -29 63
-44 9 -3 17 -11 17 -16 0 -5 -4 -7 -9 -4 -5 4 -33 8 -63 11 -45 4 -50 3 -31
-8 12 -7 22 -16 22 -20 0 -11 68 -57 83 -57 6 0 8 -3 5 -7 -8 -8 -80 15 -125
39 -18 10 -39 18 -46 18 -8 0 -17 10 -21 22 -6 20 -8 20 -12 6 -6 -25 13 -40
122 -96 43 -22 53 -35 61 -73 19 -98 11 -121 -33 -98 -17 9 -26 10 -31 2 -4
-7 -73 -14 -178 -18 l-172 -7 -6 -57 c-3 -31 -6 -85 -6 -121 0 -36 -3 -70 -7
-76 -5 -6 -50 -14 -101 -18 l-94 -8 4 136 3 137 -150 -3 -150 -3 -3 -100 c-5
-152 7 -325 23 -325 7 0 16 -7 19 -16 5 -13 2 -15 -14 -11 -11 3 -18 1 -14 -4
3 -5 16 -9 29 -9 13 0 25 -6 28 -12 2 -7 8 4 12 25 4 21 13 43 19 50 6 7 31
36 54 64 24 29 51 53 60 53 14 -1 13 -3 -3 -12 -22 -12 -22 -13 -61 -78 l-27
-45 31 29 c45 42 39 17 -8 -37 l-41 -46 38 -7 c21 -4 62 -8 91 -8 46 0 51 -2
36 -13 -10 -7 -30 -13 -46 -13 -15 0 -28 -4 -28 -10 0 -5 12 -10 26 -10 19 0
25 -4 20 -15 -4 -11 1 -15 19 -15 13 0 27 5 30 10 3 6 13 10 21 10 9 0 12 -5
8 -12 -5 -8 -2 -9 9 -5 10 4 25 10 35 13 14 5 14 4 2 -5 -26 -18 -1 -24 27 -6
l27 18 -25 10 c-23 9 -23 9 -4 17 11 5 34 9 50 9 23 1 27 4 15 11 -11 7 1 10
42 10 31 0 60 -5 63 -10 3 -6 0 -10 -7 -10 -7 0 -32 -16 -54 -36 l-42 -36 32
-29 c24 -22 27 -28 14 -29 -10 0 -18 4 -18 9 0 23 -86 42 -175 39 -87 -3 -90
-4 -87 -25 2 -13 -2 -23 -8 -23 -32 0 23 -29 71 -38 l54 -10 -55 -1 c-72 -1
-128 -17 -142 -41 -6 -10 -17 -16 -25 -13 -7 3 -11 8 -8 12 2 4 -3 8 -11 8 -8
0 -13 -6 -10 -14 3 -7 1 -13 -4 -13 -6 0 -10 -7 -10 -16 0 -9 5 -13 13 -9 6 4
4 0 -5 -8 -10 -8 -18 -23 -18 -34 0 -15 -8 -22 -29 -26 -33 -7 -73 2 -66 14 3
4 12 6 20 3 10 -4 18 4 25 22 5 16 14 37 20 46 7 12 5 18 -5 20 -13 3 -13 7 0
32 19 36 19 38 -1 34 -27 -5 -27 18 0 30 20 9 24 8 20 -2 -3 -7 2 -16 11 -20
10 -3 15 -12 11 -21 -3 -8 -2 -16 2 -19 14 -8 30 8 37 36 6 23 3 29 -18 39
-22 10 -24 16 -19 51 5 39 4 40 -17 26 -18 -11 -23 -11 -32 2 -8 12 -9 10 -4
-7 4 -15 0 -28 -14 -40 -12 -10 -21 -25 -21 -35 0 -9 -8 -21 -17 -27 -14 -7
-20 -4 -30 21 l-13 31 -20 -26 c-26 -32 -25 -40 4 -63 14 -10 23 -21 20 -25
-2 -4 2 -12 10 -16 16 -9 11 -53 -5 -53 -5 0 -6 7 -3 15 5 12 0 14 -27 9 -26
-4 -30 -3 -19 5 12 9 11 11 -7 11 -21 0 -30 19 -24 53 1 5 -7 7 -16 5 -10 -1
-34 9 -54 22 -32 23 -36 29 -33 65 3 35 2 38 -10 22 -19 -25 -67 -7 -59 22 4
15 1 21 -10 21 -11 0 -14 -7 -10 -23 6 -21 5 -20 -16 5 -11 14 -21 38 -21 53
0 23 4 26 21 22 16 -4 18 -3 8 9 -7 8 -9 27 -5 46 4 18 10 49 13 68 l6 35 -22
-19 c-11 -11 -21 -25 -21 -33 0 -8 -7 -28 -16 -45 -12 -24 -18 -28 -25 -17
-13 19 -36 -12 -45 -58 -5 -27 -11 -33 -27 -31 -14 2 -24 17 -35 50 -8 26 -21
49 -29 52 -20 8 -63 -23 -63 -45 0 -29 -15 -30 -40 -4 -26 27 -51 35 -29 9 11
-14 10 -16 -6 -14 -11 1 -39 2 -62 1 -36 -1 -42 -4 -41 -23 1 -57 40 -87 68
-53 12 14 16 13 37 -6 41 -40 31 -49 -56 -49 l-78 0 -28 40 c-28 40 -28 40
-93 40 l-65 0 22 24 c13 14 38 27 55 29 17 2 0 5 -38 5 -85 2 -82 10 7 16 36
3 75 10 86 15 11 6 54 11 96 11 62 0 82 4 102 20 l26 20 -172 0 c-94 0 -171 2
-171 5 0 2 5 16 12 30 12 27 11 27 143 29 44 1 107 5 139 10 47 7 57 6 51 -4
-6 -10 6 -11 56 -7 35 4 99 9 142 13 71 6 77 8 77 28 0 12 -5 27 -12 34 -8 8
-5 14 17 22 15 6 25 13 22 17 -4 3 0 15 8 27 10 14 15 46 15 99 l0 78 -117 -3
-118 -3 0 -60 0 -60 -100 -3 c-55 -2 -110 0 -123 3 -21 5 -22 9 -17 60 l7 55
-139 -1 c-76 0 -147 -4 -158 -9 -11 -5 -14 -9 -7 -9 9 -1 12 -27 12 -95 0 -78
-3 -95 -16 -100 -23 -9 -26 -3 -15 27 7 18 7 28 0 33 -14 8 -37 -14 -59 -56
-20 -39 -56 -77 -44 -46 5 13 -1 16 -31 16 l-38 0 7 42 7 42 -26 -24 c-14 -13
-25 -29 -25 -35 0 -7 -9 -10 -23 -8 -21 4 -23 11 -25 70 -2 47 2 72 13 90 l17
25 19 -21 c35 -37 57 -22 50 36 -1 6 6 14 16 16 10 3 -6 5 -34 6 -35 1 -53 5
-53 14 0 23 15 32 50 33 212 3 823 17 850 19 19 2 52 4 73 4 31 1 37 4 37 22
l0 21 -667 -6 c-645 -6 -827 -10 -848 -16 -5 -1 -41 -1 -80 0 -67 2 -68 3 -25
10 25 4 133 10 240 14 779 26 1130 36 1300 36 108 -1 204 2 215 6 12 5 16 4
12 -3 -4 -6 -4 -32 -1 -57 5 -35 11 -46 24 -46 14 0 19 10 22 46 3 39 0 48
-17 55 -18 7 -17 8 7 8 17 1 28 -5 31 -16 4 -16 5 -16 6 1 1 17 8 18 89 12 48
-3 211 -26 362 -51 151 -25 280 -45 287 -45 10 0 11 4 2 19 -18 27 9 60 78 97
49 26 57 35 54 55 -3 27 -20 41 -38 34 -7 -2 -13 -1 -14 3 -6 76 -2 132 13
197 10 43 16 84 14 89 -2 6 -5 3 -5 -7 -1 -10 -8 -25 -16 -33 -17 -18 -19 -11
-5 17 19 35 21 113 6 304 -37 468 -56 698 -66 795 -5 58 -19 224 -30 370 -22
289 -29 337 -67 450 -33 99 -47 119 -221 299 l-148 153 -125 -21 c-128 -22
-521 -83 -689 -107 -52 -7 -194 -29 -315 -49 -309 -50 -481 -76 -545 -85 -30
-4 -176 -26 -325 -49 -148 -23 -373 -58 -500 -78 -126 -19 -255 -44 -285 -56
-78 -28 -176 -95 -241 -163 l-56 -59 -76 -236 c-43 -129 -77 -240 -77 -245 -1
-5 -9 -27 -20 -49 -11 -22 -19 -44 -20 -50 0 -10 -126 -405 -181 -568 -17 -52
-27 -98 -24 -110 4 -15 3 -18 -3 -9 -11 17 -35 -60 -28 -91 3 -12 3 -16 0 -8
-4 9 -13 -3 -25 -34 -10 -26 -16 -52 -13 -56 3 -5 -2 -19 -10 -31 -23 -35 -56
-150 -50 -174 3 -12 1 -25 -5 -28 -18 -11 -13 -29 6 -22 15 6 15 5 2 -11 -8
-10 -21 -30 -28 -45 -8 -15 -17 -25 -21 -23 -5 3 -4 -11 0 -30 4 -20 4 -38 -1
-41 -5 -3 -7 -10 -4 -15 4 -5 1 -9 -6 -9 -8 0 -9 12 -5 37 9 54 -8 21 -25 -47
-7 -30 -19 -64 -26 -76 -7 -11 -10 -24 -6 -29 5 -4 2 -5 -4 -1 -9 5 -13 0 -13
-16 0 -17 -3 -19 -9 -9 -6 9 -11 10 -15 2 -4 -6 -4 -11 1 -11 4 0 0 -5 -11
-11 -15 -9 -16 -13 -5 -20 11 -6 9 -9 -7 -9 -12 0 -24 -7 -28 -15 -3 -8 -12
-12 -21 -9 -8 3 -15 1 -15 -5 0 -6 -9 -11 -19 -11 -23 0 -37 -16 -19 -22 8 -3
1 -11 -16 -20 -16 -8 -25 -17 -20 -20 5 -3 104 -2 219 3 302 11 507 11 500 -1
-4 -6 6 -10 22 -10 22 0 25 2 13 11 -18 13 9 9 119 -15 45 -10 129 -18 214
-19 81 -1 142 -7 144 -12 2 -6 54 -9 134 -7 l130 3 -3 32 -3 32 -160 5 c-158
6 -159 6 -45 8 63 2 163 5 222 8 93 5 109 4 132 -12 14 -11 26 -26 26 -35 0
-8 6 -23 13 -33 12 -17 21 -17 128 -5 86 9 118 17 132 31 21 22 31 23 50 3 12
-11 43 -13 173 -9 88 2 176 6 196 8 l37 4 -17 -27 c-24 -38 -29 -40 -103 -34
-97 8 -116 1 -112 -39 11 -130 9 -168 -10 -174 -11 -3 -32 5 -55 22 -24 18
-31 21 -19 8 23 -27 22 -31 -10 -48 l-28 -14 -15 59 c-8 33 -20 60 -25 59 -12
-1 -13 -53 -2 -92 6 -22 4 -28 -8 -28 -9 0 -18 8 -21 18 -3 9 -11 27 -16 39
-10 20 -9 42 5 158 2 19 -5 20 -113 23 -63 1 -126 0 -139 -3 -23 -6 -24 -9
-18 -72 4 -37 3 -71 -2 -77 -5 -6 -12 -94 -16 -196 -5 -133 -12 -202 -25 -245
-10 -33 -21 -73 -25 -89 l-6 -29 53 6 c29 4 74 10 101 13 32 5 47 3 47 -5 0
-6 -16 -11 -35 -11 -38 0 -47 -14 -15 -23 22 -6 24 -14 10 -37 -8 -13 -13 -13
-31 -2 -18 11 -24 11 -38 -2 -20 -18 -67 -19 -378 -9 l-203 6 0 32 0 32 188 9
c115 6 186 13 185 19 -2 6 -25 11 -53 13 -62 4 -57 22 6 22 l44 0 0 223 c0
122 -3 266 -7 320 l-6 97 -86 0 c-47 0 -103 -3 -124 -7 l-39 -6 4 -61 3 -61
-30 -3 c-16 -1 -39 -7 -50 -12 -11 -5 -37 -14 -58 -20 -38 -12 -42 -30 -6 -30
20 0 24 -17 13 -57 -10 -36 -23 -27 -17 11 5 32 3 34 -31 46 -30 10 -38 9 -51
-3 -17 -18 -71 -8 -69 11 1 7 2 48 3 92 l1 79 35 -1 c36 -1 54 7 42 19 -4 3
-42 1 -85 -5 -42 -7 -94 -12 -115 -12 -36 0 -37 -2 -33 -27 2 -16 5 -28 6 -28
1 0 3 -21 4 -47 l3 -47 -35 15 c-19 7 -37 14 -40 14 -6 0 3 79 12 101 8 18 12
17 -299 43 -323 27 -375 29 -375 11 0 -11 11 -15 49 -15 l49 0 4 -80 c2 -64 0
-80 -12 -83 -8 -2 6 -7 33 -11 26 -5 47 -11 47 -15 0 -7 -455 -4 -487 4 -22 5
-23 10 -23 104 l0 99 29 5 c16 3 45 3 65 0 40 -6 38 0 36 -126 -1 -70 1 -78
16 -75 15 3 18 17 19 110 l1 106 -96 7 c-52 4 -106 8 -118 10 -23 4 -191 7
-325 6 -113 -1 -67 -21 51 -22 59 -1 148 -4 197 -8 l90 -6 0 -102 0 -103 -223
0 -223 1 2 102 c1 56 6 108 12 115 5 7 7 15 4 18 -3 3 -74 8 -159 11 -84 3
-155 7 -158 10 -3 2 6 12 19 22 22 17 23 23 17 67 -4 27 -9 58 -10 70 -2 11
-6 26 -10 32 -3 6 -1 43 4 84 6 40 10 110 9 156 -1 45 -1 94 -2 110 0 15 1
164 2 332 2 356 3 716 1 745 -8 144 -7 425 1 485 10 63 9 81 -4 112 -23 54 -4
270 25 289 6 4 5 14 -3 26 -16 26 6 119 52 217 6 13 8 29 5 35 -16 25 -16 204
-1 258 11 36 13 59 6 71 -11 21 -17 154 -7 170 4 7 -16 9 -66 5 -67 -5 -93
-16 -83 -34 6 -9 -77 -32 -123 -33 -33 -1 -37 2 -40 26 -4 31 -13 27 168 68
159 35 156 35 176 11 23 -26 89 -10 101 25 7 22 10 23 34 10 23 -12 39 -11
125 9 359 82 543 124 794 181 458 104 581 132 840 190 135 30 283 64 330 74
181 42 837 191 1075 244 138 31 268 61 290 66 38 9 433 99 925 209 124 28 244
57 267 64 l41 12 -24 40 c-20 33 -28 39 -50 37 -23 -3 -26 -1 -19 15 16 40 26
84 20 93 -12 19 -25 10 -25 -16 0 -14 -7 -42 -16 -61 -16 -33 -19 -34 -58 -28
-23 4 -56 11 -74 17 -74 23 -553 114 -558 106 -5 -8 16 -12 49 -10 10 1 16 -2
13 -6 -2 -4 5 -9 17 -10 21 -1 197 -41 417 -93 113 -27 140 -43 57 -35 -32 3
-62 8 -68 11 -5 3 -37 11 -71 16 -35 5 -135 27 -223 49 -279 68 -539 123 -577
122 -20 -1 -40 3 -43 8 -7 12 -4 13 -90 -11z m-138 -305 c-3 -3 -12 -4 -19 -1
-8 3 -5 6 6 6 11 1 17 -2 13 -5z m80 0 c-3 -3 -12 -4 -19 -1 -8 3 -5 6 6 6 11
1 17 -2 13 -5z m-20 -40 c-3 -3 -12 -4 -19 -1 -8 3 -5 6 6 6 11 1 17 -2 13 -5z
m-50 -50 c-3 -3 -12 -4 -19 -1 -8 3 -5 6 6 6 11 1 17 -2 13 -5z m0 -80 c-3 -3
-12 -4 -19 -1 -8 3 -5 6 6 6 11 1 17 -2 13 -5z m-610 -10 c-3 -3 -12 -4 -19
-1 -8 3 -5 6 6 6 11 1 17 -2 13 -5z m-340 -80 c-3 -3 -12 -4 -19 -1 -8 3 -5 6
6 6 11 1 17 -2 13 -5z m150 0 c-3 -3 -12 -4 -19 -1 -8 3 -5 6 6 6 11 1 17 -2
13 -5z m-260 -10 c-3 -3 -12 -4 -19 -1 -8 3 -5 6 6 6 11 1 17 -2 13 -5z m70 0
c-3 -3 -12 -4 -19 -1 -8 3 -5 6 6 6 11 1 17 -2 13 -5z m310 0 c-3 -3 -12 -4
-19 -1 -8 3 -5 6 6 6 11 1 17 -2 13 -5z m80 0 c-3 -3 -12 -4 -19 -1 -8 3 -5 6
6 6 11 1 17 -2 13 -5z m-330 -40 c-3 -3 -12 -4 -19 -1 -8 3 -5 6 6 6 11 1 17
-2 13 -5z m-250 -40 c-3 -3 -12 -4 -19 -1 -8 3 -5 6 6 6 11 1 17 -2 13 -5z
m-400 -10 c-3 -3 -12 -4 -19 -1 -8 3 -5 6 6 6 11 1 17 -2 13 -5z m360 0 c-3
-3 -12 -4 -19 -1 -8 3 -5 6 6 6 11 1 17 -2 13 -5z m-390 -40 c-3 -3 -12 -4
-19 -1 -8 3 -5 6 6 6 11 1 17 -2 13 -5z m290 0 c-3 -3 -12 -4 -19 -1 -8 3 -5
6 6 6 11 1 17 -2 13 -5z m-180 -10 c-3 -3 -12 -4 -19 -1 -8 3 -5 6 6 6 11 1
17 -2 13 -5z m-350 -30 c-3 -3 -12 -4 -19 -1 -8 3 -5 6 6 6 11 1 17 -2 13 -5z
m-100 -10 c-3 -3 -12 -4 -19 -1 -8 3 -5 6 6 6 11 1 17 -2 13 -5z m500 0 c-3
-3 -12 -4 -19 -1 -8 3 -5 6 6 6 11 1 17 -2 13 -5z m-320 -40 c-3 -3 -12 -4
-19 -1 -8 3 -5 6 6 6 11 1 17 -2 13 -5z m58 -4 c-11 -5 -27 -9 -35 -9 -9 0 -8
4 5 9 11 5 27 9 35 9 9 0 8 -4 -5 -9z m92 4 c-3 -3 -12 -4 -19 -1 -8 3 -5 6 6
6 11 1 17 -2 13 -5z m-40 -10 c-3 -3 -12 -4 -19 -1 -8 3 -5 6 6 6 11 1 17 -2
13 -5z m-130 -30 c-3 -3 -12 -4 -19 -1 -8 3 -5 6 6 6 11 1 17 -2 13 -5z m70 0
c-3 -3 -12 -4 -19 -1 -8 3 -5 6 6 6 11 1 17 -2 13 -5z m-400 -10 c-3 -3 -12
-4 -19 -1 -8 3 -5 6 6 6 11 1 17 -2 13 -5z m70 0 c-3 -3 -12 -4 -19 -1 -8 3
-5 6 6 6 11 1 17 -2 13 -5z m70 0 c-3 -3 -12 -4 -19 -1 -8 3 -5 6 6 6 11 1 17
-2 13 -5z m80 0 c-3 -3 -12 -4 -19 -1 -8 3 -5 6 6 6 11 1 17 -2 13 -5z m70 0
c-3 -3 -12 -4 -19 -1 -8 3 -5 6 6 6 11 1 17 -2 13 -5z m-250 -40 c-3 -3 -12
-4 -19 -1 -8 3 -5 6 6 6 11 1 17 -2 13 -5z m70 0 c-3 -3 -12 -4 -19 -1 -8 3
-5 6 6 6 11 1 17 -2 13 -5z m280 -10 c-3 -3 -12 -4 -19 -1 -8 3 -5 6 6 6 11 1
17 -2 13 -5z m-520 -30 c-3 -3 -12 -4 -19 -1 -8 3 -5 6 6 6 11 1 17 -2 13 -5z
m70 0 c-3 -3 -12 -4 -19 -1 -8 3 -5 6 6 6 11 1 17 -2 13 -5z m-110 -10 c-3 -3
-12 -4 -19 -1 -8 3 -5 6 6 6 11 1 17 -2 13 -5z m220 0 c-3 -3 -12 -4 -19 -1
-8 3 -5 6 6 6 11 1 17 -2 13 -5z m-180 -10 c-3 -3 -12 -4 -19 -1 -8 3 -5 6 6
6 11 1 17 -2 13 -5z m-140 -30 c-3 -3 -12 -4 -19 -1 -8 3 -5 6 6 6 11 1 17 -2
13 -5z m150 0 c-3 -3 -12 -4 -19 -1 -8 3 -5 6 6 6 11 1 17 -2 13 -5z m-260
-10 c-3 -3 -12 -4 -19 -1 -8 3 -5 6 6 6 11 1 17 -2 13 -5z m300 0 c-3 -3 -12
-4 -19 -1 -8 3 -5 6 6 6 11 1 17 -2 13 -5z m-270 -80 c-3 -3 -12 -4 -19 -1 -8
3 -5 6 6 6 11 1 17 -2 13 -5z m-40 -10 c-3 -3 -12 -4 -19 -1 -8 3 -5 6 6 6 11
1 17 -2 13 -5z m-820 -30 c-3 -3 -12 -4 -19 -1 -8 3 -5 6 6 6 11 1 17 -2 13
-5z m600 -20 c-3 -3 -12 -4 -19 -1 -8 3 -5 6 6 6 11 1 17 -2 13 -5z m-170 -40
c-3 -3 -12 -4 -19 -1 -8 3 -5 6 6 6 11 1 17 -2 13 -5z m-897 -208 c0 -11 -19
-15 -25 -6 -3 5 1 10 9 10 9 0 16 -2 16 -4z m248 -96 c-1 -33 -12 -34 -68 -5
l-25 13 25 6 c14 3 34 7 45 9 11 3 21 5 22 6 1 0 1 -13 1 -29z m-254 -6 c8
-22 -5 -154 -15 -154 -5 0 -9 38 -9 85 0 79 10 107 24 69z m244 -83 c-3 -27
-28 -36 -113 -43 l-40 -3 -3 59 c-2 38 1 62 9 66 6 4 43 -6 81 -23 62 -27 69
-33 66 -56z m2 -206 c0 -14 -4 -25 -10 -25 -9 0 -60 20 -70 28 -9 7 26 22 53
22 22 0 27 -4 27 -25z m-4 -75 c2 0 4 -29 4 -65 0 -61 -2 -66 -26 -75 -56 -21
-60 -17 -57 63 1 39 3 80 3 90 0 16 3 16 36 2 20 -8 38 -15 40 -15z m4846
-205 c5 -60 14 -77 28 -55 8 12 10 11 11 -5 4 -93 10 -128 27 -161 l19 -37 7
91 c4 51 11 92 14 92 23 -1 30 -26 37 -132 8 -129 4 -137 -43 -93 -15 14 -42
36 -59 51 l-33 26 -132 -17 c-73 -9 -146 -18 -162 -22 -21 -4 -26 -2 -21 7 4
7 3 15 -3 19 -11 6 -22 235 -12 244 7 7 237 44 281 46 l37 1 4 -55z m-4842
-11 c0 -32 -2 -35 -22 -28 -54 16 -68 24 -68 38 0 18 15 24 58 25 30 1 32 -1
32 -35z m4495 -120 l0 -139 -150 -22 c-82 -12 -158 -22 -167 -22 -16 -1 -17
12 -15 134 2 74 6 137 9 140 7 7 298 54 313 50 6 -1 10 -56 10 -141z m-354 -1
c0 -49 2 -105 4 -125 2 -30 -1 -38 -14 -38 -14 0 -14 -2 -1 -10 13 -8 13 -10
0 -14 -36 -12 -302 -42 -306 -34 -3 4 1 8 8 9 10 0 10 2 1 6 -17 6 -18 239 -1
249 13 8 226 41 276 43 l32 1 1 -87z m-4181 61 l40 -16 0 -68 0 -69 -57 -6
c-32 -4 -66 -9 -75 -11 -14 -4 -18 1 -18 24 0 23 5 31 24 36 21 5 25 14 31 66
4 33 9 60 11 60 2 0 22 -7 44 -16z m3840 -159 c0 -74 -3 -135 -7 -135 -5 0
-69 -9 -143 -20 -74 -11 -141 -20 -147 -20 -10 0 -13 33 -13 129 0 93 4 132
13 138 15 10 197 40 255 42 l42 1 0 -135z m1278 -56 c3 -66 1 -119 -3 -119 -5
0 -17 7 -27 17 -16 14 -18 33 -18 140 l0 123 21 -21 c19 -19 23 -36 27 -140z
m-1613 79 c4 -40 5 -102 3 -138 l-3 -64 -120 -18 c-156 -22 -171 -22 -173 0
-6 61 -2 236 5 243 12 12 32 16 156 29 56 7 104 13 106 16 14 13 20 -4 26 -68z
m-322 -110 c1 -70 -1 -130 -4 -132 -7 -7 -272 -44 -280 -40 -12 7 -11 252 1
259 14 9 237 44 264 42 17 -2 19 -12 19 -129z m-313 75 c0 -10 2 -64 3 -121 2
-57 0 -105 -5 -108 -4 -3 -6 -9 -3 -14 7 -11 -12 -15 -135 -29 -52 -6 -105
-14 -116 -17 -22 -6 -22 -4 -23 119 -1 80 2 128 9 132 6 4 36 11 68 15 31 5
86 16 122 24 84 19 80 19 80 -1z m2319 -37 c6 -25 11 -80 11 -122 0 -76 0 -77
-20 -59 -18 16 -20 31 -20 127 0 113 9 131 29 54z m-5148 19 c5 -52 3 -95 -3
-95 -13 0 -143 51 -151 59 -13 13 15 28 73 39 78 14 80 14 81 -3z m4883 -45
c31 -27 61 -50 66 -50 23 0 39 -72 45 -209 l7 -144 -32 23 c-17 12 -34 29 -37
36 -3 8 -11 14 -18 14 -7 0 -24 9 -38 21 -25 19 -32 20 -119 9 -161 -19 -245
-23 -228 -11 10 7 11 11 3 11 -16 0 -19 265 -3 275 5 3 7 11 4 19 -4 9 20 16
93 25 80 9 144 19 194 30 3 0 32 -21 63 -49z m-2356 -103 c3 -147 25 -128
-168 -152 -210 -27 -311 -37 -315 -33 -3 2 3 28 13 58 18 58 86 141 140 172
l30 18 8 -103 8 -102 8 60 c5 33 11 85 14 115 4 30 11 58 18 62 6 4 40 8 76 7
36 0 83 6 105 14 22 9 45 14 50 13 6 -2 11 -56 13 -129z m1972 -61 l1 -165
-43 -5 c-266 -36 -324 -39 -287 -15 12 7 12 9 1 9 -11 0 -13 28 -8 147 3 80 8
148 9 150 5 4 260 40 299 42 l26 1 2 -164z m-358 -33 c4 -134 3 -153 -11 -154
-12 0 -10 -3 4 -9 24 -9 3 -13 -145 -30 -52 -6 -112 -13 -132 -16 l-37 -6 0
161 c0 89 1 161 2 162 3 1 312 45 314 45 0 -1 3 -70 5 -153z m-342 -53 l0
-159 -32 -5 c-125 -20 -274 -33 -282 -25 -6 6 -5 9 3 9 10 0 11 3 2 14 -8 9
-9 54 -4 149 l6 136 41 6 c23 3 82 12 131 19 152 23 135 41 135 -144z m-3923
134 c29 -8 20 -24 -13 -24 -15 0 -24 6 -24 15 0 17 4 18 37 9z m88 -26 c14 -6
25 -19 25 -30 0 -14 -8 -18 -40 -18 -38 0 -40 2 -40 30 0 33 13 37 55 18z
m3504 -153 l0 -154 -32 -5 c-76 -12 -203 -26 -237 -26 l-36 0 -3 81 c-1 45 1
114 4 154 l7 72 142 20 c77 10 144 18 148 16 4 -2 7 -73 7 -158z m1608 -1 c2
-152 0 -162 -24 -138 -15 15 -19 40 -21 157 l-4 140 24 -15 c22 -15 23 -21 25
-144z m-1934 95 c3 -12 6 -81 6 -154 l0 -132 -82 -11 c-139 -20 -234 -25 -217
-13 9 7 11 11 3 11 -7 0 -16 -6 -20 -13 -11 -18 -272 -50 -289 -36 -8 7 -13 6
-16 -2 -3 -9 -238 -42 -479 -65 l-66 -7 -2 80 c-1 60 4 96 20 144 12 35 23 66
25 68 4 5 83 18 184 31 41 6 122 17 180 25 58 8 113 15 123 15 15 0 17 -14 18
-137 1 -119 3 -130 10 -78 5 33 8 87 8 120 0 33 0 63 1 68 2 4 3 12 4 19 1 7
47 18 121 29 178 27 160 35 158 -73 -1 -51 2 -108 7 -128 6 -26 9 -6 10 83 1
64 3 123 4 129 1 15 -1 14 131 32 145 20 152 19 158 -5z m2024 -173 c4 -78 2
-136 -3 -136 -5 0 -17 7 -26 14 -16 11 -18 31 -18 143 0 71 3 133 7 137 4 3
13 0 21 -7 10 -10 15 -54 19 -151z m-293 22 c22 -18 43 -35 46 -39 3 -3 14 -9
26 -13 35 -11 62 -49 72 -101 8 -41 10 -44 11 -17 1 33 17 42 39 20 14 -14 17
-284 3 -292 -5 -3 -20 3 -34 14 -14 11 -29 20 -35 20 -5 0 -27 13 -48 28 -21
15 -56 38 -77 50 l-38 22 -192 -20 c-106 -11 -327 -33 -492 -50 -165 -16 -381
-38 -480 -49 -99 -10 -187 -19 -195 -19 -8 0 -103 -9 -210 -21 -172 -18 -1186
-119 -1377 -137 -45 -4 -73 -3 -73 3 0 18 81 247 92 261 23 27 33 4 38 -84 5
-88 5 -89 17 -49 7 22 15 70 18 107 6 57 9 67 28 72 12 3 126 16 252 30 344
38 413 46 489 57 61 8 70 8 82 -8 12 -17 13 -17 14 -1 0 11 11 19 33 23 58 9
201 25 232 25 31 0 31 -1 34 -52 3 -66 11 -77 11 -15 0 31 4 47 13 47 8 0 7 3
-3 10 -21 13 -6 17 140 35 172 21 157 25 159 -47 1 -34 4 -64 6 -67 4 -4 9
101 6 121 -1 10 23 14 144 28 55 6 117 14 138 17 l37 6 1 -129 c2 -105 3 -119
9 -74 5 30 8 80 9 111 1 31 4 59 9 63 4 4 7 13 7 19 0 8 37 16 100 23 55 6
124 14 153 18 35 6 52 4 52 -3 0 -6 -6 -11 -12 -11 -10 0 -10 -2 0 -9 9 -6 16
-48 21 -137 l8 -129 2 132 c0 77 5 134 11 138 6 4 8 10 5 15 -7 12 12 16 165
35 152 18 161 18 159 3 -1 -7 0 -62 1 -123 l3 -110 8 85 c4 47 9 102 10 123 2
20 3 37 3 38 2 1 263 36 285 38 13 0 42 -13 65 -31z m-4887 -22 c2 -2 2 -64 1
-139 l-3 -135 -70 22 c-68 21 -70 23 -72 56 -3 63 4 81 32 74 18 -4 27 -1 31
11 8 19 -6 35 -32 39 -24 3 -32 46 -10 46 27 0 30 2 45 22 10 15 21 19 44 14
17 -3 32 -8 34 -10z m5232 -139 c1 -23 -3 -36 -9 -32 -5 3 -9 41 -9 83 1 71 2
74 10 32 4 -25 8 -62 8 -83z m-59 -57 c7 -13 9 -66 5 -148 -3 -70 -5 -128 -5
-130 0 -1 -9 2 -20 8 -19 10 -20 21 -20 150 0 116 2 140 15 140 8 0 19 -9 25
-20z m64 -48 c10 -16 28 -264 19 -273 -4 -4 -15 -4 -23 1 -12 7 -16 38 -18
145 -2 87 0 135 7 135 5 0 12 -4 15 -8z m-5271 -43 l37 -10 0 -138 0 -139 -32
8 c-18 4 -52 12 -75 19 l-41 11 -1 135 -2 134 38 -6 c21 -3 55 -9 76 -14z
m-2288 -39 c3 -5 -1 -10 -10 -10 -9 0 -13 5 -10 10 3 6 8 10 10 10 2 0 7 -4
10 -10z m-225 -40 c0 -5 -4 -10 -10 -10 -5 0 -10 5 -10 10 0 6 5 10 10 10 6 0
10 -4 10 -10z m90 0 c8 -5 11 -12 7 -16 -4 -4 -15 0 -24 9 -18 18 -8 23 17 7z
m-105 -41 c0 -7 -9 -15 -20 -16 -11 -2 -15 0 -8 3 7 3 9 12 6 21 -4 11 -2 14
8 11 8 -3 14 -11 14 -19z m375 -9 c0 -5 -5 -10 -11 -10 -5 0 -7 5 -4 10 3 6 8
10 11 10 2 0 4 -4 4 -10z m345 -10 c-3 -5 -10 -10 -16 -10 -5 0 -9 5 -9 10 0
6 7 10 16 10 8 0 12 -4 9 -10z m-442 -20 c-3 -11 -12 -20 -19 -20 -17 0 -18
12 -2 28 18 18 27 15 21 -8z m-107 1 c-3 -5 -15 -7 -26 -4 -28 7 -25 13 6 13
14 0 23 -4 20 -9z m179 -1 c3 -5 1 -10 -4 -10 -6 0 -11 5 -11 10 0 6 2 10 4
10 3 0 8 -4 11 -10z m-340 -20 c8 -13 -5 -13 -25 0 -13 8 -13 10 2 10 9 0 20
-4 23 -10z m350 -22 c-19 -11 -30 -5 -21 11 4 6 14 7 22 4 15 -5 14 -7 -1 -15z
m-58 -10 c-3 -8 -6 -5 -6 6 -1 11 2 17 5 13 3 -3 4 -12 1 -19z m-46 -8 c5 0 9
-4 9 -9 0 -13 -28 -7 -43 9 -10 10 -9 12 6 6 10 -3 23 -6 28 -6z m-35 -30 c9
0 12 -4 9 -10 -11 -18 -31 -10 -32 13 0 12 1 16 4 10 3 -7 11 -13 19 -13z
m189 10 c3 -5 1 -10 -4 -10 -6 0 -11 5 -11 10 0 6 2 10 4 10 3 0 8 -4 11 -10z
m1845 -300 l0 -299 -43 -5 c-23 -3 -118 -10 -212 -16 -93 -6 -195 -13 -226
-16 -44 -4 -60 -1 -73 12 -9 9 -14 21 -11 28 3 6 8 19 11 29 4 9 10 17 15 17
5 0 9 43 9 95 l0 95 27 0 c15 0 52 5 82 10 31 6 85 14 121 20 57 8 51 8 -45 4
-60 -3 -126 -7 -147 -10 -30 -5 -37 -2 -42 14 -4 11 -17 23 -29 27 -21 7 -21
7 -2 12 26 7 35 21 35 61 0 24 -4 32 -17 32 -17 1 -17 1 0 11 13 8 17 23 17
68 l0 58 78 7 c42 4 158 18 257 30 99 12 183 20 187 19 4 -2 8 -138 8 -303z
m5199 282 c61 -36 97 -57 147 -82 47 -24 54 -39 54 -120 0 -31 5 -93 10 -139
6 -46 9 -85 8 -87 -5 -4 -169 73 -177 83 -12 16 -38 18 -208 17 -95 -1 -170 2
-168 6 3 5 1 10 -5 12 -24 8 -33 278 -9 278 5 0 6 7 3 15 -5 12 4 15 47 16 30
0 92 6 139 13 47 8 91 14 99 15 8 0 35 -11 60 -27z m-7079 8 c0 -5 -5 -10 -11
-10 -5 0 -7 5 -4 10 3 6 8 10 11 10 2 0 4 -4 4 -10z m595 -10 c3 -5 1 -10 -4
-10 -6 0 -11 5 -11 10 0 6 2 10 4 10 3 0 8 -4 11 -10z m362 -6 c-3 -3 -12 -4
-19 -1 -8 3 -5 6 6 6 11 1 17 -2 13 -5z m-1052 -33 c-6 -5 -25 10 -25 20 0 5
6 4 14 -3 8 -7 12 -15 11 -17z m45 19 c0 -5 -4 -10 -10 -10 -5 0 -10 5 -10 10
0 6 5 10 10 10 6 0 10 -4 10 -10z m240 0 c0 -5 -4 -10 -10 -10 -5 0 -10 5 -10
10 0 6 5 10 10 10 6 0 10 -4 10 -10z m805 0 c3 -5 2 -10 -4 -10 -5 0 -13 5
-16 10 -3 6 -2 10 4 10 5 0 13 -4 16 -10z m5690 0 c-18 -8 -18 -9 -2 -9 17 -1
18 -13 16 -156 -1 -106 -5 -155 -13 -156 -6 0 -78 -6 -161 -13 -149 -12 -180
-11 -154 5 10 6 11 9 2 9 -10 0 -13 37 -13 150 0 111 3 152 13 155 43 16 348
30 312 15z m1483 4 c13 -4 22 -14 22 -26 0 -17 -3 -18 -14 -9 -10 8 -21 9 -33
3 -23 -12 -43 -5 -43 16 0 15 2 15 10 2 8 -12 10 -12 16 3 7 19 9 19 42 11z
m-6018 -23 l35 -7 3 -71 3 -70 -76 15 -75 16 0 69 0 68 38 -7 c20 -3 53 -9 72
-13z m6250 9 c0 -5 -4 -10 -10 -10 -5 0 -10 5 -10 10 0 6 5 10 10 10 6 0 10
-4 10 -10z m-8242 -18 c2 -7 -6 -12 -17 -12 -12 0 -21 -6 -21 -15 0 -8 -4 -15
-10 -15 -16 0 -12 22 8 41 19 19 33 20 40 1z m-281 -11 c1 -13 -3 -18 -12 -15
-7 3 -15 -1 -17 -10 -2 -11 -7 -13 -17 -7 -12 8 -12 11 0 23 8 8 21 17 29 21
8 3 15 6 15 6 1 1 1 -8 2 -18z m111 0 c3 -8 -1 -12 -9 -9 -7 2 -15 10 -17 17
-3 8 1 12 9 9 7 -2 15 -10 17 -17z m6357 -140 c0 -88 -3 -162 -6 -165 -3 -3
-100 -13 -215 -21 -115 -8 -256 -19 -314 -24 -99 -8 -128 -6 -129 12 -1 4 -2
44 -3 90 l-2 82 -5 -95 -6 -95 -85 -7 c-47 -3 -113 -9 -146 -12 l-62 -5 -3
102 c-4 135 -3 206 3 212 4 5 152 21 268 29 150 11 452 37 510 45 36 5 94 9
130 10 l65 1 0 -159z m-6320 139 c3 -5 1 -10 -4 -10 -6 0 -11 5 -11 10 0 6 2
10 4 10 3 0 8 -4 11 -10z m1125 6 c0 -11 -19 -15 -25 -6 -3 5 1 10 9 10 9 0
16 -2 16 -4z m-1221 -45 c-6 -2 -15 3 -20 10 -15 24 -10 29 11 11 12 -10 16
-18 9 -21z m8181 25 c0 -8 -8 -22 -17 -33 -10 -10 -15 -14 -11 -8 4 7 5 15 2
18 -3 3 0 13 7 21 17 19 19 19 19 2z m-8045 -17 c-4 -5 -13 -9 -21 -9 -12 0
-12 2 -2 14 14 15 32 11 23 -5z m-42 -36 c-7 -2 -21 -2 -30 0 -10 3 -4 5 12 5
17 0 24 -2 18 -5z m1057 -8 c19 -23 8 -25 -14 -4 -11 11 -15 19 -9 19 6 0 16
-7 23 -15z m4262 -145 c-2 -85 -5 -156 -6 -157 -5 -5 -612 -51 -776 -59 -83
-4 -111 -3 -100 5 10 7 11 11 3 11 -9 0 -13 32 -16 108 l-3 107 -2 -122 -2
-121 -117 -7 c-65 -4 -122 -7 -128 -6 -5 0 -14 15 -18 32 -9 36 -14 35 -20 -6
-3 -28 -7 -30 -58 -37 -30 -3 -84 -6 -121 -7 l-68 -1 0 94 c0 72 5 105 21 143
l21 50 86 12 c103 13 265 28 377 36 44 3 94 7 110 10 17 3 122 12 235 20 113
8 220 18 238 21 29 6 32 4 32 -17 1 -13 1 -81 1 -151 0 -73 4 -128 10 -128 9
0 12 54 12 217 l0 82 51 6 c28 3 85 9 126 14 127 15 116 30 112 -149z m2752
124 c9 -3 16 -11 16 -16 0 -7 -5 -6 -13 1 -8 6 -17 8 -20 4 -4 -3 -7 -1 -7 5
0 14 2 14 24 6z m-8478 -46 c-15 -10 -16 -6 -9 22 6 22 7 22 13 4 4 -10 2 -22
-4 -26z m140 12 c0 -21 -20 -27 -31 -10 -3 6 -2 10 4 10 6 0 8 7 5 15 -4 10
-2 13 8 10 7 -3 14 -14 14 -25z m7589 10 c-3 -5 -1 -10 5 -10 7 0 10 -38 9
-117 0 -65 0 -122 1 -128 5 -21 0 -25 -14 -13 -10 9 -11 15 -2 21 8 5 6 11 -6
21 -15 11 -18 30 -18 118 0 58 3 108 7 111 10 11 25 8 18 -3z m-7545 -10 c0
-5 -4 -10 -10 -10 -5 0 -10 5 -10 10 0 6 5 10 10 10 6 0 10 -4 10 -10z m7635
-12 c8 -33 13 -288 5 -293 -3 -2 -12 0 -20 5 -11 7 -15 38 -16 134 -2 108 0
127 14 137 12 7 14 12 5 15 -15 7 -17 24 -3 24 5 0 12 -10 15 -22z m675 -18
c0 -16 -4 -30 -8 -30 -5 0 -7 14 -4 30 2 17 6 30 8 30 2 0 4 -13 4 -30z m233
17 c4 3 7 1 7 -5 0 -6 -4 -14 -10 -17 -5 -3 -10 -1 -10 4 0 6 -7 11 -16 11 -8
0 -12 5 -9 10 5 8 11 8 19 1 7 -6 16 -8 19 -4z m-8306 -13 c-3 -3 -12 -4 -19
-1 -8 3 -5 6 6 6 11 1 17 -2 13 -5z m8494 -49 c3 -82 4 -80 -21 -82 -14 -1
-19 0 -12 3 6 3 9 10 6 15 -8 13 -34 -9 -34 -28 0 -8 4 -12 9 -8 5 3 12 1 16
-5 3 -5 18 -10 33 -10 15 0 23 -4 17 -8 -5 -4 -11 -16 -13 -27 -2 -18 -2 -18
8 -2 6 9 21 17 32 17 16 0 19 -3 11 -11 -14 -14 -6 -39 12 -39 14 0 25 -22 25
-50 0 -10 6 -25 13 -32 8 -7 17 -40 21 -73 12 -101 27 -145 48 -145 10 0 13
36 12 157 l-1 158 6 -155 c4 -85 3 -159 -1 -164 -14 -17 -8 -26 16 -26 14 0
28 -4 31 -10 3 -5 20 -7 37 -3 23 5 34 2 44 -12 8 -10 17 -16 20 -13 3 4 26
-2 51 -13 47 -20 83 -18 83 6 0 7 8 23 18 34 l17 22 48 -45 c26 -25 47 -51 47
-57 0 -6 7 -9 14 -6 10 4 13 1 10 -8 -3 -7 3 -16 13 -19 11 -4 28 -23 38 -44
19 -41 37 -164 21 -155 -5 4 -7 -5 -4 -21 3 -15 0 -33 -6 -39 -10 -11 -15 -30
-18 -67 -1 -8 -12 -32 -25 -52 -12 -21 -23 -42 -23 -46 0 -13 -36 -52 -42 -46
-8 7 -20 -45 -13 -56 4 -6 12 -10 20 -10 12 0 51 -31 102 -82 32 -31 43 -94
46 -260 l4 -146 -34 -7 c-31 -6 -38 -16 -34 -53 1 -6 -5 -12 -14 -12 -8 0 -15
-4 -15 -10 0 -5 0 -12 0 -15 0 -3 -9 -14 -20 -25 -11 -11 -20 -29 -20 -40 0
-13 -7 -20 -19 -20 -25 0 -38 -20 -20 -31 20 -13 4 -11 -27 3 -22 10 -28 10
-39 -5 -11 -15 -14 -4 -20 70 -4 49 -7 106 -7 128 1 22 -3 47 -8 55 -8 12 -10
10 -11 -10 0 -23 -1 -23 -9 -5 -5 11 -11 32 -15 48 -3 15 -14 36 -25 47 -11
11 -19 21 -19 23 1 1 -8 21 -20 44 -36 71 -53 78 -228 81 l-153 4 0 104 c0 95
15 184 31 184 4 0 6 18 5 41 -2 27 2 43 12 46 10 4 11 8 2 13 -8 5 -1 10 18
15 17 3 37 13 44 22 12 15 8 16 -35 10 -42 -6 -48 -5 -45 10 2 12 18 20 47 26
49 10 40 26 -14 27 -40 0 -15 17 40 25 50 8 86 31 79 49 -3 8 3 16 15 19 26 6
27 24 4 30 -14 4 -13 5 4 6 12 0 26 7 30 14 4 8 17 17 28 21 19 8 19 8 -4 17
-18 7 -22 12 -13 21 14 14 -2 38 -24 38 -8 0 -14 7 -14 16 0 11 -5 14 -17 10
-9 -4 -20 -1 -25 6 -6 10 -8 9 -8 -3 0 -9 -8 -20 -17 -23 -15 -6 -15 -9 -3
-17 12 -9 12 -10 -3 -5 -10 3 -23 6 -29 6 -5 0 -8 6 -6 12 3 7 13 13 23 13 10
0 20 6 23 14 3 10 0 12 -11 8 -9 -3 -18 1 -21 9 -4 11 -16 14 -46 10 -37 -4
-40 -2 -40 20 0 19 5 24 26 24 16 0 24 5 22 13 -7 19 -45 20 -70 3 -12 -9 -31
-16 -42 -16 -20 0 -20 0 0 15 19 14 19 14 -1 16 -12 1 -4 6 20 14 22 8 36 14
30 15 -5 1 -1 6 10 11 19 9 18 9 -2 5 -13 -2 -25 0 -28 5 -3 4 -11 6 -18 4 -7
-2 -34 -6 -62 -9 -49 -5 -50 -5 -22 10 15 8 25 20 21 26 -4 5 -1 14 7 18 8 6
-5 11 -39 16 -58 7 -63 20 -16 44 16 8 31 17 34 20 3 3 17 11 33 18 15 6 27
15 26 19 -3 21 3 31 28 42 19 9 28 9 33 1 5 -8 9 -6 14 5 11 30 -5 36 -38 15
-19 -11 -42 -20 -52 -20 -16 0 -16 2 -4 10 8 5 11 12 7 17 -5 4 7 13 25 19 25
10 28 13 12 13 -31 1 -49 51 -19 51 17 0 19 9 6 29 -5 7 -14 10 -20 7 -6 -4
-11 -4 -11 1 0 4 -5 15 -10 23 -8 13 -11 12 -24 -5 -13 -17 -15 -17 -16 -3 0
9 -6 19 -12 21 -10 4 -9 8 2 16 9 7 16 7 18 1 6 -16 22 -1 22 20 0 11 10 24
21 31 20 10 21 9 17 -9 -5 -17 -2 -20 21 -17 14 2 31 4 36 4 6 1 4 5 -4 10 -8
5 -21 7 -29 3 -12 -4 -14 -1 -9 12 4 10 7 26 7 37 0 30 40 5 41 -26z m-6384 2
c3 -4 -19 -7 -50 -7 -51 0 -67 7 -52 22 7 6 93 -7 102 -15z m6228 3 c-14 -5
-15 -9 -6 -14 7 -5 20 -1 30 8 25 23 31 20 18 -9 -7 -14 -18 -25 -25 -25 -7 0
-11 -4 -8 -9 9 -14 -20 -32 -38 -25 -11 4 -22 -1 -32 -12 -12 -17 -13 -17 -8
-1 4 10 1 17 -7 18 -17 1 -45 6 -75 13 -19 5 -22 2 -19 -13 2 -11 -3 -25 -11
-32 -8 -6 -14 -19 -14 -29 0 -20 -33 -33 -48 -18 -6 6 -23 11 -38 11 -25 0
-26 1 -11 12 12 9 17 27 17 68 l0 56 86 3 c47 2 89 -1 95 -6 6 -6 9 -5 9 3 0
7 6 11 14 8 8 -3 27 -2 43 2 32 9 57 1 28 -9z m-8435 -2 c0 -4 -15 -8 -32 -8
-20 0 -28 3 -21 8 16 10 53 10 53 0z m85 -8 c-3 -5 -13 -10 -21 -10 -8 0 -14
5 -14 10 0 6 9 10 21 10 11 0 17 -4 14 -10z m9071 -56 c16 -13 16 -15 2 -10
-10 3 -18 1 -18 -4 0 -6 -9 -10 -20 -10 -23 0 -26 10 -8 28 16 16 20 15 44 -4z
m-372 -3 c3 -5 0 -21 -8 -35 l-13 -26 -28 24 -27 24 28 10 c37 13 42 14 48 3z
m606 5 c0 -3 -4 -8 -10 -11 -5 -3 -10 -1 -10 4 0 6 5 11 10 11 6 0 10 -2 10
-4z m-7283 -38 c-3 -8 -6 -5 -6 6 -1 11 2 17 5 13 3 -3 4 -12 1 -19z m5048
-11 c17 -8 55 -25 85 -37 123 -49 128 -54 131 -125 2 -29 2 -29 8 5 4 26 11
35 26 35 19 0 20 -7 22 -136 1 -74 -2 -141 -6 -148 -6 -9 -44 0 -157 39 -161
56 -198 60 -395 44 l-76 -6 -2 151 c-2 132 0 152 14 157 12 5 13 9 5 14 -6 4
17 10 52 14 50 5 65 3 74 -9 15 -20 21 -19 27 4 4 16 15 20 63 23 62 3 80 0
129 -25z m1175 29 c0 -11 -19 -15 -25 -6 -3 5 1 10 9 10 9 0 16 -2 16 -4z
m-1572 -191 c1 -90 -2 -166 -6 -168 -4 -3 -77 -8 -163 -12 l-156 -7 -2 143
c-1 79 -4 147 -7 151 -3 4 0 8 7 8 9 0 9 3 0 14 -10 12 2 15 76 21 48 3 99 7
113 9 14 2 50 4 81 5 l55 1 2 -165z m-4510 128 c2 -9 -9 -13 -37 -13 -30 0
-41 4 -41 16 0 11 9 14 37 12 20 -2 38 -9 41 -15z m4152 -138 c0 -117 -3 -155
-12 -155 -9 0 -8 -3 2 -10 8 -5 12 -11 10 -13 -3 -2 -73 -7 -156 -10 -116 -5
-151 -4 -151 6 -5 81 -4 277 1 286 4 6 2 11 -5 11 -7 0 -9 3 -5 8 8 8 183 29
264 31 l52 1 0 -155z m1754 119 c8 -21 8 -21 -9 -28 -11 -4 -15 1 -15 19 0 28
15 33 24 9z m131 -9 c0 -14 -6 -19 -20 -17 -26 5 -27 6 -19 26 9 23 39 16 39
-9z m-2228 -130 c-1 -117 -5 -146 -17 -150 -12 -5 -12 -8 -1 -14 19 -12 -21
-19 -166 -27 l-123 -6 2 146 c1 83 6 146 11 146 5 0 4 7 -3 15 -10 12 -8 15
12 20 25 5 102 10 215 13 l73 2 -3 -145z m-3807 36 l0 -99 -63 12 c-77 15 -85
20 -82 48 1 13 3 29 4 36 0 6 10 12 21 12 11 0 20 -6 21 -12 0 -7 4 -2 10 10
12 30 4 42 -27 42 -13 0 -24 6 -24 13 0 16 52 34 103 36 l37 1 0 -99z m5855
89 c3 -5 -1 -10 -10 -10 -9 0 -13 5 -10 10 3 6 8 10 10 10 2 0 7 -4 10 -10z
m225 0 c0 -5 -4 -10 -10 -10 -5 0 -10 5 -10 10 0 6 5 10 10 10 6 0 10 -4 10
-10z m-8000 -19 c12 -23 3 -51 -15 -51 -19 0 -24 11 -18 43 6 32 18 35 33 8z
m5391 -18 c1 -21 0 -42 -1 -48 -1 -5 -2 -55 -2 -110 0 -64 -4 -103 -12 -107
-7 -5 -6 -8 4 -9 8 -1 -12 -5 -45 -8 -51 -6 -153 2 -117 9 6 1 17 4 22 5 6 1
15 3 21 4 5 0 8 5 4 10 -8 14 28 31 64 31 16 0 33 5 36 10 4 6 -5 10 -20 10
-28 0 -58 45 -39 58 6 4 14 15 17 26 5 13 14 17 33 13 l25 -4 -22 23 c-12 13
-19 24 -14 24 5 0 4 5 -2 11 -6 6 -10 17 -9 23 2 6 1 7 -2 3 -2 -4 -9 -4 -15
1 -8 5 -20 0 -34 -15 -15 -15 -18 -23 -9 -23 18 0 32 -70 16 -80 -7 -4 -9 -16
-5 -29 8 -25 -2 -44 -18 -34 -7 5 -28 9 -48 9 -49 2 -62 11 -56 40 3 16 0 24
-9 24 -24 0 -16 -54 11 -80 36 -34 30 -65 -13 -66 -18 -1 -35 2 -37 7 -3 4 -7
70 -9 147 l-4 140 91 6 c51 3 108 8 127 9 19 2 43 5 53 5 13 2 17 -6 18 -35z
m-320 5 c-1 -5 -1 -50 -1 -102 l0 -94 -27 4 c-34 6 -41 6 -73 0 -14 -2 -33 -4
-42 -5 -10 0 -18 -8 -18 -16 0 -13 40 -22 74 -16 4 1 14 -6 22 -16 13 -17 15
-17 33 5 25 29 31 28 31 -8 0 -39 -30 -54 -100 -53 -41 1 -49 0 -30 -7 25 -8
25 -8 -5 -9 -16 -1 -54 -4 -84 -8 -48 -5 -54 -4 -48 10 3 9 2 19 -3 22 -15 10
-12 55 5 61 13 5 13 8 0 21 -10 9 -15 37 -16 76 -1 34 -2 75 -3 91 -1 15 3 30
9 32 12 4 244 22 263 20 7 0 13 -4 13 -8z m-1600 -45 c-12 -20 -14 -14 -5 12
4 9 9 14 11 11 3 -2 0 -13 -6 -23z m1289 -112 c0 -137 0 -140 -22 -144 -23 -4
-23 -4 2 -15 22 -9 17 -11 -35 -10 -33 1 -45 3 -27 5 40 5 42 23 2 23 -32 0
-33 2 -24 37 5 18 11 22 30 17 27 -7 30 3 9 32 -12 18 -26 21 -90 23 l-75 2 0
-75 c0 -66 -2 -76 -18 -76 -11 0 -18 8 -19 23 -9 147 -16 217 -24 217 -5 0 -9
-49 -9 -110 0 -98 -2 -110 -17 -111 -17 -1 -17 -2 0 -6 41 -11 11 -19 -75 -21
-51 -1 -109 -4 -129 -8 -32 -5 -37 -3 -42 18 -10 40 -11 268 -1 277 8 8 368
36 507 40 l57 1 0 -139z m-1160 104 c0 -14 -4 -25 -9 -25 -4 0 -6 11 -3 25 2
14 6 25 8 25 2 0 4 -11 4 -25z m4510 15 c-20 -13 -33 -13 -25 0 3 6 14 10 23
10 15 0 15 -2 2 -10z m893 -5 c4 -8 2 -17 -3 -20 -6 -4 -10 3 -10 14 0 25 6
27 13 6z m27 5 c0 -5 -4 -10 -10 -10 -5 0 -10 5 -10 10 0 6 5 10 10 10 6 0 10
-4 10 -10z m-1856 -26 c3 -9 6 -76 6 -151 0 -134 0 -134 -22 -131 -23 3 -23 6
-26 151 -3 140 -2 147 16 147 11 0 23 -7 26 -16z m-3006 -138 c-2 -80 -6 -147
-9 -151 -8 -7 -230 -24 -241 -18 -5 2 -8 69 -8 148 0 172 -24 154 213 163 l48
2 -3 -144z m3712 123 c16 -29 7 -33 -22 -10 -19 15 -28 17 -36 9 -8 -8 -12 -8
-12 -2 0 31 54 33 70 3z m-8530 -9 c0 -5 -2 -10 -4 -10 -3 0 -8 5 -11 10 -3 6
-1 10 4 10 6 0 11 -4 11 -10z m579 1 c21 -13 3 -31 -31 -31 -30 0 -31 0 -13
20 20 22 24 23 44 11z m106 -5 c12 -12 11 -15 -8 -20 -38 -10 -67 -7 -67 8 0
14 17 22 48 25 7 0 20 -5 27 -13z m3845 -136 l0 -150 -33 0 c-19 0 -74 -3
-123 -6 -89 -7 -90 -6 -93 17 -5 34 -4 91 4 186 l8 83 31 5 c39 6 97 11 159
13 l47 2 0 -150z m4230 140 c-20 -13 -33 -13 -25 0 3 6 14 10 23 10 15 0 15
-2 2 -10z m-8250 -25 c0 -3 -17 -5 -37 -5 -35 1 -37 2 -19 15 13 10 24 11 37
4 11 -5 19 -12 19 -14z m-180 5 c0 -5 -7 -7 -15 -4 -8 4 -15 8 -15 10 0 2 7 4
15 4 8 0 15 -4 15 -10z m3920 -64 c0 -40 3 -101 6 -135 6 -55 5 -61 -12 -62
-18 0 -18 -1 1 -8 15 -6 3 -10 -43 -16 -35 -4 -66 -4 -70 -1 -3 4 16 72 42
151 57 169 76 187 76 71z m3647 -88 c5 -96 4 -108 -11 -108 -14 0 -16 16 -15
138 1 161 16 144 26 -30z m630 125 c13 -7 30 -13 38 -13 9 0 13 -4 10 -10 -3
-5 -22 -10 -41 -10 -33 0 -46 -14 -21 -23 6 -2 9 -8 5 -12 -4 -4 -14 -2 -23 5
-9 7 -13 15 -10 18 3 3 0 11 -6 18 -7 9 -6 18 3 33 7 11 15 17 18 13 3 -4 15
-13 27 -19z m-7937 -5 c0 -4 -4 -8 -10 -8 -5 0 -10 -6 -10 -14 0 -8 -8 -17
-17 -19 -10 -3 0 -3 22 -1 22 3 67 1 100 -3 l60 -8 -37 -22 c-26 -15 -36 -27
-32 -38 3 -8 8 -15 10 -15 2 0 72 -9 156 -20 84 -10 197 -21 250 -23 53 -3
101 -8 107 -11 6 -4 45 -11 88 -16 43 -5 136 -16 208 -25 71 -8 143 -15 160
-15 16 1 42 -2 58 -6 24 -6 27 -4 27 19 0 14 -7 33 -16 41 -10 11 -11 16 -3
16 7 0 9 3 6 7 -4 3 -1 13 5 21 10 12 8 18 -12 35 -16 13 -19 18 -7 14 9 -4
17 -2 17 3 0 6 -7 10 -15 10 -8 0 -15 7 -15 15 0 8 7 15 15 15 8 0 15 5 15 10
0 6 21 10 46 10 34 0 43 -3 37 -12 -4 -7 5 -5 20 5 21 14 70 22 205 33 218 18
224 18 229 -20 3 -22 -3 -35 -26 -57 -17 -15 -31 -34 -31 -42 0 -8 -7 -20 -15
-27 -8 -7 -15 -24 -15 -38 0 -13 -5 -41 -11 -62 -11 -37 -11 -37 -78 -43 -36
-4 -130 -9 -208 -13 -84 -4 -143 -11 -143 -17 0 -6 23 -7 63 -3 34 4 126 9
205 13 145 6 160 3 127 -31 -8 -8 -12 -21 -9 -29 3 -9 1 -24 -4 -34 -5 -10
-12 -53 -16 -95 l-7 -78 33 0 c23 -1 29 -3 18 -9 -8 -5 -77 -12 -152 -16
l-138 -7 0 91 c0 69 -4 98 -17 117 l-16 26 -13 -24 c-7 -12 -13 -30 -14 -38 0
-8 -7 -28 -16 -45 -10 -19 -14 -48 -12 -79 2 -41 0 -49 -14 -52 -10 -1 -18 3
-19 9 -1 7 -5 1 -9 -13 -8 -24 -8 -23 -9 8 -1 20 3 31 9 27 6 -3 10 -1 10 5 0
8 -9 10 -27 5 -16 -4 -35 -8 -43 -10 -8 -2 -43 -10 -76 -19 -65 -17 -175 -22
-159 -7 6 4 71 23 145 40 153 36 165 40 158 46 -2 2 -87 -16 -188 -41 l-185
-46 -265 17 c-307 20 -325 23 -324 53 1 12 -3 22 -8 22 -6 0 -8 7 -4 15 3 9 0
15 -10 15 -8 0 -30 11 -48 25 -23 18 -45 25 -75 25 -34 0 -44 4 -48 20 -4 16
-13 19 -54 16 -26 -1 -46 1 -43 6 3 4 14 8 24 8 10 0 22 5 25 11 5 7 -7 8 -39
4 -34 -6 -49 -3 -61 8 -22 23 -20 25 30 33 46 6 72 24 36 24 -11 0 -22 4 -25
9 -7 10 17 21 46 21 11 0 22 8 25 20 3 11 14 20 25 20 10 0 17 4 14 9 -3 5 9
14 27 21 29 11 30 13 12 20 -19 7 -18 8 7 18 33 14 40 25 32 56 -6 24 -8 25
-27 11 -28 -19 -47 -19 -47 1 0 11 6 14 20 9 12 -4 20 -2 20 6 0 8 -11 10 -35
6 -20 -3 -35 -2 -35 4 0 6 -5 7 -11 3 -6 -3 -15 0 -20 7 -11 17 -12 39 -1 38
20 -3 45 2 38 8 -12 12 -54 14 -61 3 -9 -14 -27 -12 -23 3 7 20 118 35 118 15z
m79 3 c10 -6 10 -10 1 -16 -14 -9 -60 2 -60 15 0 12 40 13 59 1z m1016 -1 c3
-5 1 -10 -4 -10 -6 0 -11 5 -11 10 0 6 2 10 4 10 3 0 8 -4 11 -10z m2402 -32
c-3 -8 -6 -5 -6 6 -1 11 2 17 5 13 3 -3 4 -12 1 -19z m-1524 -5 c4 -2 7 -65 7
-140 l0 -136 -67 7 c-37 4 -70 9 -73 12 -3 3 -7 66 -8 141 l-4 135 69 -7 c37
-4 71 -9 76 -12z m-2150 -24 c5 -17 2 -20 -13 -16 -14 3 -17 1 -13 -12 4 -11
1 -10 -10 4 -13 17 -13 20 -1 23 8 2 14 8 14 13 0 18 18 9 23 -12z m1245 -2
c3 -12 -4 -17 -22 -17 -28 0 -33 9 -14 28 15 15 32 10 36 -11z m-94 7 c9 -3
16 -9 16 -13 0 -12 -44 -5 -48 7 -4 13 8 15 32 6z m7016 -14 c13 -8 13 -11 1
-22 -11 -10 -14 -10 -18 0 -3 6 -12 12 -21 12 -15 0 -15 2 -2 10 19 12 21 12
40 0z m-80 -15 c10 -12 10 -15 -4 -15 -9 0 -16 7 -16 15 0 8 2 15 4 15 2 0 9
-7 16 -15z m-8137 -19 c24 -19 22 -22 -18 -23 -39 -1 -41 1 -22 22 15 18 18
18 40 1z m1307 4 c0 -5 -10 -10 -22 -9 -22 0 -22 1 -3 9 11 5 21 9 23 9 1 1 2
-3 2 -9z m5795 -20 c22 -11 49 -19 60 -20 11 0 29 -6 40 -14 11 -7 33 -14 49
-14 15 0 32 -6 37 -13 5 -8 9 -83 9 -166 0 -145 -1 -153 -19 -153 -11 0 -23 5
-27 12 -4 6 -6 78 -5 160 1 81 -1 148 -3 148 -2 0 -11 -3 -20 -6 -14 -5 -16
-28 -16 -150 0 -79 -3 -144 -7 -144 -5 0 -18 3 -30 6 -22 6 -23 10 -23 146 0
127 -2 139 -17 136 -16 -3 -18 -19 -21 -133 l-3 -130 -93 3 c-83 3 -95 6 -99
23 -7 25 -37 26 -32 0 3 -16 -5 -20 -62 -26 -43 -4 -69 -3 -76 4 -8 8 -8 11 2
11 7 0 9 5 5 12 -10 16 -4 272 6 276 5 2 6 10 3 18 -4 11 6 14 48 15 30 1 79
4 109 9 95 13 143 10 185 -10z m1143 7 c14 0 14 -4 2 -32 -5 -11 -9 -14 -9 -7
-1 7 -5 11 -11 7 -19 -12 -60 7 -60 27 0 17 4 19 33 12 17 -4 38 -7 45 -7z
m-1528 -17 c0 -5 -8 -11 -17 -11 -17 -1 -17 -2 0 -6 15 -4 17 -20 17 -157 l0
-153 -82 -6 c-116 -9 -260 -9 -254 1 3 5 6 79 7 165 1 86 4 158 8 158 9 2 221
15 274 17 26 1 47 -2 47 -8z m1647 -12 c-3 -8 -6 -5 -6 6 -1 11 2 17 5 13 3
-3 4 -12 1 -19z m698 4 c-3 -3 -11 0 -18 7 -9 10 -8 11 6 5 10 -3 15 -9 12
-12z m-9110 -11 c-6 -11 -45 -10 -45 1 0 4 12 8 26 8 14 0 23 -4 19 -9z m6405
-128 c1 -76 2 -151 3 -168 l2 -30 -155 -5 c-85 -3 -158 -4 -162 -3 -5 2 -2
290 3 301 1 1 2 8 3 15 1 12 82 20 243 25 l61 2 2 -137z m-6219 94 c-13 -13
-26 -3 -16 12 3 6 11 8 17 5 6 -4 6 -10 -1 -17z m5869 8 c-9 -10 -9 -15 -1
-15 8 0 11 -45 11 -148 l0 -149 -147 -7 c-80 -3 -149 -4 -152 0 -3 3 -6 76 -6
162 l0 157 85 6 c47 3 116 6 154 7 60 2 67 0 56 -13z m2081 -2 c47 -17 64 -33
35 -33 -8 0 -21 -3 -30 -6 -9 -3 -16 -1 -16 6 0 6 6 8 13 5 6 -4 1 2 -13 13
-18 15 -29 18 -42 11 -17 -9 -25 1 -11 14 9 9 9 9 64 -10z m329 7 c0 -5 -2
-10 -4 -10 -3 0 -8 5 -11 10 -3 6 -1 10 4 10 6 0 11 -4 11 -10z m-2828 -23 c6
-9 8 -9 8 1 0 8 15 12 43 12 27 0 37 -3 28 -9 -8 -5 -9 -10 -3 -12 6 -3 12
-62 14 -150 l3 -146 -89 -7 c-49 -3 -115 -6 -148 -6 l-58 0 5 88 c2 48 5 119
6 157 l2 70 56 3 c31 2 57 4 58 5 8 9 69 4 75 -6z m3558 -5 c19 -17 19 -18 0
-18 -10 0 -17 2 -15 5 3 2 0 10 -6 18 -17 19 -1 16 21 -5z m-3790 -2 c0 -5 -6
-10 -12 -11 -10 0 -10 -2 0 -6 9 -3 12 -43 12 -147 l0 -143 -52 -7 c-29 -3
-92 -6 -140 -6 l-88 0 1 155 c1 142 3 155 20 160 10 4 66 5 124 4 58 -1 108 1
112 4 10 10 23 8 23 -3z m-4040 -10 c0 -5 -7 -7 -15 -4 -8 4 -15 8 -15 10 0 2
7 4 15 4 8 0 15 -4 15 -10z m6054 2 c2 -4 7 -76 10 -160 l7 -152 -26 0 -25 0
0 160 c0 133 2 160 14 160 8 0 17 -3 20 -8z m-7279 -12 c-11 -5 -27 -9 -35 -9
-13 -1 -13 0 0 9 8 5 24 9 35 9 l20 0 -20 -9z m4928 -9 c-2 -6 4 -11 12 -11
14 0 16 -21 14 -144 l-1 -145 -111 1 c-62 1 -122 -2 -134 -6 l-23 -7 0 154 c0
146 1 155 20 160 21 5 21 7 24 -93 1 -25 5 -50 9 -57 4 -6 3 -14 -3 -18 -5 -3
-10 -17 -10 -31 0 -29 47 -54 61 -32 6 9 11 2 15 -22 11 -54 22 -10 23 92 1
48 6 90 11 93 6 3 10 21 10 40 0 31 3 34 33 38 41 5 53 2 50 -12z m3204 3 c-3
-3 -12 -4 -19 -1 -8 3 -5 6 6 6 11 1 17 -2 13 -5z m-3492 -13 c-18 -8 -19 -9
-2 -16 15 -6 17 -23 17 -146 l0 -139 -107 0 c-60 0 -118 -3 -130 -6 l-23 -6 0
155 0 156 73 3 c182 7 192 7 172 -1z m2723 -3 c8 -8 12 -57 12 -156 0 -143 0
-143 -22 -140 -22 3 -23 6 -26 143 -3 166 2 187 36 153z m-3017 -15 c-8 -4
-10 -8 -3 -12 9 -5 16 -144 13 -257 -1 -20 -8 -21 -113 -26 -62 -3 -117 -4
-123 -2 -6 3 -10 58 -11 147 -1 135 0 142 20 149 25 7 237 9 217 1z m-272
-152 l-1 -148 -115 -7 c-63 -4 -117 -5 -120 -2 -3 3 -7 71 -8 150 l-2 145 61
4 c34 2 89 4 124 5 l63 2 -2 -149z m3369 -9 c-3 -123 -5 -140 -18 -132 -20 12
-28 217 -9 261 22 54 30 16 27 -129z m-3643 -2 l0 -145 -113 -9 c-62 -4 -116
-6 -119 -2 -3 3 16 71 43 150 l48 145 56 4 c30 2 62 3 70 3 13 -1 15 -24 15
-146z m4628 109 c3 -13 1 -19 -6 -16 -15 5 -22 37 -9 37 5 0 12 -9 15 -21z
m-413 -3 c0 -18 -30 -30 -44 -16 -7 7 -3 10 12 10 12 0 22 5 22 10 0 6 2 10 5
10 3 0 5 -6 5 -14z m615 4 c3 -5 -3 -10 -15 -10 -12 0 -18 5 -15 10 3 6 10 10
15 10 5 0 12 -4 15 -10z m-6552 -20 l37 0 0 -144 0 -143 -52 4 c-100 8 -98 6
-97 71 1 47 3 52 9 27 6 -25 8 -20 8 25 0 30 -3 81 -7 114 l-7 58 35 -6 c20
-3 53 -6 74 -6z m6587 1 c0 -5 -13 -14 -30 -20 -35 -12 -40 -1 -7 15 29 15 37
16 37 5z m-290 -21 c0 -5 -9 -14 -20 -20 -22 -12 -23 -10 -14 14 7 17 34 22
34 6z m-356 -15 c3 -9 0 -15 -10 -15 -8 0 -13 4 -10 9 4 5 0 12 -6 14 -8 4 -7
6 3 6 9 1 19 -6 23 -14z m299 -32 c-7 -2 -19 -2 -25 0 -7 3 -2 5 12 5 14 0 19
-2 13 -5z m-6443 -98 c0 -57 -4 -95 -10 -95 -5 0 -10 22 -10 49 0 52 10 141
16 141 2 0 4 -43 4 -95z m6155 75 c-3 -5 -13 -10 -21 -10 -8 0 -14 -4 -14 -9
0 -5 -9 -7 -20 -4 -37 10 -23 33 21 33 24 0 38 -4 34 -10z m476 -13 c-10 -9
-11 -8 -5 6 3 10 9 15 12 12 3 -3 0 -11 -7 -18z m-31 -27 c-8 -5 -22 -9 -30
-9 -10 0 -8 3 5 9 27 12 43 12 25 0z m-4990 -51 c0 -5 -4 -9 -10 -9 -5 0 -10
7 -10 16 0 8 5 12 10 9 6 -3 10 -10 10 -16z m5103 14 c-7 -2 -19 -2 -25 0 -7
3 -2 5 12 5 14 0 19 -2 13 -5z m-6903 -13 c0 -5 -4 -10 -10 -10 -5 0 -10 5
-10 10 0 6 5 10 10 10 6 0 10 -4 10 -10z m6420 -30 c0 -5 -5 -10 -11 -10 -5 0
-7 5 -4 10 3 6 8 10 11 10 2 0 4 -4 4 -10z m-6353 -32 c-3 -8 -6 -5 -6 6 -1
11 2 17 5 13 3 -3 4 -12 1 -19z m-512 -56 c-3 -4 -10 0 -15 8 -7 10 -10 11
-10 3 0 -8 -15 -13 -41 -13 -26 0 -38 4 -33 11 3 6 19 9 35 7 16 -3 29 -1 29
3 0 4 8 9 18 11 17 4 30 -18 17 -30z m62 -8 c-3 -3 -12 -4 -19 -1 -8 3 -5 6 6
6 11 1 17 -2 13 -5z m3650 -90 c-3 -3 -12 -4 -19 -1 -8 3 -5 6 6 6 11 1 17 -2
13 -5z m-570 -10 c-3 -3 -12 -4 -19 -1 -8 3 -5 6 6 6 11 1 17 -2 13 -5z
m-4757 -77 c0 -35 -45 -137 -61 -137 -15 0 -30 76 -20 103 5 14 8 33 5 43 -3
13 3 22 18 30 34 15 58 0 58 -39z m2474 -2 c22 -17 13 -35 -19 -35 -29 0 -41
16 -25 35 15 18 20 18 44 0z m-282 -30 c3 -14 1 -25 -3 -25 -5 0 -9 11 -9 25
0 14 2 25 4 25 2 0 6 -11 8 -25z m398 15 c0 -5 -13 -10 -30 -10 -16 0 -30 5
-30 10 0 6 14 10 30 10 17 0 30 -4 30 -10z m105 1 c3 -5 2 -12 -2 -14 -12 -8
-63 4 -63 14 0 12 57 12 65 0z m125 -12 c0 -12 -6 -16 -20 -12 -29 8 -26 30 5
30 8 0 15 -8 15 -18z m3225 1 c-3 -5 -12 -7 -20 -3 -21 7 -19 13 6 13 11 0 18
-4 14 -10z m-2165 -16 l35 -6 3 -69 c2 -61 1 -69 -16 -69 -10 0 -22 -4 -28
-10 -5 -5 -25 -7 -44 -4 l-35 6 3 79 c4 88 2 86 82 73z m-3818 -66 c1 -59 -26
-120 -55 -124 -21 -3 -21 8 -1 77 19 62 43 113 51 106 3 -3 5 -30 5 -59z
m3952 51 l-31 -9 9 -57 c5 -32 10 -59 12 -60 2 -2 28 -7 57 -11 50 -6 45 -7
-56 -13 -60 -3 -114 -2 -119 2 -6 5 3 9 22 9 l32 0 2 58 c0 31 1 65 0 75 -2
14 7 17 51 16 48 -1 49 -2 21 -10z m-1424 -20 c0 -16 -5 -20 -27 -17 -14 2
-28 9 -31 17 -3 9 2 11 17 6 12 -4 21 -2 21 4 0 6 5 11 10 11 6 0 10 -9 10
-21z m100 -13 c0 -8 -35 -8 -43 0 -3 3 -1 12 6 19 9 9 14 9 24 -1 7 -7 13 -15
13 -18z m130 -46 c0 -63 -3 -80 -14 -80 -24 0 -28 18 -12 42 9 13 16 43 16 70
0 27 2 48 5 48 3 0 5 -36 5 -80z m-337 53 c-7 -2 -19 -2 -25 0 -7 3 -2 5 12 5
14 0 19 -2 13 -5z m1787 -52 c0 -52 -5 -62 -26 -54 -15 6 -17 83 -2 83 4 0 7
3 7 8 -3 16 2 23 11 17 6 -3 10 -28 10 -54z m-1782 -33 l3 -48 -36 0 -35 0 1
51 c2 50 2 50 33 47 29 -3 31 -6 34 -50z m88 42 c10 0 14 -13 14 -45 0 -43 -1
-45 -30 -45 -29 0 -30 1 -30 51 0 43 3 50 16 45 9 -3 22 -6 30 -6z m114 -45
c0 -43 -1 -45 -30 -45 -28 0 -29 1 -27 45 2 42 4 45 30 45 25 0 27 -3 27 -45z
m-453 3 c-3 -7 -5 -2 -5 12 0 14 2 19 5 13 2 -7 2 -19 0 -25z m4740 -14 c-3
-3 -12 -4 -19 -1 -8 3 -5 6 6 6 11 1 17 -2 13 -5z m-5150 -29 c16 -11 20 -24
19 -60 -1 -24 -5 -48 -9 -51 -8 -8 -9 -44 -2 -44 3 0 14 6 25 13 17 10 22 9
30 -3 5 -8 10 -21 10 -29 0 -11 -3 -11 -14 -2 -11 9 -20 9 -35 2 -11 -6 -22
-11 -24 -11 -10 0 -29 102 -23 124 5 19 1 26 -14 31 -31 10 -24 39 10 44 3 1
15 -6 27 -14z m5153 5 c-20 -13 -33 -13 -25 0 3 6 14 10 23 10 15 0 15 -2 2
-10z m-2820 -16 l25 -15 -25 7 c-14 3 -29 10 -34 15 -16 14 6 10 34 -7z m2705
-4 c-3 -5 -10 -10 -16 -10 -5 0 -9 5 -9 10 0 6 7 10 16 10 8 0 12 -4 9 -10z
m-3817 -20 c25 -24 32 -25 32 -5 0 13 16 15 108 13 l107 -3 3 -38 c3 -31 -1
-39 -20 -46 -13 -6 -19 -10 -14 -10 5 -1 3 -8 -4 -16 -7 -8 -16 -12 -21 -9 -5
3 -9 0 -9 -6 0 -16 42 -29 62 -19 22 12 58 12 58 0 0 -6 14 -6 35 0 18 5 85 8
146 7 l113 -3 -140 -28 c-87 -17 -159 -26 -191 -24 -29 2 -53 2 -53 -2 0 -3
-50 -6 -110 -7 -61 0 -110 3 -110 8 0 19 60 68 89 74 28 6 48 28 33 38 -21 12
-83 23 -88 15 -10 -16 -24 -9 -34 17 -6 14 -16 24 -23 21 -14 -4 -19 -235 -5
-243 4 -3 8 4 8 14 0 11 6 24 13 30 14 12 277 21 277 10 0 -11 7 -10 -140 -17
l-135 -6 -6 -35 c-4 -19 -7 -30 -8 -25 0 6 -12 11 -26 11 -17 1 -25 -3 -25
-15 0 -9 -7 -26 -15 -37 -8 -12 -12 -24 -9 -27 3 -3 -4 -3 -15 0 -26 7 -37 46
-23 77 8 18 6 25 -9 34 -22 14 -20 17 -39 -68 -6 -30 -10 -73 -8 -95 l3 -40
63 -3 c38 -2 64 -8 67 -15 2 -7 6 -25 10 -40 l6 -29 -83 6 c-46 4 -129 9 -185
12 -59 3 -103 10 -103 15 0 6 -9 7 -21 4 -13 -4 -24 -2 -29 4 -5 9 -14 9 -36
0 -77 -32 -121 -34 -174 -10 l-45 20 33 12 c38 13 40 24 10 56 -18 20 -19 23
-5 23 21 0 21 9 0 32 -9 10 -29 18 -45 18 -24 0 -28 4 -28 26 0 20 4 25 17 20
20 -8 33 10 33 46 0 15 5 30 11 34 8 4 8 9 0 17 -20 20 -12 37 17 35 32 -2 60
11 44 21 -7 4 -9 34 -5 84 l6 77 38 0 39 0 1 -92 c2 -123 4 -152 17 -174 10
-17 11 -16 12 9 l0 27 98 2 c53 1 76 3 50 5 -40 3 -48 8 -48 24 0 10 5 19 11
19 8 0 8 5 -1 15 -9 11 -10 36 -5 91 l7 75 31 -3 32 -3 0 -88 c0 -60 4 -87 12
-87 6 0 18 -14 27 -30 13 -28 13 -31 -5 -40 -10 -6 -19 -7 -19 -3 -1 4 -8 -8
-16 -27 -18 -43 -43 -70 -62 -70 -8 0 -23 -11 -34 -25 -11 -14 -27 -25 -36
-25 -38 0 -94 -78 -59 -81 55 -6 253 -2 243 4 -6 5 1 6 17 3 17 -4 27 -2 27 5
0 7 10 9 26 6 25 -4 26 -3 19 32 -16 84 -22 147 -15 154 4 5 15 0 25 -10 18
-17 18 -17 12 16 -4 20 -3 39 4 47 6 8 7 14 2 14 -5 0 -11 27 -12 60 -2 62 9
76 31 40 15 -23 38 -27 38 -5 0 8 5 15 10 15 6 0 10 4 10 10 0 5 -20 15 -45
21 -39 10 -45 15 -45 39 0 14 3 30 7 33 3 4 43 7 88 7 67 0 85 -3 103 -20z
m-454 -12 c10 -48 12 -139 4 -144 -5 -3 -4 -12 2 -19 18 -22 3 -35 -40 -35
l-39 0 3 73 c2 39 4 89 5 110 1 34 3 37 31 37 23 0 31 -5 34 -22z m226 -7 c0
-24 -3 -28 -20 -24 -13 3 -20 14 -20 29 0 17 6 24 20 24 15 0 20 -7 20 -29z
m586 19 c6 -6 30 -6 64 -1 30 5 94 9 141 10 78 2 87 0 92 -18 6 -23 -10 -31
-63 -31 -30 0 -40 -5 -45 -20 -10 -31 2 -39 55 -34 29 2 50 0 50 -6 0 -12 12
-11 -110 -16 -102 -5 -107 -4 -135 21 -34 28 -35 29 -55 14 -13 -9 -12 -10 3
-5 9 3 17 1 17 -4 0 -6 7 -10 15 -10 8 0 15 -4 15 -8 0 -4 -27 -9 -60 -10 -54
-2 -60 -1 -60 17 0 11 9 25 20 31 11 6 20 17 20 24 0 9 -7 12 -20 9 -16 -4
-20 0 -20 21 0 23 4 26 33 26 18 0 37 -4 43 -10z m1003 -63 c-6 -22 -3 -33 12
-48 25 -25 24 -33 -1 -19 -11 6 -25 8 -29 5 -5 -3 -8 8 -6 25 6 49 -15 35 -30
-20 -6 -21 -36 -80 -43 -84 -5 -3 -18 1 -28 9 -18 14 -18 16 -1 26 30 18 21
39 -15 36 -26 -2 -34 -7 -36 -26 -2 -15 0 -21 7 -17 6 4 11 3 11 -2 0 -5 -9
-12 -19 -15 -13 -3 -21 1 -24 15 -5 16 -9 18 -26 8 -25 -13 -45 -4 -37 16 5
14 -3 17 -39 15 -18 -1 -18 1 5 16 13 10 40 34 60 54 34 34 39 36 125 43 69 5
92 10 99 24 9 15 11 14 16 -8 4 -14 3 -38 -1 -53z m-645 54 c17 -7 18 -8 1
-24 -14 -14 -20 -15 -32 -5 -10 8 -11 14 -4 16 6 2 9 8 5 13 -6 10 3 11 30 0z
m426 0 c0 -5 -7 -11 -15 -15 -15 -5 -20 5 -8 17 9 10 23 9 23 -2z m1613 2 c-7
-2 -19 -2 -25 0 -7 3 -2 5 12 5 14 0 19 -2 13 -5z m235 -24 c12 -19 12 -20
-13 -3 -14 9 -25 20 -25 25 0 14 25 0 38 -22z m-4598 -33 c0 -8 5 -18 10 -21
6 -3 10 -17 10 -30 0 -12 7 -25 15 -29 24 -9 18 -23 -17 -37 -34 -14 -38 -15
-60 -18 -9 -1 -8 -4 2 -11 9 -6 18 -6 24 0 21 21 36 10 36 -27 -1 -61 -16 -73
-98 -73 -39 0 -82 4 -96 10 -23 8 -24 12 -15 40 6 17 20 37 31 44 13 10 17 19
12 28 -5 7 -10 40 -11 72 -3 64 4 75 47 76 14 0 36 7 50 15 22 12 27 11 43 -5
9 -11 17 -26 17 -34z m6619 43 c73 -23 91 -32 91 -41 0 -5 9 -18 19 -30 25
-26 44 -78 30 -78 -6 0 -13 9 -16 21 -5 16 -8 18 -15 7 -7 -9 -8 -7 -5 10 3
13 1 20 -5 16 -6 -4 -14 0 -19 7 -4 8 -12 14 -16 14 -4 0 -17 6 -28 14 -15 9
-16 11 -2 7 9 -3 17 -1 17 4 0 12 -37 13 -44 2 -2 -4 15 -27 39 -51 l44 -44
-20 -29 c-34 -47 -47 -34 -75 75 -9 38 -26 77 -37 88 -24 22 -11 25 42 8z
m704 -7 c13 -14 14 -21 5 -30 -7 -7 -18 -12 -24 -12 -20 0 -28 21 -13 31 10 6
11 9 2 9 -7 0 -13 5 -13 10 0 16 26 11 43 -8z m-8653 -2 c0 -5 -2 -10 -4 -10
-3 0 -8 5 -11 10 -3 6 -1 10 4 10 6 0 11 -4 11 -10z m50 -6 c0 -2 -7 -4 -15
-4 -8 0 -15 4 -15 10 0 5 7 7 15 4 8 -4 15 -8 15 -10z m1420 6 c0 -5 -2 -10
-4 -10 -3 0 -8 5 -11 10 -3 6 -1 10 4 10 6 0 11 -4 11 -10z m7289 1 c8 -5 11
-16 7 -26 -5 -13 -13 -15 -34 -10 -34 8 -36 11 -29 30 7 17 34 20 56 6z
m-1219 -11 c-14 -4 -34 -8 -45 -8 l-20 -1 20 9 c11 5 31 8 45 8 l25 0 -25 -8z
m-3835 -10 c3 -5 1 -10 -4 -10 -6 0 -11 5 -11 10 0 6 2 10 4 10 3 0 8 -4 11
-10z m1763 -15 c14 -31 15 -35 4 -35 -8 0 -32 43 -32 55 0 15 19 1 28 -20z
m435 -34 c-7 -9 -31 34 -25 47 3 10 9 5 17 -14 7 -16 11 -31 8 -33z m117 46
c0 -28 -32 -65 -60 -69 -24 -4 -30 -2 -25 10 3 9 0 19 -7 23 -7 4 -9 12 -4 16
4 4 14 -1 23 -12 14 -19 15 -18 8 13 -7 32 -6 33 29 30 20 -1 36 -6 36 -11z
m2810 5 c0 -13 -12 -22 -22 -16 -10 6 -1 24 13 24 5 0 9 -4 9 -8z m-7373 -8
c-3 -3 -12 -4 -19 -1 -8 3 -5 6 6 6 11 1 17 -2 13 -5z m3240 0 c-3 -3 -12 -4
-19 -1 -8 3 -5 6 6 6 11 1 17 -2 13 -5z m1413 -3 c0 -6 -4 -13 -10 -16 -5 -3
-10 1 -10 9 0 9 5 16 10 16 6 0 10 -4 10 -9z m130 -11 c0 -13 -29 -32 -39 -26
-5 4 -14 -1 -19 -10 -8 -14 -92 -34 -92 -21 0 3 5 17 11 31 12 25 15 26 117
32 12 1 22 -2 22 -6z m-2230 -10 c0 -5 -4 -10 -10 -10 -5 0 -10 5 -10 10 0 6
5 10 10 10 6 0 10 -4 10 -10z m-4280 -10 c0 -5 -4 -10 -10 -10 -5 0 -10 5 -10
10 0 6 5 10 10 10 6 0 10 -4 10 -10z m2530 -31 c0 -20 -4 -29 -12 -26 -7 2
-13 9 -12 15 1 7 2 21 3 33 2 31 21 12 21 -22z m433 27 c25 -19 21 -26 -8 -13
-14 7 -25 15 -25 20 0 11 13 8 33 -7z m6074 -3 c2 -6 -1 -14 -6 -18 -6 -3 -11
-12 -11 -18 0 -8 3 -8 9 2 7 11 13 10 33 -3 14 -9 28 -13 32 -9 3 4 16 8 27
10 17 3 19 -1 14 -19 -11 -37 -34 -68 -50 -68 -24 0 -17 -20 8 -21 l22 -2 -23
-4 c-19 -4 -21 -7 -11 -19 9 -11 8 -14 -5 -14 -11 0 -16 9 -16 26 0 21 -4 25
-20 21 -21 -5 -24 1 -14 27 3 8 12 12 19 10 11 -5 12 -1 2 20 -11 23 -26 31
-50 27 -5 -1 -6 3 -2 9 3 5 -1 10 -9 10 -8 0 -22 8 -32 17 -16 17 -16 18 7 24
32 9 72 5 76 -8z m-7091 -52 c3 -14 8 -35 11 -46 6 -21 51 -67 97 -98 14 -10
26 -22 26 -27 0 -19 -25 -9 -61 23 -20 17 -51 44 -69 58 -37 29 -62 88 -48
113 12 21 37 9 44 -23z m2923 12 c13 -15 19 -34 16 -44 -4 -11 2 -27 14 -41
21 -22 27 -38 14 -38 -15 1 -60 56 -66 80 -3 14 -9 35 -12 48 -10 30 9 28 34
-5z m691 7 c0 -5 -2 -10 -4 -10 -3 0 -8 5 -11 10 -3 6 -1 10 4 10 6 0 11 -4
11 -10z m3364 -12 c-8 -27 -22 -38 -41 -31 -18 7 -17 33 2 33 8 0 15 5 15 10
0 6 7 10 16 10 11 0 14 -6 8 -22z m-141 -14 c-3 -9 6 -18 23 -25 29 -11 29
-11 7 -22 -16 -7 -23 -19 -23 -39 0 -23 4 -28 24 -28 22 0 36 -16 36 -41 0 -5
-9 -9 -21 -9 -16 0 -19 -4 -14 -20 18 -57 -57 -84 -91 -32 -10 15 -17 33 -15
41 3 18 -33 51 -57 51 -11 0 -25 7 -32 15 -10 13 -9 15 9 15 12 0 32 5 43 11
17 9 23 8 30 -5 5 -9 13 -14 19 -11 5 4 12 -1 15 -9 9 -24 24 -19 24 8 0 14 5
28 10 31 11 7 4 25 -10 25 -5 0 -11 -8 -13 -17 -4 -17 -5 -17 -6 0 0 10 6 20
14 23 19 8 20 24 1 24 -20 0 -31 21 -16 30 18 11 49 0 43 -16z m-6988 6 c3 -5
1 -10 -4 -10 -6 0 -11 5 -11 10 0 6 2 10 4 10 3 0 8 -4 11 -10z m7371 -26 c-5
-18 -10 -24 -17 -17 -7 7 -7 17 2 31 17 27 23 20 15 -14z m-8885 -43 c-22 -22
-28 -57 -10 -63 6 -2 1 -14 -10 -27 -12 -13 -21 -28 -21 -33 0 -5 -12 -13 -26
-18 -30 -12 -64 2 -64 26 0 8 -6 14 -12 12 -7 -2 -13 2 -13 7 0 5 6 9 13 7 7
-2 12 7 12 23 0 14 5 25 11 25 5 0 7 -6 4 -12 -4 -7 2 -3 13 10 20 22 39 31
27 12 -3 -5 -3 -15 1 -21 3 -6 15 8 26 33 10 23 29 54 41 66 l22 24 3 -25 c2
-16 -5 -34 -17 -46z m4269 61 c0 -5 -9 -19 -20 -32 -11 -13 -20 -31 -20 -42 0
-10 -4 -18 -10 -18 -5 0 -10 6 -10 14 0 8 5 18 10 21 6 3 10 15 10 25 0 10 8
24 18 29 21 13 22 13 22 3z m450 -2 c0 -5 -5 -10 -12 -10 -6 0 -8 -3 -4 -7 4
-5 14 1 22 11 13 19 14 19 14 -6 0 -21 -6 -27 -32 -32 -69 -14 -71 -13 -75 22
-4 32 -4 32 41 32 26 0 46 -4 46 -10z m-2984 -13 c4 -4 2 -7 -4 -7 -5 0 -17
-3 -26 -6 -11 -4 -16 -1 -16 10 0 16 32 18 46 3z m2574 -19 c-1 -28 -2 -30
-11 -15 -6 10 -8 25 -5 33 9 24 16 16 16 -18z m1137 26 c-3 -3 -12 -4 -19 -1
-8 3 -5 6 6 6 11 1 17 -2 13 -5z m-1972 -14 c-16 -4 -46 -8 -65 -8 l-35 0 30
8 c17 4 46 8 65 8 l35 0 -30 -8z m1895 0 c0 -5 9 -10 19 -10 19 0 99 -58 100
-72 1 -4 -10 -3 -23 3 -17 8 -29 8 -42 0 -17 -9 -17 -10 6 -11 22 -1 23 -2 7
-11 -9 -5 -21 -8 -25 -5 -5 3 -33 6 -64 7 l-56 2 17 31 c10 17 23 41 30 54 12
22 31 30 31 12z m-3242 -118 c-1 -40 -5 -75 -9 -77 -9 -6 -17 111 -11 160 4
37 5 38 14 15 5 -14 8 -58 6 -98z m6460 36 l-13 -23 -3 24 c-2 13 2 35 10 49
l13 26 3 -27 c2 -14 -3 -36 -10 -49z m-2546 40 c-7 -7 -12 -8 -12 -2 0 14 12
26 19 19 2 -3 -1 -11 -7 -17z m-2614 -12 c-9 -22 -19 -25 -77 -31 -36 -3 -81
-7 -98 -10 -37 -4 -37 -5 -22 29 13 28 30 32 136 35 l73 1 -12 -24z m2392 8
c0 -8 -5 -12 -10 -9 -6 4 -8 11 -5 16 9 14 15 11 15 -7z m-3136 -10 c4 -10 1
-14 -6 -12 -15 5 -23 28 -10 28 5 0 13 -7 16 -16z m3541 -9 c-44 -36 -65 -32
-49 9 4 11 18 16 43 16 l36 -1 -30 -24z m1728 13 c-12 -20 -14 -48 -3 -48 6 0
10 -7 10 -16 0 -14 3 -14 15 -4 8 7 15 21 15 31 0 29 35 43 68 27 16 -8 37
-11 52 -7 24 7 24 7 3 8 -13 1 -23 6 -23 11 0 12 2 12 34 0 14 -5 26 -16 26
-25 0 -8 5 -15 10 -15 6 0 15 -12 21 -27 8 -21 6 -30 -6 -42 -13 -14 -15 -12
-16 14 l0 30 -11 -25 c-5 -14 -16 -38 -23 -55 l-14 -30 0 47 c-1 26 3 58 9 72
8 23 7 26 -10 26 -17 0 -19 -5 -14 -24 7 -29 -23 -173 -39 -183 -7 -4 -8 7 -3
35 4 26 2 42 -4 42 -5 0 -10 9 -10 19 0 19 -25 36 -47 32 -7 -1 -13 3 -13 9 0
5 -5 10 -11 10 -6 0 -20 11 -31 25 -10 14 -34 29 -51 33 l-32 8 45 16 c58 20
63 20 53 6z m-3878 -8 c-3 -5 -10 -10 -16 -10 -5 0 -9 5 -9 10 0 6 7 10 16 10
8 0 12 -4 9 -10z m2496 -11 c36 -25 29 -41 -11 -26 -18 7 -30 19 -30 29 0 23
5 23 41 -3z m-4850 -52 c1 -7 1 -15 0 -19 0 -4 7 -24 16 -45 9 -21 19 -56 22
-78 l6 -40 215 -5 c195 -5 216 -9 73 -13 -28 -1 -49 -5 -47 -9 3 -4 -36 -6
-85 -4 -53 1 -88 -1 -84 -7 3 -5 -3 -5 -13 1 -17 9 -19 6 -20 -20 l-1 -30 171
7 c94 4 295 13 446 20 151 6 281 9 288 5 8 -4 -64 -10 -158 -13 -430 -15 -720
-32 -720 -40 0 -6 56 -7 138 -3 704 32 944 39 917 27 -11 -4 -150 -14 -310
-21 -465 -20 -581 -29 -315 -24 124 2 309 7 411 11 119 4 192 2 204 -4 13 -8
-17 -13 -116 -19 -107 -7 -121 -10 -69 -12 36 -2 160 1 275 7 237 12 527 13
480 1 -16 -4 -58 -8 -92 -9 -40 -1 -63 -5 -63 -12 0 -12 238 -7 503 10 68 4
111 3 118 -4 5 -5 56 -11 112 -12 137 -3 330 -5 342 -2 6 1 13 1 16 1 163 -17
229 -19 229 -7 0 6 4 4 8 -3 12 -18 51 -23 89 -13 17 5 34 6 37 3 4 -3 29 -7
57 -8 27 -1 56 -7 62 -11 7 -5 23 -8 37 -6 95 11 139 12 165 3 25 -7 18 -9
-40 -9 -65 0 -131 -7 -164 -17 -21 -7 0 -24 35 -28 16 -2 44 -4 62 -5 45 -1
33 -16 -31 -36 -28 -9 -62 -21 -74 -27 -12 -6 -91 -13 -175 -17 l-153 -6 220
-9 c121 -5 400 -9 620 -9 220 1 468 -3 550 -7 83 -5 272 -9 420 -10 149 -1
313 -6 365 -10 105 -10 350 -19 533 -21 65 0 116 -3 113 -6 -3 -3 -92 -5 -198
-5 -106 1 -209 -2 -228 -6 -19 -4 -82 -5 -140 -2 -58 3 -110 2 -116 -2 -6 -5
-26 -6 -45 -2 l-34 5 25 -15 c30 -18 32 -17 -52 -22 -39 -2 -69 0 -73 6 -4 6
-11 8 -16 4 -6 -3 -45 -5 -88 -5 -66 1 -82 -3 -102 -20 -21 -18 -24 -19 -27
-4 -3 13 -13 15 -60 11 -32 -2 -65 -7 -74 -11 -13 -5 -18 -2 -18 9 0 20 -19
20 -54 2 -31 -16 -213 -13 -230 4 -14 14 -27 13 -23 -3 1 -9 -32 -12 -140 -12
-138 0 -141 0 -125 19 16 18 16 18 -5 7 -12 -6 -32 -11 -45 -10 -23 1 -23 1 2
10 17 6 11 7 -20 2 -25 -4 -65 -6 -90 -5 -25 1 -52 -1 -60 -4 -24 -10 -50 -11
-50 -2 0 4 -8 8 -18 8 -10 0 -23 5 -30 12 -9 9 -12 9 -12 -1 0 -11 -17 -13
-73 -9 -40 3 -82 2 -92 -2 -13 -5 -27 -2 -37 8 -16 14 -18 13 -18 -1 0 -15 -2
-15 -18 1 -14 14 -32 17 -80 16 -39 0 -62 3 -62 10 0 6 -5 4 -10 -4 -8 -13
-13 -13 -30 -2 -54 33 -264 48 -773 53 -109 1 -200 5 -202 10 -3 4 -22 -1 -43
-11 -24 -12 -41 -15 -49 -9 -15 13 -161 21 -168 9 -4 -6 -1 -10 4 -10 6 0 11
-4 11 -9 0 -11 -52 -23 -116 -25 -27 -2 -55 -6 -61 -9 -6 -4 -13 -1 -16 5 -3
10 -7 10 -18 2 -20 -16 -57 -23 -63 -13 -2 5 -3 4 -2 -3 2 -7 15 -13 30 -13
14 1 25 -4 23 -9 -2 -6 -22 -9 -44 -8 -23 2 -44 -1 -48 -7 -4 -8 -12 -8 -25
-1 -32 17 -67 12 -73 -10 -5 -19 -27 -29 -27 -11 0 11 -151 6 -159 -6 -9 -13
-68 -15 -91 -3 -16 8 -18 8 -14 -5 5 -12 -2 -14 -42 -9 -27 3 -57 7 -66 9 -10
2 -18 0 -18 -3 0 -4 -21 -6 -47 -4 -27 2 -77 5 -112 7 -35 2 -70 6 -78 9 -8 3
-12 2 -9 -3 6 -10 -75 -8 -91 2 -7 5 -21 3 -31 -2 -14 -7 -24 -6 -38 4 -22 17
-38 19 -29 5 3 -5 -1 -10 -9 -10 -9 0 -16 4 -16 9 0 5 -51 7 -112 6 -62 -2
-121 1 -130 6 -11 6 -18 5 -21 -4 -3 -9 -13 -10 -46 -1 -23 6 -44 8 -47 3 -3
-5 -9 -7 -13 -5 -15 10 -121 14 -121 5 0 -5 -11 -7 -25 -3 -14 3 -25 2 -25 -4
0 -12 -42 -3 -51 11 -8 11 -159 15 -166 4 -2 -4 -9 -5 -14 -1 -13 7 -127 26
-159 26 -66 -1 -170 11 -170 19 0 5 10 9 23 9 21 1 21 2 4 14 -16 12 -15 14
15 19 42 6 56 -2 33 -20 -29 -20 -11 -16 42 12 l48 24 -50 1 c-46 1 -48 2 -25
13 14 6 28 15 31 20 11 15 88 26 93 13 3 -8 7 -8 13 0 7 10 122 26 163 24 86
-6 183 -3 191 6 5 6 22 9 39 6 17 -2 37 1 45 8 9 7 27 10 45 7 29 -6 51 7 27
16 -6 2 -70 5 -142 6 -404 7 -1224 31 -1250 37 l-30 8 25 6 c20 5 15 8 -27 14
-69 10 -83 27 -49 59 14 13 23 27 19 30 -6 7 28 11 54 8 7 -1 13 3 13 9 0 6
-29 10 -72 10 -85 1 -147 13 -159 32 -16 25 46 31 236 23 l186 -7 -3 -30 -3
-29 190 -6 c133 -4 198 -9 217 -19 15 -8 34 -14 43 -14 8 0 15 -6 15 -14 0
-18 32 -26 113 -26 64 0 89 12 47 23 -24 6 -37 34 -22 49 16 16 90 13 110 -4
21 -19 72 -32 72 -19 0 5 -9 13 -20 16 -38 12 -20 25 35 25 32 0 55 4 55 11 0
6 -13 8 -34 5 -29 -5 -37 -2 -51 20 -9 15 -13 30 -8 34 4 5 35 11 67 14 69 7
82 15 67 45 -9 15 -21 21 -47 21 -22 0 -33 4 -29 11 13 21 16 67 4 75 -8 5 -4
13 12 25 20 16 22 20 9 29 -13 9 -13 11 0 20 8 5 30 10 48 10 17 0 32 4 32 9
0 14 90 -38 91 -52z m6996 13 c3 0 11 8 18 17 11 15 13 13 20 -16 4 -20 3 -37
-4 -44 -8 -8 -11 -6 -11 6 0 9 -7 17 -15 17 -8 0 -15 -4 -15 -10 0 -5 -7 -10
-16 -10 -11 0 -15 -6 -12 -18 3 -12 -2 -24 -13 -31 -27 -16 -24 -31 6 -31 14
0 25 5 25 12 0 13 29 48 41 48 4 0 3 -16 -2 -35 -9 -30 -6 -45 15 -92 34 -72
33 -77 -9 -70 -29 5 -39 1 -60 -21 -28 -30 -36 -26 -55 35 -19 62 -50 86 -107
86 -27 -1 -52 3 -58 7 -5 4 -21 10 -35 13 -14 2 14 5 62 6 109 1 121 10 112
85 l-6 53 52 -5 c46 -4 52 -3 50 14 -4 31 3 41 7 12 2 -16 7 -28 10 -28z
m-8897 30 c0 -5 -2 -10 -4 -10 -3 0 -8 5 -11 10 -3 6 -1 10 4 10 6 0 11 -4 11
-10z m6110 -17 c-1 -24 -2 -26 -11 -10 -5 9 -7 22 -4 27 10 17 15 11 15 -17z
m84 -41 c-7 -37 -24 -43 -24 -9 0 21 19 51 27 43 2 -1 0 -17 -3 -34z m-2863
-3 c-5 -13 -10 -19 -10 -12 -1 15 10 45 15 40 3 -2 0 -15 -5 -28z m2329 5 l35
-13 -50 4 c-27 2 -69 7 -92 11 -27 4 -43 3 -43 -3 0 -6 11 -9 25 -8 14 2 25
-1 25 -6 0 -15 -38 -10 -71 10 -20 12 -26 21 -17 24 21 8 150 -5 188 -19z m91
9 c12 -15 12 -16 -6 -9 -11 5 -33 8 -50 8 -29 0 -29 0 -5 8 38 12 46 11 61 -7z
m169 -29 c-12 -22 -26 -47 -33 -57 -10 -15 -8 -22 16 -42 15 -13 27 -29 27
-35 0 -5 5 -10 10 -10 6 0 10 -6 9 -12 -4 -36 3 -56 21 -61 23 -6 27 -45 6
-53 -22 -9 -75 24 -82 50 -3 14 -12 27 -20 30 -8 3 -14 12 -14 21 0 8 -3 15
-8 15 -4 0 -13 13 -20 28 -12 28 -67 62 -99 62 -12 0 -13 3 -4 14 10 11 8 15
-6 19 -10 3 1 5 24 4 23 -1 45 2 49 6 4 4 18 -5 31 -19 12 -14 27 -23 32 -20
10 7 3 45 -12 64 -14 18 -2 25 21 11 16 -10 23 -8 41 10 31 31 36 21 11 -25z
m3145 36 c-3 -5 -13 -10 -21 -10 -8 0 -14 5 -14 10 0 6 9 10 21 10 11 0 17 -4
14 -10z m-2531 -12 c2 -2 15 -19 29 -39 32 -43 33 -49 8 -49 -19 0 -38 18 -56
54 -10 19 -19 21 -93 21 -79 0 -91 3 -75 19 7 7 182 1 187 -6z m396 -28 c0
-13 -1 -13 -10 0 -5 8 -10 22 -10 30 0 13 1 13 10 0 5 -8 10 -22 10 -30z
m1019 31 c12 -7 12 -13 3 -24 -7 -7 -8 -18 -4 -23 4 -4 -1 -2 -10 5 -10 7 -18
22 -18 32 0 21 8 23 29 10z m-4709 -12 c0 -8 5 -8 15 1 9 7 15 8 15 2 0 -15
-26 -22 -86 -22 -50 0 -64 7 -47 23 11 12 103 8 103 -4z m-2020 -6 c-1 -18
-19 -35 -29 -28 -9 5 -7 11 6 21 21 16 23 16 23 7z m-884 -28 c9 -8 26 -15 39
-15 13 0 27 -4 30 -10 3 -5 -1 -10 -9 -10 -15 0 -21 -14 -28 -65 -2 -15 -12
-21 -41 -23 -20 -2 -38 0 -38 5 -1 4 -3 18 -4 30 -3 31 -14 57 -22 50 -9 -10
-43 12 -43 28 0 14 35 15 57 2 6 -4 16 0 23 8 15 19 18 19 36 0z m5798 -17 c6
-4 19 -5 29 -2 22 7 22 -15 0 -23 -27 -11 -83 -65 -83 -80 0 -8 -4 -12 -8 -9
-5 3 -8 -8 -7 -24 1 -24 -2 -29 -29 -33 -37 -6 -43 -2 -28 16 7 8 9 17 5 20
-3 4 0 7 8 7 10 1 9 4 -4 11 -17 10 -17 12 1 43 17 28 17 32 3 32 -25 -1 -29
19 -5 22 12 2 24 12 27 24 3 11 10 17 15 14 6 -3 8 -15 5 -26 -3 -13 1 -22 11
-26 14 -5 14 -9 4 -22 -11 -13 -10 -14 2 -10 10 3 15 17 14 44 -2 37 17 67 25
41 2 -7 9 -15 15 -19z m-4814 12 c0 -5 -4 -10 -10 -10 -5 0 -10 5 -10 10 0 6
5 10 10 10 6 0 10 -4 10 -10z m1637 -5 c8 -22 -6 -33 -17 -15 -13 20 -12 30 0
30 6 0 13 -7 17 -15z m3283 -9 c0 -13 -7 -26 -15 -30 -11 -4 -15 2 -15 24 0
20 5 30 15 30 9 0 15 -9 15 -24z m-4873 -3 c3 -7 -3 -9 -16 -6 -12 3 -21 10
-21 15 0 13 32 6 37 -9z m4613 -1 c0 -14 -23 -32 -39 -31 -11 0 -12 2 -3 6 6
2 12 11 12 19 0 8 7 14 15 14 8 0 15 -4 15 -8z m3070 -5 c0 -7 -7 -22 -15 -33
-12 -16 -14 -17 -15 -2 0 23 11 48 21 48 5 0 9 -6 9 -13z m-7762 -8 c-4 -13
17 -26 55 -34 27 -5 38 -37 17 -50 -5 -3 -10 -17 -10 -29 0 -23 -11 -30 -73
-50 -18 -6 -67 12 -67 25 0 4 11 10 24 13 28 7 41 33 25 52 -9 11 -8 18 1 29
7 8 10 24 7 35 -3 13 0 20 9 20 8 0 13 -5 12 -11z m2695 4 c-7 -2 -19 -2 -25
0 -7 3 -2 5 12 5 14 0 19 -2 13 -5z m253 -6 c4 -4 -35 -6 -87 -5 -93 1 -93 2
-29 8 76 8 107 7 116 -3z m-941 -17 c-4 -6 -56 -10 -128 -9 -144 2 -115 16 36
18 63 1 96 -3 92 -9z m3385 -10 c0 -5 -2 -10 -4 -10 -3 0 -8 5 -11 10 -3 6 -1
10 4 10 6 0 11 -4 11 -10z m-3650 -10 c0 -5 -16 -10 -36 -10 -21 0 -33 4 -29
10 3 6 19 10 36 10 16 0 29 -4 29 -10z m1870 -11 c0 -5 -8 -9 -19 -9 -10 0
-33 -3 -50 -6 -26 -5 -31 -3 -31 12 0 17 7 19 50 16 27 -2 50 -8 50 -13z m724
6 c3 -9 0 -15 -9 -15 -8 0 -15 7 -15 15 0 8 4 15 9 15 5 0 11 -7 15 -15z
m-873 -18 c-13 -13 -26 -3 -16 12 3 6 11 8 17 5 6 -4 6 -10 -1 -17z m1957 -4
c2 -9 -7 -13 -27 -13 -29 0 -39 9 -26 22 10 10 48 3 53 -9z m-1150 -13 c3 -9
-1 -11 -11 -7 -9 3 -24 -1 -32 -10 -9 -8 -18 -13 -21 -10 -9 9 6 27 22 27 8 0
14 5 14 11 0 15 23 6 28 -11z m952 5 c0 -16 -44 -20 -87 -9 -41 11 -24 24 32
24 42 0 55 -3 55 -15z m60 5 c0 -5 -4 -10 -10 -10 -5 0 -10 5 -10 10 0 6 5 10
10 10 6 0 10 -4 10 -10z m430 -5 c0 -9 -9 -15 -21 -15 -18 0 -19 2 -9 15 7 8
16 15 21 15 5 0 9 -7 9 -15z m-479 -31 c-11 -15 -21 -24 -21 -20 0 12 33 57
37 52 3 -3 -4 -17 -16 -32z m420 16 c5 0 9 -4 9 -9 0 -12 -38 -2 -47 12 -4 7
0 8 11 4 10 -4 22 -7 27 -7z m-2753 -23 c6 -33 -56 -48 -189 -46 -65 0 -119 4
-119 8 0 4 6 19 13 34 l12 27 140 -2 c124 -3 140 -5 143 -21z m376 -3 c77 -4
73 -38 -6 -49 -42 -6 -54 -4 -64 9 -17 24 -6 59 15 50 9 -4 33 -9 55 -10z
m1029 9 c-7 -2 -21 -2 -30 0 -10 3 -4 5 12 5 17 0 24 -2 18 -5z m1934 -25 c-3
-7 -5 -2 -5 12 0 14 2 19 5 13 2 -7 2 -19 0 -25z m758 23 c-7 -12 -88 -25
-107 -18 -16 5 46 25 85 26 16 1 26 -3 22 -8z m-4727 -28 c3 -21 -1 -23 -40
-23 -24 0 -92 -2 -153 -5 -84 -3 -98 -2 -62 5 66 12 71 20 12 20 -83 0 -37 19
55 23 165 7 185 5 188 -20z m1190 -5 c3 -28 3 -28 -53 -28 -63 0 -69 12 -19
42 42 24 68 19 72 -14z m2870 13 c3 -8 0 -11 -5 -8 -6 4 -16 -4 -23 -18 -11
-20 -15 -22 -27 -10 -12 12 -11 17 4 35 20 22 44 23 51 1z m-3191 -27 c-9 -9
-28 6 -21 18 4 6 10 6 17 -1 6 -6 8 -13 4 -17z m1723 -4 c0 -5 -2 -10 -4 -10
-3 0 -8 5 -11 10 -3 6 -1 10 4 10 6 0 11 -4 11 -10z m45 0 c3 -5 1 -10 -4 -10
-6 0 -11 5 -11 10 0 6 2 10 4 10 3 0 8 -4 11 -10z m1455 -6 c0 -8 -4 -12 -10
-9 -5 3 -10 10 -10 16 0 5 5 9 10 9 6 0 10 -7 10 -16z m1325 -14 c3 -5 1 -10
-4 -10 -6 0 -11 5 -11 10 0 6 2 10 4 10 3 0 8 -4 11 -10z m75 2 c0 -5 -6 -17
-14 -28 -19 -25 -31 -12 -14 15 13 21 28 28 28 13z m-8913 -34 c-3 -8 -6 -5
-6 6 -1 11 2 17 5 13 3 -3 4 -12 1 -19z m4650 -10 c-3 -8 -6 -5 -6 6 -1 11 2
17 5 13 3 -3 4 -12 1 -19z m-1059 -15 c-10 -2 -28 -2 -40 0 -13 2 -5 4 17 4
22 1 32 -1 23 -4z m2246 -52 c18 -2 26 1 22 8 -4 6 -2 11 3 11 12 0 13 -6 15
-64 1 -31 -3 -40 -21 -49 -16 -7 -30 -7 -45 0 -19 8 -24 20 -26 63 -3 43 -1
52 10 44 7 -5 26 -11 42 -13z m1502 -17 c-3 -9 -6 -28 -6 -44 0 -21 -6 -29
-25 -34 -37 -9 -65 9 -65 42 0 38 14 50 62 50 31 1 38 -2 34 -14z m799 -9 c40
-14 40 -14 9 -15 -51 0 -124 12 -124 21 0 14 71 10 115 -6z m-8298 -1 c-3 -3
-12 -4 -19 -1 -8 3 -5 6 6 6 11 1 17 -2 13 -5z m5233 -44 c0 -5 -5 -10 -11
-10 -5 0 -7 5 -4 10 3 6 8 10 11 10 2 0 4 -4 4 -10z m3750 -32 c0 -7 -33 -7
-70 1 -3 1 1 5 8 10 16 10 62 2 62 -11z m-1347 -145 c-7 -2 -19 -2 -25 0 -7 3
-2 5 12 5 14 0 19 -2 13 -5z m-3943 -67 c0 -2 -11 -6 -25 -8 -14 -3 -25 -1
-25 3 0 5 11 9 25 9 14 0 25 -2 25 -4z m-896 -76 c36 -13 33 -31 -5 -28 -38 4
-60 -22 -43 -49 8 -12 22 -17 44 -15 22 2 30 -2 28 -10 -3 -7 -19 -14 -37 -16
-67 -7 -97 66 -45 107 31 24 26 24 58 11z m106 -51 c0 -45 2 -49 24 -49 14 0
28 -4 31 -10 4 -6 -12 -10 -39 -10 l-46 0 0 58 c0 32 3 62 6 65 15 14 24 -7
24 -54z m130 -10 c0 -46 -3 -59 -15 -59 -12 0 -15 13 -15 58 0 32 3 62 6 65
15 15 24 -8 24 -64z m142 31 c5 58 23 39 26 -27 4 -75 -7 -80 -55 -25 l-33 37
0 -37 c0 -46 -20 -51 -21 -5 -3 97 6 110 47 62 l32 -39 4 34z m118 -31 c0 -46
-3 -59 -15 -59 -12 0 -15 13 -15 58 0 32 3 62 6 65 15 15 24 -8 24 -64z m158
42 c3 -9 -5 -12 -28 -9 -23 2 -36 -2 -44 -14 -17 -28 5 -54 44 -50 22 2 30 -2
28 -10 -3 -7 -21 -14 -40 -16 -28 -2 -40 2 -52 20 -22 31 -20 55 8 83 19 19
30 22 52 16 15 -4 30 -13 32 -20z m282 -42 c0 -46 -3 -59 -15 -59 -11 0 -15
11 -15 38 l0 37 -16 -32 c-9 -18 -21 -33 -25 -33 -5 0 -18 15 -29 33 l-20 32
0 -37 c0 -21 -4 -38 -10 -38 -5 0 -10 23 -10 50 0 28 0 53 0 58 -1 4 8 8 19
10 15 2 24 -5 34 -29 l13 -33 22 37 c32 54 52 41 52 -34z m-3832 52 c8 -4 13
-17 11 -27 -1 -11 1 -27 6 -37 11 -26 -12 -47 -51 -47 l-34 0 0 60 c0 59 1 60
28 60 15 0 33 -4 40 -9z m162 -1 c0 -5 -13 -10 -30 -10 -20 0 -30 -5 -30 -15
0 -9 9 -15 25 -15 14 0 25 -4 25 -10 0 -5 -11 -10 -25 -10 -16 0 -25 -6 -25
-15 0 -10 10 -15 30 -15 17 0 30 -4 30 -10 0 -5 -18 -10 -40 -10 l-40 0 0 60
0 60 40 0 c22 0 40 -4 40 -10z m113 -88 c42 -5 32 -22 -13 -22 l-40 0 0 53 c0
69 14 83 20 20 5 -44 8 -48 33 -51z m97 48 c0 -49 1 -50 30 -50 17 0 30 -4 30
-10 0 -5 -18 -10 -40 -10 l-40 0 0 60 c0 33 4 60 10 60 6 0 10 -22 10 -50z
m204 34 c20 -20 20 -68 0 -88 -35 -36 -104 -7 -104 42 0 53 68 83 104 46z
m246 -4 c43 -43 11 -100 -57 -100 l-33 0 0 60 0 60 35 0 c22 0 43 -8 55 -20z
m160 10 c0 -5 -13 -10 -30 -10 -20 0 -30 -5 -30 -15 0 -9 9 -15 25 -15 14 0
25 -4 25 -10 0 -5 -11 -10 -25 -10 -16 0 -25 -6 -25 -15 0 -10 10 -15 30 -15
17 0 30 -4 30 -10 0 -5 -18 -10 -40 -10 l-40 0 0 60 0 60 40 0 c22 0 40 -4 40
-10z m132 -5 c-2 -5 -14 -9 -27 -7 -35 5 -31 -17 6 -30 25 -8 30 -15 27 -37
-3 -22 -8 -26 -37 -26 -19 0 -36 6 -38 12 -3 9 4 11 26 7 41 -8 42 13 1 27
-21 8 -30 17 -30 33 0 13 3 26 7 30 11 10 68 3 65 -9z m147 -34 c26 -62 27
-80 3 -58 -24 22 -58 22 -71 0 -19 -35 -24 -2 -6 39 36 83 45 86 74 19z m101
-11 c0 -33 -4 -60 -10 -60 -6 0 -10 27 -10 60 0 33 4 60 10 60 6 0 10 -27 10
-60z m111 25 c30 -44 39 -44 39 0 0 19 5 35 10 35 6 0 10 -27 10 -60 0 -71
-13 -77 -50 -23 l-25 37 -5 -33 c-7 -47 -25 -43 -28 8 -6 79 12 91 49 36z
m279 20 c-3 -5 -15 -9 -27 -7 -34 4 -28 -17 8 -30 25 -8 30 -15 27 -37 -3 -28
-24 -37 -65 -26 -30 7 -22 20 13 20 30 0 36 19 6 23 -26 4 -45 33 -36 57 5 12
17 15 43 13 20 -2 34 -7 31 -13z m150 5 c0 -5 -7 -10 -14 -10 -11 0 -16 -14
-18 -47 -4 -66 -28 -70 -28 -4 0 39 -4 51 -15 51 -8 0 -15 5 -15 10 0 6 20 10
45 10 25 0 45 -4 45 -10z m82 -37 c3 -40 6 -48 23 -48 17 0 20 8 23 48 2 34 7
47 18 47 12 0 14 -9 10 -46 -3 -26 -11 -53 -17 -60 -15 -19 -54 -18 -73 2 -21
21 -22 104 -2 104 11 0 16 -14 18 -47z m223 33 c11 -8 18 -26 18 -46 0 -40
-24 -60 -70 -60 l-33 0 0 60 0 60 33 0 c18 0 42 -6 52 -14z m99 -4 c-1 -7 -2
-32 -2 -57 -3 -68 -22 -54 -22 16 0 44 3 60 13 57 6 -3 12 -10 11 -16z m161 4
c11 -8 18 -26 18 -46 0 -37 -23 -60 -62 -60 -53 0 -80 62 -44 102 19 21 62 24
88 4z m1503 -5 c3 -10 -3 -12 -27 -6 -40 9 -41 -10 0 -24 25 -9 30 -15 27 -38
-3 -25 -7 -28 -42 -28 -24 0 -41 5 -44 14 -3 10 3 12 27 6 37 -8 43 11 7 25
-31 11 -39 25 -31 51 5 16 14 20 43 17 19 -2 37 -9 40 -17z m232 4 c-3 -5 -16
-10 -29 -10 -31 0 -50 -29 -35 -52 17 -27 44 -28 51 -4 8 31 25 26 21 -6 -2
-24 -8 -29 -36 -31 -42 -4 -72 21 -72 59 0 40 25 61 69 57 20 -2 34 -7 31 -13z
m90 -35 c0 -49 1 -50 30 -50 17 0 30 -4 30 -10 0 -5 -18 -10 -39 -10 l-39 0
-4 56 c-1 31 -1 58 1 60 14 14 21 -2 21 -46z m204 34 c9 -8 16 -28 16 -44 0
-16 -7 -36 -16 -44 -19 -20 -78 -21 -93 -2 -19 23 -17 77 4 92 25 19 70 18 89
-2z m101 -25 l12 -34 12 38 c15 46 27 47 45 5 l14 -33 13 33 c15 37 45 46 33
10 -23 -73 -33 -93 -47 -96 -10 -2 -18 8 -22 30 l-8 33 -15 -32 c-9 -18 -21
-33 -27 -33 -11 0 -45 86 -45 112 0 22 24 -1 35 -33z m359 25 c9 -8 16 -27 16
-41 0 -39 -27 -63 -72 -63 l-38 0 0 60 0 60 39 0 c23 0 46 -7 55 -16z m156 7
c0 -5 -12 -11 -27 -13 -39 -4 -42 -28 -4 -28 38 0 41 -17 4 -22 -39 -4 -42
-28 -4 -28 17 0 31 -5 31 -11 0 -6 -17 -9 -42 -7 -43 3 -43 3 -46 47 -2 24 -1
50 2 57 6 16 86 20 86 5z m111 -26 c30 -43 41 -44 37 -3 -2 19 2 33 10 35 9 4
12 -12 12 -56 0 -72 -10 -77 -57 -24 l-33 37 0 -37 c0 -20 -4 -37 -10 -37 -6
0 -10 27 -10 60 0 71 15 78 51 25z m207 23 c29 -29 7 -78 -35 -78 -14 0 -23
-6 -23 -15 0 -8 -7 -15 -15 -15 -12 0 -15 13 -15 60 l0 60 38 0 c21 0 43 -5
50 -12z m147 -44 c29 -67 29 -64 10 -64 -8 0 -15 5 -15 10 0 6 -13 10 -29 10
-17 0 -33 -4 -36 -10 -9 -15 -25 -12 -25 5 0 25 43 105 57 105 7 0 24 -25 38
-56z m145 41 c-3 -5 -15 -9 -27 -7 -34 4 -28 -17 8 -30 25 -8 30 -15 27 -37
-3 -23 -7 -26 -42 -26 -24 0 -41 5 -44 14 -3 10 3 12 27 6 34 -7 44 9 12 20
-29 9 -43 31 -36 55 5 17 13 21 43 18 21 -2 35 -7 32 -13z m153 -45 c19 -45
22 -60 12 -60 -8 0 -17 5 -20 10 -3 6 -19 10 -36 10 -16 0 -29 -4 -29 -10 0
-5 -7 -10 -16 -10 -11 0 -14 6 -8 23 14 45 45 97 58 97 7 0 24 -27 39 -60z
m161 38 c8 -13 7 -23 -2 -39 -10 -15 -11 -24 -3 -32 31 -31 -3 -36 -36 -5
l-23 21 0 -21 c0 -13 -6 -22 -15 -22 -12 0 -15 13 -15 61 l0 60 41 -3 c27 -2
46 -9 53 -20z m-3354 -48 c0 -5 -13 -10 -30 -10 -16 0 -30 5 -30 10 0 6 14 10
30 10 17 0 30 -4 30 -10z"/>
<path d="M5328 3603 c5 -137 9 -151 10 -35 1 61 -1 112 -5 112 -5 0 -7 -35 -5
-77z"/>
<path d="M2668 2790 c-43 -3 -81 -10 -85 -14 -8 -8 158 2 166 10 9 8 -7 9 -81
4z"/>
<path d="M6890 2979 c0 -5 5 -7 10 -4 6 3 10 8 10 11 0 2 -4 4 -10 4 -5 0 -10
-5 -10 -11z"/>
<path d="M6890 2879 c0 -52 4 -78 10 -74 13 8 11 155 -1 155 -5 0 -9 -36 -9
-81z"/>
<path d="M5621 2728 c1 -62 4 -85 9 -68 12 37 12 160 0 160 -6 0 -10 -37 -9
-92z"/>
<path d="M5047 2723 c-3 -15 -1 -36 3 -47 7 -16 9 -9 9 27 1 52 -4 61 -12 20z"/>
<path d="M9331 2744 c0 -11 3 -14 6 -6 3 7 2 16 -1 19 -3 4 -6 -2 -5 -13z"/>
<path d="M9420 2605 c0 -8 2 -15 4 -15 2 0 6 7 10 15 3 8 1 15 -4 15 -6 0 -10
-7 -10 -15z"/>
<path d="M9545 2300 c3 -5 8 -10 11 -10 2 0 4 5 4 10 0 6 -5 10 -11 10 -5 0
-7 -4 -4 -10z"/>
<path d="M9385 2280 c3 -5 8 -10 11 -10 2 0 4 5 4 10 0 6 -5 10 -11 10 -5 0
-7 -4 -4 -10z"/>
<path d="M9595 2260 c-3 -5 -1 -10 4 -10 6 0 11 5 11 10 0 6 -2 10 -4 10 -3 0
-8 -4 -11 -10z"/>
<path d="M9500 2232 c0 -13 31 -31 44 -26 29 11 18 35 -14 32 -16 -1 -30 -4
-30 -6z m40 -12 c0 -5 -2 -10 -4 -10 -3 0 -8 5 -11 10 -3 6 -1 10 4 10 6 0 11
-4 11 -10z"/>
<path d="M9850 1710 c-10 -6 -11 -10 -3 -10 9 0 7 -7 -5 -20 -9 -11 -19 -30
-22 -43 -3 -12 -10 -22 -15 -23 -6 0 -18 -4 -28 -9 -37 -16 16 -25 95 -16 4 1
9 10 13 20 13 43 14 65 2 79 -6 8 -11 18 -9 21 6 10 -13 11 -28 1z"/>
<path d="M9210 2781 c0 -5 7 -12 16 -15 14 -5 15 -4 4 9 -14 17 -20 19 -20 6z"/>
<path d="M7780 2660 c0 -8 5 -22 10 -30 9 -13 10 -13 10 0 0 8 -5 22 -10 30
-9 13 -10 13 -10 0z"/>
<path d="M6606 2582 c-2 -4 -1 -14 5 -22 7 -12 9 -10 9 8 0 23 -5 28 -14 14z"/>
<path d="M6334 2489 l-19 -22 22 12 c13 6 35 8 49 5 20 -5 26 -3 22 7 -8 23
-52 22 -74 -2z"/>
<path d="M6027 2386 c-7 -19 11 -32 24 -19 6 6 5 14 -4 22 -12 9 -16 8 -20 -3z"/>
<path d="M2311 2377 c-5 -12 -8 -46 -6 -75 1 -28 -2 -52 -6 -52 -5 0 -9 -5 -9
-11 0 -5 4 -8 9 -5 5 4 12 0 14 -6 12 -30 26 21 26 94 0 77 -11 99 -28 55z"/>
<path d="M6313 2253 c9 -2 25 -2 35 0 9 3 1 5 -18 5 -19 0 -27 -2 -17 -5z"/>
<path d="M6348 2173 c6 -2 18 -2 25 0 6 3 1 5 -13 5 -14 0 -19 -2 -12 -5z"/>
<path d="M3460 1259 c0 -5 5 -7 10 -4 6 3 10 8 10 11 0 2 -4 4 -10 4 -5 0 -10
-5 -10 -11z"/>
<path d="M2975 1190 c-3 -5 -1 -10 4 -10 6 0 11 5 11 10 0 6 -2 10 -4 10 -3 0
-8 -4 -11 -10z"/>
<path d="M2968 1146 c-3 -15 -1 -29 3 -32 14 -8 22 23 11 42 -8 14 -10 13 -14
-10z"/>
<path d="M3034 1076 c-5 -13 -13 -16 -30 -12 -30 8 -30 -1 1 -39 26 -32 35
-30 38 6 0 13 6 27 11 31 7 5 7 11 -1 19 -10 10 -14 9 -19 -5z"/>
<path d="M4115 1376 c-19 -29 -35 -34 -35 -11 0 19 -16 20 -23 1 -5 -13 17
-54 37 -68 19 -13 35 5 42 48 8 55 1 64 -21 30z"/>
<path d="M3975 1380 c-3 -5 1 -10 9 -10 9 0 16 5 16 10 0 6 -4 10 -9 10 -6 0
-13 -4 -16 -10z"/>
<path d="M4170 1380 c0 -5 11 -10 25 -10 14 0 25 5 25 10 0 6 -11 10 -25 10
-14 0 -25 -4 -25 -10z"/>
<path d="M5368 1233 c7 -3 16 -2 19 1 4 3 -2 6 -13 5 -11 0 -14 -3 -6 -6z"/>
<path d="M2393 965 c-11 -8 -23 -11 -27 -7 -4 3 -11 0 -16 -8 -11 -16 -13 -37
-4 -28 3 4 17 0 32 -8 16 -8 30 -10 35 -5 5 5 16 7 23 4 21 -8 17 31 -4 50
-16 15 -21 15 -39 2z"/>
<path d="M2370 843 c-39 -7 -48 -23 -13 -23 17 0 42 -9 56 -20 14 -11 31 -20
39 -20 7 0 19 -9 26 -21 10 -16 16 -18 27 -9 8 6 19 9 25 5 5 -3 10 -2 10 4 0
5 -10 13 -22 16 -48 14 -88 37 -98 55 -6 11 -14 19 -18 19 -4 -1 -18 -4 -32
-6z"/>
<path d="M2350 799 c0 -7 -10 -9 -25 -7 -21 4 -23 3 -13 -9 15 -19 62 -13 66
10 2 10 -3 17 -12 17 -9 0 -16 -5 -16 -11z"/>
<path d="M1488 773 c7 -3 16 -2 19 1 4 3 -2 6 -13 5 -11 0 -14 -3 -6 -6z"/>
<path d="M2260 744 c0 -9 6 -14 13 -11 6 2 21 0 32 -6 20 -10 20 -10 1 12 -22
25 -46 28 -46 5z"/>
<path d="M4205 581 c-13 -6 14 -11 80 -16 55 -4 118 -11 141 -16 40 -8 93 -1
94 14 0 4 0 12 0 17 0 12 -285 13 -315 1z"/>
<path d="M4610 560 c36 -11 50 -11 50 0 0 6 -17 10 -37 9 -34 -1 -35 -2 -13
-9z"/>
<path d="M4738 563 c12 -2 32 -2 45 0 12 2 2 4 -23 4 -25 0 -35 -2 -22 -4z"/>
<path d="M4973 563 c15 -2 37 -2 50 0 12 2 0 4 -28 4 -27 0 -38 -2 -22 -4z"/>
<path d="M6448 433 c7 -3 16 -2 19 1 4 3 -2 6 -13 5 -11 0 -14 -3 -6 -6z"/>
<path d="M360 295 c0 -8 9 -15 20 -15 11 0 20 7 20 15 0 8 -9 15 -20 15 -11 0
-20 -7 -20 -15z"/>
<path d="M360 245 c0 -11 7 -15 23 -13 12 2 22 8 22 13 0 6 -10 11 -22 13 -16
2 -23 -2 -23 -13z"/>
<path d="M910 295 c-26 -32 13 -81 48 -59 22 14 27 41 12 59 -16 19 -44 19
-60 0z"/>
<path d="M1167 303 c-14 -13 -7 -64 9 -70 20 -7 48 8 52 29 6 29 -42 61 -61
41z"/>
<path d="M1626 275 c-3 -9 0 -15 9 -15 16 0 20 16 6 24 -5 3 -11 -1 -15 -9z"/>
<path d="M2550 270 c0 -37 2 -41 21 -38 30 4 47 33 33 56 -6 9 -21 18 -33 20
-19 3 -21 -1 -21 -38z"/>
<path d="M2800 290 c-8 -14 -8 -26 0 -40 18 -33 70 -23 70 14 0 45 -50 63 -70
26z"/>
<path d="M4830 290 c-14 -26 3 -60 31 -60 24 0 41 38 27 63 -12 23 -45 22 -58
-3z"/>
<path d="M5297 303 c-10 -17 -4 -65 9 -70 19 -7 44 15 44 38 0 24 -43 49 -53
32z"/>
<path d="M5780 291 c0 -11 4 -22 8 -25 14 -9 35 12 29 28 -9 23 -37 20 -37 -3z"/>
<path d="M5936 275 c-3 -9 0 -15 9 -15 16 0 20 16 6 24 -5 3 -11 -1 -15 -9z"/>
<path d="M6236 281 c-4 -7 -5 -15 -2 -18 9 -9 19 4 14 18 -4 11 -6 11 -12 0z"/>
<path d="M6380 290 c0 -13 7 -20 20 -20 24 0 27 25 4 34 -23 9 -24 8 -24 -14z"/>
<path d="M7560 5680 c-36 -9 -78 -23 -95 -31 l-30 -13 45 -4 c24 -2 39 -6 33
-10 -6 -4 11 -7 39 -7 44 0 51 3 65 28 25 49 16 56 -57 37z"/>
<path d="M7281 5615 c-58 -14 -120 -26 -138 -27 -19 -1 -37 -6 -39 -10 -3 -4
-16 -8 -30 -8 -13 0 -24 -5 -24 -11 0 -5 -5 -7 -10 -4 -6 4 -45 -1 -88 -9 -42
-9 -111 -22 -152 -30 -127 -24 -235 -50 -238 -57 -2 -4 -11 -5 -20 -3 -9 3
-42 -2 -72 -11 -30 -8 -99 -24 -154 -35 -54 -11 -101 -22 -105 -24 -3 -2 -23
-7 -43 -10 -20 -3 -79 -15 -130 -27 -51 -11 -124 -26 -163 -34 -100 -18 -300
-59 -440 -90 -66 -14 -205 -43 -310 -65 -104 -21 -212 -44 -240 -50 -27 -6
-178 -38 -335 -70 -328 -67 -567 -118 -760 -161 -74 -17 -162 -36 -195 -43
-141 -31 -216 -104 -243 -241 -7 -33 -7 -55 0 -68 5 -10 7 -24 5 -31 -3 -6 1
-20 9 -31 8 -10 14 -28 14 -40 0 -12 4 -25 10 -31 5 -5 12 -32 16 -59 3 -28 8
-57 11 -65 4 -8 8 -31 10 -50 1 -19 7 -71 12 -115 10 -78 10 -77 5 30 -3 61
-10 142 -15 180 -13 92 -11 152 7 222 36 139 134 238 262 263 353 70 1079 221
1182 246 36 9 151 33 255 55 259 53 501 103 615 129 52 11 131 27 175 35 44 9
113 24 153 35 40 11 78 17 84 14 7 -5 8 -2 3 6 -6 10 -4 12 9 7 9 -4 42 0 74
9 31 8 73 17 92 19 19 3 44 7 55 9 11 3 175 37 365 76 456 95 452 94 447 100
-3 3 15 6 39 6 50 2 66 10 44 25 -11 7 -8 8 11 4 17 -4 40 1 65 14 21 12 32
21 24 21 -10 0 -8 4 6 15 26 20 10 19 -115 -10z m42 -12 c-7 -2 -21 -2 -30 0
-10 3 -4 5 12 5 17 0 24 -2 18 -5z m14 -19 c-3 -3 -12 -4 -19 -1 -8 3 -5 6 6
6 11 1 17 -2 13 -5z"/>
<path d="M8254 5560 c3 -36 8 -111 12 -167 l7 -102 104 -138 c57 -76 112 -147
122 -158 29 -33 53 -94 78 -198 29 -126 39 -214 54 -519 7 -137 17 -248 21
-248 5 0 8 35 7 78 -1 42 6 118 14 167 9 50 19 116 23 148 3 31 10 57 15 57 4
0 11 31 15 70 3 38 10 68 14 65 19 -11 33 47 27 110 -7 69 -39 198 -60 237
-15 30 -70 102 -79 106 -5 2 -8 10 -8 18 0 21 -18 17 -25 -6 -3 -11 -11 -20
-16 -20 -5 0 -2 11 7 25 16 25 11 51 -8 39 -7 -4 -8 -2 -4 4 4 6 -17 45 -46
87 -29 41 -94 137 -145 213 -51 75 -102 151 -114 167 l-21 30 6 -65z m342
-545 c7 -30 8 -30 -30 -39 -25 -6 -28 -5 -18 7 7 8 9 17 5 20 -3 4 -1 7 6 7 8
0 11 7 7 15 -3 9 0 15 9 15 8 0 17 -11 21 -25z m-56 -5 c0 -5 -5 -10 -11 -10
-5 0 -7 5 -4 10 3 6 8 10 11 10 2 0 4 -4 4 -10z"/>
<path d="M7398 5583 c7 -3 16 -2 19 1 4 3 -2 6 -13 5 -11 0 -14 -3 -6 -6z"/>
<path d="M7517 5544 c-6 -6 -75 -23 -117 -29 -14 -2 -59 -11 -100 -20 -41 -9
-100 -20 -130 -25 -30 -6 -86 -17 -125 -25 -101 -23 -110 -24 -220 -46 -197
-38 -468 -103 -460 -111 3 -3 -9 -5 -27 -3 -18 1 -48 -6 -67 -16 -20 -11 -44
-16 -61 -13 -14 3 -55 -1 -91 -10 -35 -9 -95 -20 -134 -26 -79 -12 -183 -33
-300 -62 -44 -11 -87 -20 -95 -20 -8 1 -44 -6 -80 -13 -36 -8 -115 -24 -176
-35 -142 -27 -136 -26 -154 -32 -12 -5 -370 -78 -530 -108 -25 -5 -88 -18
-140 -30 -52 -11 -106 -23 -120 -25 -28 -4 -178 -35 -315 -64 -49 -11 -148
-32 -220 -46 -71 -15 -154 -34 -183 -42 -57 -15 -118 -62 -142 -110 -8 -15
-18 -30 -22 -34 -10 -7 -28 -102 -28 -145 0 -42 16 -44 25 -4 7 30 69 121 87
129 5 1 17 11 26 21 34 36 180 95 297 120 22 5 76 18 120 30 44 12 103 26 130
31 70 14 78 15 95 22 8 3 53 13 100 21 47 8 119 22 160 31 41 8 92 15 113 15
20 0 37 5 37 11 0 6 7 9 15 5 8 -3 27 -1 40 4 14 5 40 10 58 11 18 1 66 10
107 20 41 10 118 25 170 34 52 9 115 21 140 26 25 6 63 14 85 18 39 8 71 16
165 42 25 7 48 12 52 11 3 -1 50 10 105 25 54 14 107 27 118 29 83 15 131 27
205 50 47 15 92 30 101 34 9 5 42 11 73 15 38 5 53 10 45 16 -9 5 7 9 43 9 31
0 83 7 115 16 53 15 241 41 352 49 24 1 46 7 50 12 3 6 13 10 21 11 8 0 31 3
50 6 19 2 73 10 120 16 47 7 88 17 92 24 4 6 8 8 8 4 0 -4 21 -1 48 7 26 8 64
15 85 17 20 1 37 6 37 11 0 5 9 7 20 4 10 -3 20 -1 22 5 2 5 20 10 39 11 22 1
35 6 32 13 -3 7 5 10 21 7 15 -3 32 0 40 6 11 9 15 9 19 -1 4 -10 6 -10 6 0 1
6 8 12 17 12 25 0 158 42 165 52 3 6 10 9 15 8 5 0 10 6 12 14 3 12 -5 16 -26
16 -16 0 -31 -3 -35 -6z m-1714 -411 c-7 -2 -19 -2 -25 0 -7 3 -2 5 12 5 14 0
19 -2 13 -5z"/>
<path d="M8288 5123 c4 -45 39 -107 94 -167 10 -11 18 -24 18 -29 0 -6 11 -24
23 -41 13 -17 30 -52 37 -78 8 -26 17 -45 20 -43 4 2 7 -16 7 -41 0 -47 26
-84 59 -84 14 0 16 8 11 58 -5 56 -35 160 -58 204 -7 13 -26 40 -43 60 -17 20
-60 75 -96 122 -36 47 -68 85 -71 86 -4 0 -4 -21 -1 -47z"/>
<path d="M8755 5150 c3 -5 8 -10 11 -10 2 0 4 5 4 10 0 6 -5 10 -11 10 -5 0
-7 -4 -4 -10z"/>
<path d="M4937 4763 c-3 -4 -12 -52 -22 -106 -19 -117 -23 -127 -42 -127 -22
0 -10 -24 13 -28 11 -2 27 5 36 15 18 21 61 191 56 224 -3 23 -31 38 -41 22z"/>
<path d="M4837 4744 c-4 -4 19 -125 30 -154 4 -11 8 -8 13 10 12 37 11 99 0
119 -10 19 -34 33 -43 25z"/>
<path d="M4720 4712 c0 -30 22 -136 31 -146 10 -11 23 96 14 123 -3 12 -15 26
-26 31 -16 9 -19 7 -19 -8z"/>
<path d="M4807 4680 c-4 -14 -13 -56 -21 -94 -9 -42 -21 -73 -30 -78 -20 -11
-12 -28 13 -28 47 0 73 74 57 161 -10 52 -14 59 -19 39z"/>
<path d="M4645 4668 c27 -84 -2 -174 -62 -193 -50 -16 -50 -25 -2 -25 36 0 51
5 71 28 52 53 64 139 27 186 -25 32 -44 34 -34 4z"/>
<path d="M4536 4651 c-26 -29 -32 -95 -12 -126 20 -30 40 -23 32 10 -9 35 12
84 40 91 27 7 30 14 12 32 -18 18 -53 14 -72 -7z"/>
<path d="M4390 4565 c0 -91 6 -109 27 -82 12 14 11 146 -1 165 -18 30 -26 6
-26 -83z"/>
<path d="M4304 4626 c-4 -9 -18 -16 -34 -16 -44 0 -71 -29 -77 -83 -4 -30 -1
-52 7 -62 22 -26 36 -18 32 19 -6 48 11 72 60 88 34 12 43 19 43 38 0 27 -22
39 -31 16z"/>
<path d="M4030 4576 c0 -11 -9 -16 -30 -16 -34 0 -49 -23 -33 -49 13 -20 43
-27 43 -9 0 7 14 19 31 27 22 10 29 19 27 34 -4 25 -38 37 -38 13z"/>
<path d="M3889 4563 c0 -5 0 -54 1 -110 1 -66 -3 -103 -9 -103 -6 0 -11 -7
-11 -15 0 -17 14 -19 40 -5 15 8 18 24 19 111 1 63 -3 107 -10 115 -12 15 -29
19 -30 7z"/>
<path d="M4310 4492 c0 -53 -2 -60 -25 -70 -14 -7 -35 -12 -45 -12 -11 0 -20
-4 -20 -10 0 -15 67 -12 100 5 28 15 30 19 30 74 0 55 -8 71 -36 71 -2 0 -4
-26 -4 -58z"/>
<path d="M3740 4538 c1 -10 47 -149 52 -154 3 -3 9 12 13 34 7 46 -19 115 -48
120 -9 2 -17 2 -17 0z"/>
<path d="M3842 4480 c-33 -112 -41 -136 -47 -153 -7 -16 -4 -18 16 -15 36 5
50 46 47 135 l-3 78 -13 -45z"/>
<path d="M4257 4504 c-8 -8 1 -24 14 -24 5 0 9 7 9 15 0 15 -12 20 -23 9z"/>
<path d="M3720 4413 c0 -64 -4 -93 -12 -96 -22 -8 8 -30 30 -23 30 10 36 54
17 127 -25 97 -35 95 -35 -8z"/>
<path d="M4028 4480 c6 -8 12 -29 12 -46 0 -37 -38 -74 -76 -74 -13 0 -24 -4
-24 -10 0 -5 19 -10 43 -10 58 0 90 32 85 85 -2 27 -10 42 -28 53 -18 11 -21
12 -12 2z"/>
<path d="M4460 4466 c0 -9 -16 -17 -42 -21 -53 -9 -64 -15 -47 -26 19 -11 90
0 111 18 9 8 14 21 11 29 -7 18 -33 18 -33 0z"/>
<path d="M3975 4440 c3 -5 10 -10 16 -10 5 0 9 5 9 10 0 6 -7 10 -16 10 -8 0
-12 -4 -9 -10z"/>
<path d="M4619 4363 c-1 -30 -4 -38 -6 -20 -2 15 -8 25 -13 22 -5 -3 -7 -12
-4 -19 3 -8 1 -17 -5 -21 -7 -4 -11 4 -11 21 0 33 -16 21 -23 -16 -3 -17 -5
-11 -6 16 -1 37 -4 42 -26 42 -23 0 -25 -4 -25 -47 0 -25 -4 -41 -8 -34 -6 9
-11 7 -20 -7 -17 -27 -15 -27 197 15 31 6 39 14 21 25 -11 7 -11 11 -1 23 14
18 1 30 -23 21 -19 -7 -21 -40 -3 -47 7 -3 5 -6 -5 -6 -14 -1 -18 7 -18 39 0
57 -20 50 -21 -7z m-92 -40 c-3 -10 -5 -2 -5 17 0 19 2 27 5 18 2 -10 2 -26 0
-35z"/>
<path d="M4895 4399 c-126 -23 -157 -31 -148 -40 12 -12 215 23 221 39 4 13
-2 14 -73 1z"/>
<path d="M4464 4370 c-23 -9 -38 -46 -23 -56 11 -6 48 35 49 54 0 6 -1 12 -2
11 -2 0 -13 -4 -24 -9z"/>
<path d="M4318 4313 c-1 -37 -1 -37 -5 -5 -5 39 -23 43 -23 5 0 -22 -2 -25
-10 -13 -9 13 -11 13 -20 0 -6 -10 -10 -11 -10 -2 0 6 -5 12 -11 12 -7 0 -10
-12 -7 -29 2 -17 1 -28 -4 -25 -4 3 -8 14 -8 25 0 10 -4 19 -10 19 -5 0 -10
-12 -10 -27 0 -36 -9 -25 -12 16 -4 49 -18 48 -20 -1 -1 -37 -2 -38 -5 -10 -6
44 -30 42 -28 -3 0 -19 -3 -35 -7 -35 -4 0 -8 11 -8 25 0 26 -6 30 -29 16 -9
-6 -10 -11 -2 -15 14 -9 15 -36 1 -36 -5 0 -9 3 -8 8 4 19 -15 39 -33 35 -21
-6 -26 -39 -6 -46 7 -3 5 -6 -5 -6 -11 -1 -18 6 -18 17 0 10 -7 27 -15 38 -15
19 -15 19 -30 -1 -9 -11 -13 -25 -11 -32 3 -7 1 -15 -4 -18 -6 -4 -10 -13 -10
-21 0 -19 29 -18 37 2 4 11 8 12 13 4 6 -10 50 -6 150 15 14 3 47 8 74 12 36
4 50 11 54 25 4 16 6 17 16 3 9 -13 17 -14 39 -6 15 6 33 8 41 5 11 -4 14 3
13 31 -1 26 -5 35 -16 33 -23 -5 -26 -35 -4 -41 14 -4 13 -5 -4 -6 -20 -1 -23
4 -23 34 0 47 -20 45 -22 -2z"/>
<path d="M2208 4273 c7 -3 16 -2 19 1 4 3 -2 6 -13 5 -11 0 -14 -3 -6 -6z"/>
<path d="M8981 4254 c0 -11 3 -14 6 -6 3 7 2 16 -1 19 -3 4 -6 -2 -5 -13z"/>
<path d="M3806 4211 c-49 -9 -91 -22 -94 -29 -5 -15 -1 -15 74 -1 90 16 134
29 134 39 0 12 -1 12 -114 -9z"/>
<path d="M3452 3980 c0 -14 2 -19 5 -12 2 6 2 18 0 25 -3 6 -5 1 -5 -13z"/>
<path d="M8651 3841 c1 -96 5 -161 11 -161 5 0 6 -10 3 -21 -5 -13 -3 -19 3
-15 5 3 9 27 7 53 -2 27 1 73 6 103 6 40 5 56 -4 63 -9 7 -9 10 1 14 14 6 16
33 2 33 -5 0 -10 18 -10 39 0 22 -5 43 -10 46 -7 4 -10 -49 -9 -154z"/>
<path d="M3472 3780 c0 -14 2 -19 5 -12 2 6 2 18 0 25 -3 6 -5 1 -5 -13z"/>
<path d="M3471 3734 c0 -11 3 -14 6 -6 3 7 2 16 -1 19 -3 4 -6 -2 -5 -13z"/>
<path d="M3483 3650 c0 -30 2 -43 4 -27 2 15 2 39 0 55 -2 15 -4 2 -4 -28z"/>
<path d="M8686 3635 c-3 -9 -6 -22 -5 -28 0 -7 5 -1 10 12 5 13 8 26 5 28 -2
2 -6 -3 -10 -12z"/>
<path d="M3491 3504 c0 -11 3 -14 6 -6 3 7 2 16 -1 19 -3 4 -6 -2 -5 -13z"/>
<path d="M3502 3420 c0 -14 2 -19 5 -12 2 6 2 18 0 25 -3 6 -5 1 -5 -13z"/>
<path d="M3521 3134 c0 -11 3 -14 6 -6 3 7 2 16 -1 19 -3 4 -6 -2 -5 -13z"/>
<path d="M3541 2944 c0 -11 3 -14 6 -6 3 7 2 16 -1 19 -3 4 -6 -2 -5 -13z"/>
<path d="M3560 2767 c4 -41 5 -41 8 -8 2 18 0 37 -5 42 -5 5 -6 -11 -3 -34z"/>
<path d="M3561 2704 c0 -11 3 -14 6 -6 3 7 2 16 -1 19 -3 4 -6 -2 -5 -13z"/>
<path d="M3569 2618 c4 -28 6 -29 9 -9 2 13 0 27 -5 32 -6 6 -7 -3 -4 -23z"/>
<path d="M4481 2154 c0 -11 3 -14 6 -6 3 7 2 16 -1 19 -3 4 -6 -2 -5 -13z"/>
<path d="M8666 2088 c-7 -30 -8 -113 0 -105 7 6 16 127 10 127 -2 0 -6 -10
-10 -22z"/>
<path d="M4238 1673 c7 -3 16 -2 19 1 4 3 -2 6 -13 5 -11 0 -14 -3 -6 -6z"/>
<path d="M7395 1290 c-4 -6 7 -10 24 -10 17 0 31 5 31 10 0 6 -11 10 -24 10
-14 0 -28 -4 -31 -10z"/>
<path d="M7727 1153 c-21 -41 -23 -51 -13 -65 16 -22 27 -23 20 -3 -3 8 -2 20
2 27 5 7 9 19 11 27 1 8 4 25 8 38 8 35 1 28 -28 -24z"/>
<path d="M7631 1168 c-9 -14 -9 -24 -2 -31 7 -7 12 -1 17 17 8 34 2 41 -15 14z"/>
<path d="M7890 1096 c0 -8 4 -17 9 -20 5 -4 7 3 4 14 -6 23 -13 26 -13 6z"/>
<path d="M7780 1021 c0 -12 28 -22 35 -12 3 5 -2 12 -11 15 -21 8 -24 8 -24
-3z"/>
</g>
</svg>
