<?xml version="1.0" standalone="no"?>
<!DOCTYPE svg PUBLIC "-//W3C//DTD SVG 20010904//EN"
 "http://www.w3.org/TR/2001/REC-SVG-20010904/DTD/svg10.dtd">
<svg version="1.0" xmlns="http://www.w3.org/2000/svg"
 width="970.000000pt" height="1189.000000pt" viewBox="0 0 970.000000 1189.000000"
 preserveAspectRatio="xMidYMid meet">

<g transform="translate(0.000000,1189.000000) scale(0.100000,-0.100000)"
fill="#000000" stroke="none">
<path d="M3160 11879 c-438 -34 -911 -148 -1341 -323 -159 -64 -248 -105 -234
-105 62 -4 286 -37 385 -57 240 -50 443 -133 590 -244 70 -52 200 -181 200
-198 0 -6 -32 0 -72 14 -326 111 -773 178 -1045 155 -272 -24 -443 -87 -604
-224 -320 -273 -598 -743 -710 -1202 -16 -66 -29 -130 -29 -143 l0 -24 28 21
c256 198 482 306 694 332 148 18 422 -1 518 -37 8 -3 -43 -21 -115 -39 -737
-190 -1243 -583 -1365 -1059 -45 -176 -65 -648 -56 -1306 10 -643 19 -865 39
-910 21 -48 63 -89 117 -114 37 -16 64 -20 145 -19 257 2 591 147 1240 536
346 208 935 582 1480 941 266 176 313 205 260 164 -969 -754 -1792 -1508
-2201 -2016 -181 -225 -274 -386 -362 -622 -137 -370 -206 -701 -232 -1110
-23 -360 20 -791 114 -1130 53 -192 52 -191 60 -39 37 719 217 1481 480 2034
224 469 474 779 868 1073 435 324 718 506 1558 997 302 176 573 357 725 482
231 189 382 293 660 453 245 141 829 424 1052 511 19 7 11 -14 -53 -134 -182
-342 -386 -773 -490 -1037 -120 -306 -131 -391 -94 -745 30 -293 21 -335 -73
-335 -28 0 -95 11 -147 25 -108 28 -191 32 -209 11 -9 -11 -10 -50 -5 -144 7
-137 1 -177 -40 -239 -36 -55 -89 -78 -178 -78 l-78 1 7 -41 c11 -69 9 -141
-6 -158 -16 -20 -71 -22 -171 -7 -71 10 -129 0 -151 -26 -7 -8 -25 -75 -40
-147 -43 -211 -85 -298 -171 -354 -39 -26 -48 -28 -147 -27 -374 3 -769 221
-1024 566 -30 40 -69 99 -86 130 -28 50 -35 56 -52 48 -31 -17 -279 -268 -361
-365 -349 -417 -557 -838 -635 -1290 -23 -136 -23 -443 0 -575 84 -482 320
-903 742 -1325 433 -433 934 -722 1498 -866 181 -46 338 -70 496 -76 l144 -6
-85 101 c-219 260 -364 520 -429 767 -33 126 -37 303 -9 440 40 200 114 371
188 436 l33 29 -64 0 c-102 0 -312 19 -442 40 -327 53 -554 148 -701 294 -113
113 -154 212 -154 377 0 317 186 556 515 663 154 49 242 61 481 61 l221 0 6
95 c8 117 28 193 75 290 98 201 336 340 582 340 85 0 189 -20 253 -48 l43 -19
390 424 c214 234 458 500 542 591 294 320 448 530 583 797 301 596 377 1291
233 2115 -54 309 -106 476 -224 715 -261 530 -730 1019 -1310 1367 -665 400
-1471 588 -2250 527z"/>
<path d="M7430 10035 c534 -547 919 -1127 1178 -1770 441 -1097 437 -2275 -10
-3465 -209 -555 -525 -1135 -927 -1700 -116 -162 -303 -409 -311 -410 -3 0
-17 42 -32 93 -73 252 -155 370 -322 463 l-56 31 26 24 c48 44 217 233 236
264 52 85 -14 205 -167 302 -40 25 -45 32 -45 64 0 20 16 68 38 115 21 43 51
110 66 148 25 61 27 74 17 105 -11 33 -7 52 52 225 l63 190 190 71 c294 111
374 150 568 277 211 139 325 199 529 280 l152 59 -85 -5 c-197 -13 -516 -105
-743 -214 -210 -101 -378 -215 -529 -360 l-67 -65 73 219 72 218 120 41 c188
65 257 106 519 310 177 138 599 476 625 502 8 8 -21 -7 -65 -33 -343 -202
-618 -361 -715 -414 -195 -106 -322 -203 -421 -322 -27 -33 -49 -55 -49 -51 0
4 29 96 65 204 l66 197 51 6 c72 10 224 61 283 95 28 16 84 59 125 96 154 136
330 256 550 373 63 34 111 62 107 62 -21 0 -316 -104 -422 -150 -256 -109
-408 -206 -570 -362 -63 -61 -115 -106 -115 -102 0 5 51 164 114 354 63 190
117 357 120 371 4 20 26 39 78 72 192 119 332 284 548 642 l24 40 -30 -22
c-80 -57 -350 -359 -528 -590 -39 -51 -72 -88 -74 -83 -2 5 6 53 18 106 12 52
20 97 18 99 -2 2 -25 -59 -52 -135 -27 -77 -49 -140 -50 -140 -1 0 0 64 2 143
7 229 -24 356 -120 504 -45 69 -108 151 -108 140 0 -2 13 -33 29 -68 67 -150
134 -403 168 -636 l17 -122 -34 -101 c-19 -55 -37 -100 -40 -100 -3 0 -11 26
-19 58 -59 256 -226 592 -376 757 -52 57 -52 60 -8 -94 80 -281 206 -528 344
-675 l58 -63 -72 -211 c-40 -117 -75 -212 -79 -212 -4 0 -22 30 -39 68 -28 57
-34 82 -40 172 -8 132 -44 232 -132 364 -55 82 -258 306 -278 306 -5 0 17 -41
47 -91 63 -104 87 -159 138 -319 65 -205 173 -401 262 -478 l43 -37 -67 -194
c-75 -217 -69 -215 -96 -29 -20 134 -65 276 -113 356 -73 120 -242 293 -423
433 -52 40 -53 41 -23 8 90 -98 233 -356 277 -499 34 -112 133 -283 278 -480
18 -25 18 -26 -55 -238 l-73 -213 -17 133 c-28 230 -91 430 -173 554 -77 116
-307 336 -475 454 l-62 43 46 -56 c144 -177 256 -393 349 -672 61 -183 106
-256 233 -380 l93 -91 -65 -189 c-35 -105 -68 -194 -72 -198 -4 -4 -23 34 -41
85 -48 134 -140 310 -214 409 -36 47 -139 163 -230 256 -164 169 -165 171
-145 189 14 12 18 25 14 41 -3 13 2 37 10 54 16 30 12 68 -8 81 -18 11 -66
-21 -92 -62 -14 -22 -30 -40 -36 -40 -5 0 -54 42 -107 92 -97 93 -96 90 11
-31 31 -36 57 -68 57 -72 0 -4 -16 -10 -35 -13 -39 -8 -38 -5 -35 -98 2 -78
-9 -86 -65 -43 -31 23 -33 24 -49 6 -9 -10 -20 -37 -24 -61 -4 -24 -15 -48
-25 -54 -17 -11 -28 -7 -94 34 -40 26 -38 0 10 -95 l47 -95 -31 0 c-17 0 -39
-5 -50 -10 -20 -11 -26 -54 -9 -65 15 -9 12 -98 -4 -120 -21 -29 -68 -10 -81
33 -5 17 -14 32 -21 32 -14 0 -74 -66 -74 -81 0 -10 24 -34 80 -77 l25 -20
-37 -53 c-20 -30 -46 -75 -58 -101 -18 -41 -25 -48 -50 -48 -16 0 -32 5 -35
10 -17 27 -95 -11 -95 -47 0 -17 33 -41 78 -54 23 -7 42 -16 42 -21 0 -14
-104 -208 -112 -208 -5 0 -8 7 -8 15 0 8 -27 81 -59 162 -34 83 -66 185 -75
233 -38 201 -77 281 -191 395 -130 130 -251 189 -390 189 -99 1 -159 -19 -261
-85 -108 -71 -270 -230 -278 -274 -10 -50 21 -126 104 -254 105 -164 118 -202
79 -237 -16 -14 -34 -18 -77 -17 -84 2 -157 33 -274 112 -125 85 -208 121
-297 128 -191 15 -449 -122 -638 -339 -30 -35 -59 -74 -65 -88 -32 -80 10
-180 120 -289 142 -141 249 -196 427 -216 148 -17 182 -28 303 -90 124 -65
165 -73 281 -51 49 9 109 16 133 16 64 0 218 -42 218 -59 0 -3 -19 -17 -42
-31 -113 -69 -271 -267 -329 -414 -84 -213 15 -521 323 -1000 150 -233 157
-251 179 -444 l12 -100 85 74 c216 189 438 325 724 444 123 50 197 109 259
204 84 128 118 328 86 511 -9 49 -15 91 -13 93 6 5 72 -89 95 -136 12 -23 33
-73 46 -111 37 -102 72 -159 140 -228 50 -50 72 -65 119 -78 57 -17 107 -54
330 -249 l40 -34 -81 -89 c-239 -261 -804 -789 -1233 -1152 -80 -68 -145 -126
-145 -131 0 -4 112 -127 249 -274 l248 -266 72 62 c113 99 719 709 862 868
768 854 1364 1699 1793 2545 412 810 655 1593 737 2370 25 236 25 747 0 960
-71 612 -218 1100 -490 1630 -307 598 -764 1174 -1346 1695 -75 67 -59 47 80
-95z m-998 -4810 c120 -162 176 -267 212 -395 34 -121 160 -280 326 -411 87
-68 94 -95 16 -61 -70 31 -129 75 -216 163 -52 52 -91 82 -110 86 -21 4 -99
69 -253 211 -190 175 -224 211 -239 251 -32 89 -16 108 62 71 26 -12 53 -19
60 -15 17 11 5 62 -26 107 -38 54 -22 69 83 76 17 2 37 -18 85 -83z m-157
-497 l175 -213 -83 -81 c-108 -106 -132 -114 -347 -123 -121 -6 -173 -12 -196
-24 -49 -25 -104 -94 -145 -181 -36 -78 -109 -300 -109 -333 0 -9 -3 -14 -6
-10 -3 3 -1 61 5 129 l12 123 106 238 107 237 46 0 c52 0 90 22 90 52 0 12
-16 35 -36 52 -52 45 -38 68 55 91 89 21 100 34 72 77 -59 95 -61 108 -10 108
25 0 29 4 29 28 0 35 6 42 36 42 18 0 63 -48 199 -212z m-1071 50 c-34 -65
-34 -95 -2 -323 16 -121 31 -221 32 -223 2 -1 24 4 49 12 27 8 47 10 47 4 0
-5 -14 -41 -30 -80 -17 -39 -29 -72 -27 -74 2 -2 33 1 70 7 37 6 71 9 77 7 5
-2 -27 -47 -70 -100 -44 -53 -80 -100 -80 -105 0 -4 18 -16 40 -25 l40 -16
-59 -59 c-117 -117 -167 -283 -127 -416 8 -26 12 -47 9 -47 -3 0 -105 40 -227
89 -373 150 -602 211 -847 227 -54 4 -99 10 -99 15 0 4 32 13 72 19 103 18
288 7 418 -23 58 -14 106 -24 107 -23 2 1 -96 56 -217 122 -241 130 -246 138
-78 109 93 -16 179 -49 270 -105 27 -17 48 -27 48 -24 0 3 -61 71 -136 151
-74 80 -133 147 -131 149 8 8 150 -48 199 -78 30 -18 87 -74 141 -137 50 -58
94 -107 99 -109 12 -5 10 88 -3 148 -8 39 -29 75 -80 143 -38 51 -64 94 -59
95 13 5 82 -35 134 -77 63 -50 105 -113 142 -212 l34 -94 -4 110 c-2 62 -11
133 -20 163 -10 31 -66 126 -137 233 -119 179 -120 181 -79 158 22 -13 77 -52
121 -87 79 -62 111 -104 247 -322 27 -43 27 -41 2 63 -46 198 -99 298 -275
520 -48 60 -84 111 -81 114 9 9 118 -46 162 -82 42 -35 88 -98 139 -190 16
-30 25 -40 21 -24 -47 211 23 428 137 429 l28 0 -17 -32z m1134 -811 c-142
-73 -282 -164 -359 -235 l-54 -50 60 11 c102 18 406 13 513 -7 51 -10 91 -20
88 -23 -2 -2 -152 -24 -332 -48 -180 -25 -332 -46 -337 -48 -6 -2 65 -14 157
-27 174 -25 193 -38 56 -39 -216 -3 -502 -80 -636 -171 l-49 -34 25 31 c14 16
68 84 121 149 180 223 216 288 240 441 7 43 15 82 19 86 4 4 13 -40 20 -98 7
-58 14 -105 16 -105 2 0 34 23 71 52 131 99 326 176 451 177 l54 1 -124 -63z
m-957 -563 c-4 -131 -7 -241 -5 -243 2 -2 46 24 99 58 52 33 95 59 95 56 0 -2
-16 -29 -35 -59 -19 -30 -35 -58 -35 -61 0 -4 18 -32 40 -64 22 -31 40 -60 40
-64 0 -4 -18 -7 -40 -7 l-40 0 36 -50 c75 -105 99 -253 70 -433 -9 -53 -22
-111 -29 -128 -11 -28 -12 -24 -13 49 -1 107 -44 229 -106 305 l-23 28 3 -96
c5 -124 -16 -220 -74 -334 -53 -107 -80 -137 -57 -64 18 57 29 291 18 390 l-8
68 -14 -68 c-21 -104 -68 -223 -131 -336 -56 -100 -173 -273 -180 -267 -2 2
13 36 33 76 67 134 144 407 161 571 6 58 4 67 -12 73 -29 11 -131 -46 -226
-129 -48 -41 -90 -75 -92 -75 -10 0 19 80 52 144 46 88 162 211 260 277 l76
51 -94 -6 c-52 -4 -126 -9 -164 -12 l-68 -5 27 35 c50 66 144 121 250 147 59
14 65 21 65 76 0 65 27 187 51 235 24 47 70 111 75 105 2 -2 0 -111 -5 -243z
m518 -110 c-16 -37 -28 -68 -27 -69 2 -2 32 2 68 7 36 5 139 10 230 11 152 0
172 -2 255 -27 81 -25 290 -115 282 -122 -1 -2 -39 6 -82 17 -133 34 -235 49
-335 48 l-95 0 90 -33 c239 -87 415 -254 490 -465 8 -23 13 -41 11 -41 -2 0
-28 31 -59 68 -128 159 -280 290 -402 348 -104 49 -146 55 -65 9 132 -76 227
-163 300 -276 39 -61 83 -164 78 -181 -2 -4 -23 19 -47 52 -122 167 -306 321
-476 395 l-60 27 49 -44 c27 -23 57 -49 67 -56 10 -7 54 -55 98 -108 124 -149
187 -284 198 -426 7 -91 -5 -102 -32 -30 -92 245 -280 500 -416 565 -102 48
-105 42 -20 -38 59 -57 90 -96 115 -146 32 -63 55 -153 44 -165 -3 -2 -40 38
-82 90 -97 119 -266 280 -340 325 -31 18 -84 44 -119 56 -54 20 -63 27 -68 53
l-6 31 86 26 c107 34 139 50 221 113 36 28 68 51 72 51 4 1 -6 -29 -23 -65z"/>
<path d="M8086 7480 c-58 -110 -103 -268 -120 -420 -6 -51 -5 -54 10 -35 76
96 152 347 142 470 l-3 40 -29 -55z"/>
<path d="M8071 7036 c-110 -168 -201 -308 -201 -311 0 -12 117 85 171 141 70
75 113 137 154 227 34 75 89 237 82 244 -3 2 -95 -134 -206 -301z"/>
<path d="M7797 7215 c-31 -138 -18 -301 33 -439 12 -32 24 -56 26 -54 4 5 -34
559 -39 564 -2 2 -11 -30 -20 -71z"/>
<path d="M8488 6656 c-273 -137 -360 -197 -581 -394 -141 -126 -189 -176 -162
-166 66 23 334 161 411 212 90 59 249 193 409 345 44 42 78 76 75 77 -3 0 -71
-33 -152 -74z"/>
<path d="M8218 4755 c-135 -17 -358 -60 -443 -86 -152 -47 -291 -127 -404
-233 -37 -35 -100 -85 -139 -111 -40 -26 -72 -49 -72 -51 0 -2 21 6 47 17 26
11 84 29 128 39 138 32 364 121 507 199 127 69 309 132 608 210 l115 30 -120
-1 c-66 0 -168 -6 -227 -13z"/>
<path d="M7807 4305 c-49 -8 -116 -22 -150 -31 -86 -23 -255 -104 -351 -168
-91 -61 -280 -215 -273 -222 8 -8 179 25 289 56 149 41 237 77 443 181 196 98
312 134 509 160 85 11 95 14 70 22 -53 16 -440 18 -537 2z"/>
</g>
</svg>
