<?xml version="1.0" standalone="no"?>
<!DOCTYPE svg PUBLIC "-//W3C//DTD SVG 20010904//EN"
 "http://www.w3.org/TR/2001/REC-SVG-20010904/DTD/svg10.dtd">
<svg version="1.0" xmlns="http://www.w3.org/2000/svg"
 width="700.000000pt" height="700.000000pt" viewBox="0 0 700.000000 700.000000"
 preserveAspectRatio="xMidYMid meet">

<g transform="translate(0.000000,700.000000) scale(0.100000,-0.100000)"
fill="#000000" stroke="none">
<path d="M3329 6996 c-2 -2 -62 -9 -134 -16 -380 -35 -745 -125 -1047 -259
-26 -12 -50 -21 -53 -21 -9 0 -121 -54 -157 -77 -21 -13 -42 -23 -47 -23 -14
0 -243 -134 -331 -194 -342 -232 -660 -537 -882 -846 -26 -36 -51 -69 -55 -75
-5 -5 -30 -43 -56 -83 -121 -187 -256 -450 -322 -627 -60 -158 -68 -181 -76
-210 -4 -16 -15 -55 -24 -85 -68 -231 -86 -328 -134 -721 -14 -108 -14 -424
-1 -521 5 -40 17 -134 26 -208 8 -74 20 -153 25 -175 5 -22 20 -92 34 -155 15
-63 30 -126 34 -140 5 -14 16 -52 26 -85 67 -227 234 -611 316 -727 11 -14 19
-29 19 -33 0 -16 194 -296 277 -400 110 -138 314 -348 458 -473 107 -92 355
-275 425 -313 19 -11 42 -24 50 -29 73 -47 347 -190 364 -190 3 0 31 -12 63
-26 32 -14 67 -30 78 -35 37 -15 210 -75 270 -93 33 -10 71 -22 85 -26 25 -8
50 -14 180 -44 158 -35 225 -45 525 -77 177 -18 545 -1 775 37 72 12 287 56
335 69 115 31 292 88 360 116 17 6 39 15 50 19 11 4 36 15 57 24 20 9 39 16
43 16 11 0 327 160 356 181 15 10 30 19 34 19 4 0 66 39 138 87 341 224 655
520 890 838 37 50 71 95 75 100 15 19 132 204 132 210 0 3 12 24 27 48 89 140
235 473 297 677 15 47 30 99 35 115 9 29 51 209 71 305 5 25 16 106 25 180 9
74 20 168 26 208 12 96 12 401 -1 494 -5 40 -17 134 -25 208 -9 74 -20 155
-25 180 -19 92 -62 276 -70 300 -4 14 -16 52 -25 85 -22 76 -35 115 -45 140
-4 11 -14 36 -20 55 -57 158 -202 460 -280 580 -5 8 -17 29 -26 45 -27 50
-171 252 -257 359 -44 56 -157 178 -251 272 -269 268 -556 478 -874 638 -40
20 -81 41 -90 46 -9 4 -39 18 -67 30 -27 12 -63 28 -80 35 -143 63 -378 138
-565 180 -178 40 -196 43 -340 60 -74 8 -174 20 -221 25 -82 10 -391 14 -400
6z m548 -111 c224 -27 324 -47 563 -111 65 -17 151 -45 215 -69 39 -15 80 -29
93 -32 12 -3 25 -9 28 -14 3 -5 12 -9 20 -9 14 0 295 -135 389 -187 28 -15 72
-43 98 -60 26 -18 50 -33 53 -33 5 0 90 -59 219 -152 6 -4 64 -52 130 -106
143 -119 321 -297 442 -443 93 -112 256 -342 303 -425 15 -27 40 -71 55 -99
67 -118 185 -373 185 -398 0 -7 4 -17 9 -23 24 -26 123 -357 157 -524 52 -260
68 -427 67 -705 -1 -361 -36 -610 -133 -950 -33 -114 -121 -354 -160 -434 -61
-127 -145 -289 -156 -302 -8 -8 -14 -19 -14 -23 0 -13 -137 -223 -201 -308
-161 -213 -322 -386 -509 -547 -184 -158 -359 -284 -505 -365 -27 -16 -54 -32
-60 -36 -32 -25 -317 -160 -415 -197 -161 -60 -202 -74 -318 -108 -322 -92
-577 -126 -937 -127 -278 0 -425 14 -690 65 -153 30 -414 107 -525 154 -19 8
-44 19 -55 23 -140 54 -345 156 -460 227 -11 7 -43 26 -70 42 -78 46 -270 186
-380 276 -174 143 -451 436 -553 584 -20 29 -46 66 -57 81 -38 52 -113 167
-138 211 -13 24 -40 71 -58 104 -131 233 -252 543 -317 815 -44 182 -52 231
-84 465 -15 117 -15 583 0 700 32 234 40 283 84 465 43 179 140 464 198 579 4
9 25 52 46 96 36 73 53 105 132 245 38 68 165 259 208 314 278 352 516 572
889 823 123 83 444 248 583 299 126 47 235 85 286 99 28 8 78 22 111 31 127
35 321 70 505 92 130 16 584 14 727 -3z"/>
<path d="M3244 6652 c-22 -16 -48 -47 -58 -70 -18 -40 -18 -44 -2 -87 21 -54
55 -81 157 -128 86 -39 119 -69 119 -107 0 -69 -104 -94 -179 -44 -22 14 -47
41 -56 60 -26 56 -37 42 -29 -38 3 -40 8 -74 9 -76 2 -2 12 2 23 9 16 10 31
10 75 -1 101 -24 179 7 217 86 25 51 22 87 -10 139 -19 30 -58 54 -173 105
-86 38 -109 83 -67 128 46 49 153 15 195 -62 22 -40 41 -48 31 -13 -4 12 -9
43 -13 70 -6 49 -11 55 -30 36 -9 -9 -21 -8 -46 5 -55 26 -117 21 -163 -12z"/>
<path d="M2815 6590 c-11 -5 -30 -9 -42 -9 -12 -1 -34 -6 -49 -11 l-27 -11 21
-22 c18 -20 43 -108 83 -292 5 -22 13 -57 18 -79 10 -41 -2 -76 -26 -76 -7 0
-13 -4 -13 -10 0 -13 15 -13 38 -1 23 13 104 31 139 31 15 0 34 4 42 9 11 7 7
12 -19 18 -38 10 -41 18 -85 213 -14 63 -31 137 -38 164 -10 42 -9 50 6 61 9
7 17 15 17 19 0 9 -41 6 -65 -4z"/>
<path d="M4290 6568 c23 -25 23 -28 11 -60 -5 -13 -31 -90 -57 -171 -45 -141
-46 -150 -34 -188 34 -102 205 -164 291 -106 45 31 69 75 120 230 26 80 52
141 66 155 15 15 19 24 10 27 -75 26 -98 31 -103 24 -3 -5 -1 -9 5 -9 6 0 17
-10 25 -22 13 -21 10 -36 -34 -170 -27 -81 -57 -159 -66 -173 -35 -54 -105
-70 -161 -35 -52 31 -58 52 -38 133 10 39 21 78 26 86 4 9 20 57 35 106 33
107 38 115 75 115 16 0 29 5 29 10 0 6 -6 10 -14 10 -8 0 -56 14 -106 30 -50
17 -94 30 -96 30 -3 0 4 -10 16 -22z"/>
<path d="M2190 6380 c0 -5 5 -10 10 -10 6 0 10 5 10 10 0 6 -4 10 -10 10 -5 0
-10 -4 -10 -10z"/>
<path d="M2140 6360 c-14 -9 -103 -49 -145 -66 -16 -6 -13 -9 18 -13 42 -7 48
-14 96 -121 27 -62 48 -108 91 -204 28 -63 25 -105 -9 -107 -9 0 -11 -3 -6 -5
10 -4 59 17 307 127 83 36 87 43 68 103 -5 17 -12 43 -15 59 -9 46 -25 30 -25
-27 0 -66 -28 -105 -97 -136 -75 -33 -87 -29 -122 44 -17 36 -31 67 -31 70 0
4 -40 92 -87 194 -9 19 -13 44 -9 62 6 31 -5 38 -34 20z"/>
<path d="M5031 6291 l22 -30 -49 -78 c-27 -42 -51 -82 -54 -88 -3 -5 -14 -23
-24 -40 -108 -169 -99 -159 -145 -155 -14 1 -21 -2 -17 -9 4 -6 11 -11 17 -11
5 0 31 -16 58 -35 26 -19 51 -35 55 -35 3 0 28 -16 55 -35 26 -19 51 -35 55
-35 4 0 31 -15 61 -34 l54 -35 50 62 c52 63 59 77 41 77 -5 0 -10 -4 -10 -8 0
-5 -23 -21 -51 -36 -57 -31 -79 -30 -144 10 -77 46 -80 50 -65 81 8 16 29 49
47 76 18 26 33 49 33 52 0 14 132 207 145 211 8 4 22 1 30 -6 9 -7 19 -9 23
-5 4 4 1 10 -6 12 -7 3 -19 11 -26 19 -8 8 -17 14 -20 14 -3 0 -37 20 -76 45
-39 25 -73 45 -75 45 -3 0 4 -13 16 -29z"/>
<path d="M1640 6062 c-19 -15 -79 -62 -133 -104 -54 -43 -103 -78 -108 -78 -5
0 -9 -7 -9 -15 0 -9 9 -15 25 -15 19 0 45 -27 127 -131 57 -72 113 -145 126
-162 23 -33 28 -62 12 -72 -5 -3 -10 -11 -10 -16 0 -11 41 14 91 56 20 16 80
64 133 105 53 41 96 82 96 90 0 16 -57 120 -65 120 -3 0 -2 -24 1 -53 5 -39 2
-62 -10 -84 -19 -38 -93 -103 -117 -103 -9 0 -43 34 -75 76 -56 73 -57 77 -39
90 27 20 62 17 97 -7 16 -12 32 -19 34 -16 6 6 -111 158 -130 169 -10 6 -11
-1 -2 -33 8 -32 7 -45 -4 -66 -8 -15 -20 -28 -26 -30 -9 -3 -124 133 -128 151
-2 13 118 86 142 86 13 0 40 -10 59 -21 19 -12 37 -19 40 -16 6 7 -75 107 -85
107 -4 -1 -23 -13 -42 -28z"/>
<path d="M3270 5931 c-107 -12 -327 -50 -380 -66 -193 -59 -247 -77 -335 -114
-113 -47 -350 -175 -415 -223 -14 -11 -62 -45 -106 -78 -234 -169 -490 -455
-638 -710 -130 -225 -237 -500 -285 -735 -38 -183 -46 -265 -46 -510 0 -251 8
-338 50 -530 50 -228 166 -525 272 -693 18 -29 33 -54 33 -57 0 -2 28 -44 61
-92 239 -344 536 -606 899 -795 74 -39 267 -122 325 -140 315 -98 468 -122
785 -122 289 -1 435 18 670 84 84 23 87 24 225 76 446 168 863 502 1142 914
166 245 294 545 358 835 41 191 50 279 49 530 0 253 -3 282 -54 550 -8 44 -66
239 -79 270 -5 11 -16 39 -25 62 -111 297 -306 594 -556 843 -238 237 -508
417 -805 535 -38 15 -79 31 -90 36 -78 32 -303 88 -465 114 -110 18 -477 28
-590 16z m352 -348 c3 -10 43 -39 90 -65 62 -34 92 -58 112 -88 38 -57 32 -80
-29 -110 -58 -29 -64 -51 -16 -66 56 -18 72 -46 66 -118 -3 -33 -7 -131 -10
-216 -2 -85 -4 -158 -5 -162 0 -18 -23 -5 -62 38 -23 25 -53 50 -66 55 -32 12
-38 36 -18 73 13 25 16 53 14 135 -3 104 -3 104 -33 122 -38 22 -63 23 -109 4
-58 -24 -69 -50 -65 -154 4 -83 6 -92 33 -120 l29 -30 -28 -23 c-16 -13 -49
-42 -73 -66 -69 -64 -67 -70 -72 253 -1 88 -2 165 -1 171 1 6 21 21 46 34 25
13 45 27 45 31 0 4 -20 22 -44 39 -62 45 -70 69 -39 109 14 18 44 44 66 58 22
14 45 29 51 34 6 5 23 18 39 30 15 11 27 27 27 35 0 21 47 18 52 -3z m-704
-139 c50 -25 56 -84 8 -84 -20 0 -71 -29 -198 -113 -26 -17 -46 -33 -44 -34 4
-5 93 37 136 64 28 17 150 63 168 63 5 0 -3 -75 -15 -140 -8 -44 -9 -45 -50
-48 -24 -2 -43 -8 -43 -13 0 -5 9 -27 20 -49 28 -55 25 -82 -12 -122 -18 -19
-39 -48 -47 -64 -7 -16 -17 -37 -22 -46 -5 -10 -9 -29 -9 -43 0 -32 -28 -45
-46 -21 -16 23 -28 115 -20 153 4 16 18 41 32 57 19 20 24 34 20 52 -10 37
-53 32 -104 -12 -24 -20 -48 -34 -56 -31 -7 3 -23 36 -36 73 -20 62 -21 69 -6
79 22 17 20 42 -4 57 -30 19 -24 44 18 70 62 39 116 69 135 75 9 3 17 9 17 14
0 5 5 9 10 9 6 0 32 16 58 35 26 19 50 35 53 35 3 0 20 -7 37 -16z m290 -130
c16 -133 41 -274 53 -296 5 -10 9 -25 9 -34 0 -20 35 -80 68 -116 29 -32 24
-57 -18 -81 -16 -10 -45 -37 -65 -62 -20 -24 -42 -42 -49 -39 -14 6 -36 89
-36 138 0 18 -9 75 -21 127 -11 52 -23 109 -26 127 -3 18 -10 35 -14 38 -5 3
-9 15 -9 28 0 24 -46 127 -61 137 -17 10 2 37 29 42 41 8 82 45 82 73 0 18 5
24 23 24 21 0 23 -6 35 -106z m919 80 c43 -4 84 -11 91 -17 21 -16 14 -47 -13
-57 -14 -5 -25 -12 -25 -15 0 -3 11 -3 25 1 42 10 31 -27 -20 -69 -42 -35 -58
-67 -35 -67 6 0 10 -16 10 -35 0 -49 -72 -125 -119 -125 -68 0 -97 46 -71 114
11 29 44 35 54 11 4 -12 14 -14 43 -9 21 3 42 10 46 14 17 16 -38 40 -89 40
-62 0 -79 15 -69 62 12 53 20 58 109 58 56 0 76 3 66 10 -8 5 -37 10 -63 10
-61 0 -87 14 -87 46 0 25 32 47 57 39 7 -2 47 -7 90 -11z m223 -219 c7 -8 16
-15 21 -15 15 0 197 -129 309 -219 146 -117 190 -160 190 -189 0 -22 -3 -24
-32 -18 -18 4 -44 10 -58 12 -14 3 -32 12 -41 20 -12 11 -27 13 -52 9 -29 -6
-40 -2 -68 22 -51 44 -99 76 -105 70 -3 -3 -10 -22 -14 -43 -8 -35 -6 -41 33
-87 55 -66 67 -91 67 -141 0 -30 -7 -49 -28 -74 -41 -48 -68 -34 -63 34 1 11
-15 42 -37 70 -74 95 -92 136 -92 211 0 48 5 76 17 92 16 23 15 25 -11 48 -15
12 -33 23 -40 23 -21 0 -47 -47 -48 -83 0 -49 -8 -67 -28 -67 -10 0 -20 4 -22
9 -1 5 -25 12 -51 15 -56 7 -67 12 -67 31 0 7 39 74 86 149 87 137 106 155
134 121z m-1832 -62 c2 -12 10 -27 18 -33 8 -7 14 -19 14 -26 0 -7 10 -30 21
-51 12 -21 36 -65 54 -98 52 -96 70 -125 78 -125 4 0 7 -5 7 -12 0 -26 53 -68
87 -68 41 0 42 -15 8 -85 -14 -28 -25 -68 -25 -91 0 -53 -22 -64 -56 -27 -13
14 -24 32 -24 39 0 8 -4 14 -8 14 -5 0 -16 15 -26 33 -19 37 -20 38 -104 174
-35 56 -69 107 -77 113 -20 17 -53 7 -95 -28 l-35 -30 13 -46 c23 -89 8 -162
-48 -229 -21 -25 -29 -43 -25 -56 13 -41 -19 -30 -81 28 -35 34 -70 61 -77 61
-14 0 -46 -32 -96 -97 -36 -48 -33 -68 16 -93 15 -8 42 -24 58 -36 74 -54 126
-75 173 -73 l47 3 12 -74 c15 -97 16 -150 2 -150 -6 0 -34 18 -63 40 -28 22
-56 43 -61 47 -27 20 -137 77 -244 128 -61 28 -58 29 -93 -45 -90 -198 -89
-193 -60 -183 31 11 82 78 82 108 0 19 24 19 40 0 7 -9 16 -57 19 -108 5 -75
10 -98 29 -121 12 -16 22 -40 22 -53 0 -31 -42 -73 -75 -73 -19 0 -25 -5 -25
-22 0 -46 -99 -186 -121 -172 -5 3 -9 31 -10 62 0 39 -8 70 -22 96 -42 75 -54
42 -64 -171 l-6 -143 44 0 c24 0 87 -3 140 -6 l95 -7 10 34 c11 38 39 50 48
21 4 -10 14 -27 24 -38 10 -10 31 -37 47 -59 17 -22 33 -42 36 -45 3 -3 8 -15
11 -27 l6 -23 -282 0 c-259 0 -284 2 -299 18 -29 32 -41 225 -23 372 25 201
37 258 80 380 9 25 16 53 16 63 0 9 4 17 9 17 5 0 12 11 15 25 9 37 54 133 66
140 6 3 10 12 10 19 0 12 10 31 73 138 118 201 371 468 596 630 71 50 94 56
99 21z m242 -73 c0 -5 -2 -10 -4 -10 -3 0 -8 5 -11 10 -3 6 -1 10 4 10 6 0 11
-4 11 -10z m577 -112 c-3 -8 -6 -5 -6 6 -1 11 2 17 5 13 3 -3 4 -12 1 -19z
m836 -123 c29 -29 39 -69 26 -102 -13 -34 -52 -30 -89 8 -69 73 -8 164 63 94z
m1188 -7 c55 -31 102 -74 133 -122 113 -176 79 -350 -92 -476 -36 -26 -71 -46
-79 -43 -28 11 -13 53 35 101 150 147 99 368 -93 399 -58 9 -175 -31 -199 -69
-8 -13 -2 -29 25 -70 90 -134 91 -145 17 -182 -45 -23 -65 -26 -150 -26 -98 0
-99 0 -165 42 -37 23 -87 47 -112 54 -75 18 -67 37 50 129 55 44 141 112 189
150 49 39 104 77 122 86 51 25 81 37 103 43 36 9 193 -2 216 -16z m-2828 -95
c15 -35 15 -39 -1 -62 -9 -13 -21 -31 -27 -40 -5 -9 -13 -18 -16 -21 -3 -3 -9
-12 -12 -20 -4 -8 -21 -40 -37 -70 -17 -30 -30 -62 -30 -71 0 -18 -24 -32 -35
-21 -10 10 -35 72 -35 87 0 6 10 24 23 38 12 15 47 69 77 121 30 53 60 95 65
96 6 0 18 -17 28 -37z m264 31 c-3 -3 -12 -4 -19 -1 -8 3 -5 6 6 6 11 1 17 -2
13 -5z m1290 -62 c21 -16 27 -35 24 -76 0 -11 -19 -36 -41 -58 -32 -30 -49
-38 -77 -38 -98 0 -94 111 7 169 43 25 59 26 87 3z m278 -118 c8 -13 20 -24
27 -24 19 0 137 -104 137 -122 1 -26 -20 -22 -65 12 -21 16 -45 30 -53 30 -7
0 -35 8 -62 17 l-48 17 -29 -27 c-35 -34 -86 -36 -119 -5 -32 30 -29 66 9 100
29 26 37 28 109 27 71 -1 80 -3 94 -25z m-1308 -39 c10 -182 47 -556 64 -660
6 -33 11 -110 12 -171 2 -99 0 -115 -22 -157 -37 -72 -164 -169 -331 -250
-131 -65 -207 -45 -283 73 -34 51 -50 133 -44 225 2 44 8 94 12 110 10 38 43
75 68 75 18 0 19 -5 11 -67 -21 -171 7 -213 141 -213 68 0 137 25 194 69 l24
18 -12 199 c-6 110 -16 262 -22 339 -15 191 -7 324 23 376 30 53 72 80 123 77
39 -3 40 -4 42 -43z m712 -7 c8 -21 18 -93 51 -363 5 -44 13 -127 16 -185 19
-306 18 -295 36 -298 11 -2 26 12 43 39 73 114 161 162 254 138 28 -7 51 -16
51 -21 0 -4 7 -8 15 -8 8 0 38 -15 67 -33 100 -63 199 -90 313 -85 l80 3 3
-35 c11 -116 -29 -195 -110 -219 -24 -7 -61 -19 -83 -26 -22 -7 -58 -17 -80
-23 -22 -6 -78 -22 -125 -36 -129 -37 -221 -50 -267 -37 -21 6 -50 11 -64 11
-70 0 -177 75 -234 165 -32 49 -37 61 -50 119 l-6 29 -23 -49 c-24 -49 -90
-120 -156 -165 -44 -30 -181 -99 -198 -99 -7 0 -20 -4 -30 -10 -9 -5 -39 -16
-65 -25 -43 -13 -51 -13 -77 0 -43 22 -37 41 23 71 113 57 248 173 315 270 44
63 73 126 64 138 -11 14 -32 88 -32 110 0 25 -95 217 -120 244 -11 12 -29 22
-39 22 -48 0 -106 52 -147 130 -16 30 -43 78 -61 107 -40 63 -42 89 -8 105 47
21 157 -13 253 -80 113 -78 186 -221 199 -389 3 -46 10 -86 15 -89 4 -3 8 -3
8 0 0 2 7 40 15 83 10 52 15 140 15 262 0 169 2 186 21 217 18 30 25 34 65 34
37 0 46 -4 53 -22z m897 -161 c38 -33 37 -79 -2 -118 -43 -43 -91 -48 -132
-14 -18 15 -32 36 -32 46 0 45 69 109 117 109 12 0 34 -11 49 -23z m-2154 -26
l41 -40 -6 -128 c-12 -251 -19 -323 -31 -323 -7 0 -26 19 -42 43 l-30 43 4
222 c3 123 9 222 14 222 5 0 27 -18 50 -39z m2762 -114 c9 -12 20 -45 26 -73
10 -47 13 -50 38 -46 30 4 82 -30 82 -53 0 -7 23 -57 50 -110 50 -96 62 -145
37 -145 -19 0 -62 49 -83 95 -37 79 -87 165 -96 165 -11 0 0 -60 13 -75 5 -5
9 -24 9 -43 0 -18 4 -52 9 -75 21 -94 31 -156 37 -227 4 -41 8 -84 10 -95 1
-11 3 -24 3 -28 1 -5 14 2 30 15 28 23 28 23 10 43 -10 12 -21 35 -25 52 -8
42 25 78 64 68 68 -15 97 -108 46 -142 -22 -14 -24 -18 -12 -27 38 -28 48 -79
21 -108 -27 -30 -68 -23 -101 17 l-29 36 -7 -93 c-12 -165 -27 -265 -47 -316
-5 -13 -9 -33 -9 -45 0 -13 -4 -27 -9 -32 -4 -6 -16 -35 -25 -65 -18 -59 -30
-87 -83 -195 -54 -111 -111 -217 -128 -235 -8 -9 -15 -21 -15 -26 0 -5 -17
-30 -37 -56 -21 -25 -58 -71 -82 -101 -46 -59 -177 -188 -252 -249 -51 -41
-97 -70 -149 -94 -19 -9 -43 -20 -52 -25 -10 -5 -58 -9 -108 -9 -74 0 -90 -3
-90 -15 0 -9 12 -18 30 -21 17 -4 30 -10 30 -15 0 -5 6 -9 12 -9 7 0 37 -12
66 -27 224 -113 188 -383 -51 -383 -54 0 -71 5 -123 35 -32 20 -76 55 -96 78
-35 39 -108 173 -108 197 0 5 -4 18 -9 28 -24 46 -41 174 -41 303 0 118 3 140
18 159 34 42 42 18 42 -132 0 -77 5 -159 11 -182 31 -116 44 -151 79 -205 57
-88 137 -134 204 -117 30 7 66 43 66 65 0 26 -32 51 -67 51 -18 0 -41 4 -51
10 -9 5 -38 18 -64 29 -25 12 -62 40 -82 63 -30 35 -36 49 -36 87 0 52 15 99
47 154 25 42 25 42 140 25 66 -10 96 -9 145 1 75 15 68 11 214 146 185 173
179 166 167 183 -16 27 -74 55 -86 43 -6 -6 -19 -11 -30 -11 -17 0 -18 5 -11
43 4 23 7 68 6 100 0 31 3 57 7 57 4 0 32 -17 62 -37 68 -47 114 -73 128 -73
10 0 81 98 81 112 0 31 -89 64 -105 38 -3 -5 -14 -10 -23 -10 -13 0 -21 14
-30 53 -6 29 -12 65 -12 79 0 15 -4 30 -10 33 -14 8 -13 35 1 35 6 0 26 -7 45
-15 19 -8 51 -22 72 -31 20 -9 55 -25 76 -35 45 -22 61 -14 71 32 4 16 11 31
16 34 5 4 9 17 9 31 0 17 -8 27 -26 34 -39 15 -95 12 -115 -6 -24 -21 -49 -11
-49 20 0 14 -4 28 -10 31 -5 3 -10 18 -10 33 -1 15 -7 38 -15 52 -23 40 -19
61 8 55 13 -4 30 -7 38 -9 8 -2 27 -8 42 -14 16 -7 37 -12 47 -12 10 0 29 -4
42 -9 13 -5 44 -10 68 -12 44 -4 45 -3 51 31 4 19 16 81 28 138 16 81 21 140
21 268 l0 164 -29 0 c-28 0 -52 -21 -88 -76 -12 -18 -14 -17 -40 16 -15 19
-47 55 -70 79 -61 62 -58 76 25 94 37 9 89 19 115 23 27 3 51 13 54 20 5 15
-11 118 -32 194 -11 40 -16 45 -43 48 -43 4 -68 -12 -82 -53 -6 -19 -16 -35
-22 -35 -6 0 -27 15 -47 33 -66 57 -87 73 -104 80 -19 7 -23 47 -5 47 17 0
235 68 273 85 49 22 102 19 119 -8z m-3230 -14 c2 -10 7 -34 11 -53 7 -39 13
-54 45 -122 24 -50 26 -51 76 -48 45 2 94 -49 94 -97 0 -49 -24 -73 -72 -73
-22 0 -49 5 -61 12 -31 16 -67 51 -67 65 0 6 -12 21 -26 32 -18 14 -24 26 -20
39 4 10 0 35 -9 55 -9 23 -15 68 -15 122 0 77 2 85 19 85 11 0 22 -8 25 -17z
m116 -177 c0 -3 -4 -8 -10 -11 -5 -3 -10 -1 -10 4 0 6 5 11 10 11 6 0 10 -2
10 -4z m2987 -2 c-3 -3 -12 -4 -19 -1 -8 3 -5 6 6 6 11 1 17 -2 13 -5z m-240
-36 c31 -34 37 -65 19 -93 -23 -35 -58 -32 -95 8 -35 36 -39 62 -14 89 22 25
65 23 90 -4z m90 -380 c46 -44 17 -119 -59 -154 -36 -16 -43 -16 -66 -3 -61
34 -66 94 -11 148 39 39 100 43 136 9z m-2389 -387 c10 -6 13 -30 11 -87 l-2
-79 64 0 63 0 -3 88 -3 87 81 0 81 0 -2 -257 -3 -258 -75 0 -75 0 -3 98 -3 97
-44 0 c-24 0 -50 3 -59 6 -13 5 -16 -9 -18 -98 l-3 -103 -75 0 -75 0 -3 245
c-1 134 0 250 3 257 5 15 122 18 143 4z m664 -26 c8 -34 66 -209 79 -240 5
-11 16 -42 24 -70 9 -27 20 -59 24 -70 20 -49 30 -89 25 -96 -6 -10 -124 -12
-148 -3 -9 3 -16 16 -16 28 0 39 -14 48 -84 50 l-66 2 -13 -40 -14 -41 -74 0
c-83 0 -92 8 -66 67 15 34 72 201 87 253 12 45 49 147 62 173 11 21 17 23 92
20 80 -3 80 -3 88 -33z m336 -152 l2 -183 105 0 105 0 0 -40 c0 -37 16 -56 24
-27 5 21 97 301 105 322 5 11 15 40 23 65 l15 45 82 3 c71 2 82 1 87 -15 3
-10 10 -26 15 -35 5 -10 9 -25 9 -33 0 -8 4 -23 9 -33 9 -19 20 -49 62 -177
16 -49 33 -98 39 -107 5 -10 10 -28 10 -41 0 -13 5 -28 11 -34 7 -7 9 -19 6
-27 -5 -12 -22 -16 -71 -16 -82 0 -96 6 -96 40 0 40 -18 49 -89 48 -60 -2 -62
-3 -68 -29 -11 -57 -16 -58 -288 -56 l-250 2 -3 258 -2 258 77 -3 78 -3 3
-182z m892 2 l0 -185 105 0 c120 0 119 0 113 -96 l-3 -49 -165 -3 c-91 -1
-175 0 -187 3 l-23 5 0 249 c0 136 3 251 7 254 3 4 39 7 80 7 l73 0 0 -185z
m-2468 157 c2 -4 35 -31 73 -61 94 -73 99 -80 78 -103 -13 -14 -32 -18 -97
-19 -118 0 -385 -33 -418 -50 -10 -5 -18 -17 -18 -27 -1 -48 -17 -44 -100 23
-45 36 -93 71 -107 76 -16 6 -23 15 -21 29 3 18 14 20 158 24 220 7 352 38
404 95 19 21 42 27 48 13z m-29 -229 c-7 -2 -21 -2 -30 0 -10 3 -4 5 12 5 17
0 24 -2 18 -5z m126 -57 c74 -14 91 -25 91 -59 0 -24 -23 -31 -51 -17 -46 25
-339 8 -339 -20 0 -15 101 -99 150 -125 116 -60 222 -100 244 -92 7 3 22 25
35 51 21 40 28 46 55 46 36 0 131 -52 146 -79 27 -52 -46 -120 -134 -125 -31
-1 -59 -6 -63 -9 -3 -4 -15 -7 -25 -7 -10 0 -18 -4 -18 -10 0 -5 7 -10 15 -10
9 0 29 -7 45 -15 23 -12 30 -22 30 -45 0 -24 -7 -33 -38 -49 -58 -29 -68 -46
-48 -76 42 -63 101 -69 101 -9 l0 29 78 3 77 3 0 -35 c0 -24 -11 -51 -32 -80
-28 -40 -30 -49 -20 -71 6 -14 16 -25 21 -25 15 0 39 45 43 81 l3 34 76 3 c62
2 78 0 82 -13 5 -13 -32 -86 -75 -146 -17 -25 -5 -42 47 -68 66 -33 71 -30
123 89 11 25 30 66 41 91 26 56 26 66 1 79 -35 18 -25 48 18 56 20 3 61 12 91
20 99 25 98 12 -14 -231 -7 -16 -21 -48 -30 -70 -9 -22 -25 -56 -35 -76 -19
-38 -13 -59 17 -59 7 0 21 -4 31 -9 48 -25 134 -51 232 -71 30 -7 71 -16 91
-21 20 -5 59 -11 87 -15 51 -5 52 -5 52 21 0 14 4 35 10 45 18 34 24 129 9
156 -31 58 -128 73 -186 28 -18 -14 -33 -34 -33 -45 0 -15 -6 -20 -22 -17 -24
3 -25 10 -12 77 9 48 86 123 142 139 66 20 133 0 189 -57 24 -24 46 -55 49
-70 4 -14 11 -32 17 -39 6 -8 7 -47 3 -105 -4 -51 -8 -103 -9 -116 -2 -24 0
-24 68 -22 38 1 73 5 77 7 4 3 8 17 8 31 0 40 37 96 80 121 60 34 111 83 127
120 21 50 46 39 54 -23 4 -28 15 -81 26 -120 34 -122 43 -164 43 -205 0 -35
-3 -40 -27 -46 -16 -3 -35 -8 -43 -11 -43 -15 -235 -42 -300 -43 -68 -1 -73
-2 -56 -15 11 -8 27 -15 36 -15 25 0 62 -36 58 -57 -4 -21 -59 -35 -108 -26
-55 9 -117 42 -150 79 -25 28 -36 34 -72 34 -87 1 -293 49 -448 105 -110 39
-335 151 -407 203 -17 12 -34 22 -37 22 -18 0 -236 171 -286 225 -41 43 -82
58 -127 46 -80 -23 -211 -13 -293 21 -153 64 -250 201 -250 355 0 116 112 269
223 303 23 8 51 18 62 24 65 35 260 46 384 22z m3134 -317 c19 -33 23 -99 7
-115 -5 -5 -14 -30 -19 -54 -27 -138 -43 -206 -51 -213 -4 -5 -17 -4 -29 2
-19 11 -21 21 -21 96 0 51 6 97 14 117 8 18 20 67 26 108 7 41 14 80 15 87 6
20 39 3 58 -28z m-126 -151 c-3 -8 -6 -5 -6 6 -1 11 2 17 5 13 3 -3 4 -12 1
-19z m-696 -112 c50 -66 53 -83 22 -112 -19 -18 -30 -21 -44 -14 -23 13 -29
13 -29 -2 0 -28 -43 -58 -84 -58 -46 0 -85 29 -130 94 -31 46 -33 72 -6 81 28
9 36 2 50 -49 7 -25 21 -53 31 -62 18 -16 20 -16 39 1 12 11 20 31 20 52 0 37
9 40 46 17 38 -25 49 -7 30 50 -20 58 -20 58 1 54 10 -2 34 -25 54 -52z m-167
-81 c3 -8 1 -15 -4 -15 -6 0 -10 7 -10 15 0 8 2 15 4 15 2 0 6 -7 10 -15z
m-1196 -19 c15 -8 34 -26 41 -40 12 -22 11 -30 -7 -70 -25 -51 -46 -66 -96
-66 -27 0 -39 6 -55 29 -26 36 -26 42 -1 91 17 33 49 59 88 69 2 1 15 -5 30
-13z m760 -46 c6 -57 -4 -74 -55 -93 -26 -11 -57 -22 -68 -27 -151 -58 -208
-68 -213 -35 -5 41 21 67 88 90 123 41 196 73 212 92 17 21 33 10 36 -27z
m952 -200 c29 -41 24 -96 -12 -123 -25 -19 -28 -19 -51 -4 -23 15 -25 15 -21
-1 7 -26 -32 -82 -56 -82 -31 0 -80 58 -80 94 0 58 66 98 96 59 12 -16 13 -15
14 12 0 74 69 102 110 45z m-2472 -119 c9 -5 37 -17 62 -26 25 -10 54 -21 65
-25 108 -43 154 -58 171 -57 14 2 20 -5 22 -25 3 -22 -3 -32 -29 -47 -20 -12
-38 -17 -48 -11 -9 4 -28 13 -43 19 -44 17 -80 33 -113 47 -16 7 -59 24 -95
37 -88 33 -92 64 -12 96 1 1 10 -3 20 -8z m99 3 c-3 -3 -12 -4 -19 -1 -8 3 -5
6 6 6 11 1 17 -2 13 -5z m2050 0 c-3 -3 -12 -4 -19 -1 -8 3 -5 6 6 6 11 1 17
-2 13 -5z m206 -153 c22 -27 24 -35 19 -108 -2 -43 -6 -80 -9 -82 -2 -3 -16 7
-30 22 -24 23 -27 35 -31 111 -5 97 6 110 51 57z m-1421 -158 c29 -36 36 -66
21 -100 -25 -63 -97 -36 -110 41 -10 62 52 103 89 59z"/>
<path d="M3550 5415 c-10 -12 -9 -16 6 -22 11 -4 25 -13 33 -21 13 -12 16 -12
25 0 6 8 20 18 31 22 20 7 20 8 1 22 -26 18 -80 18 -96 -1z"/>
<path d="M2217 4712 c-10 -2 -16 -9 -14 -15 5 -15 49 -16 54 -1 5 14 -15 22
-40 16z"/>
<path d="M1802 3918 c-16 -16 -15 -33 4 -48 13 -11 19 -10 37 8 21 21 21 22 2
37 -25 18 -28 18 -43 3z"/>
<path d="M4865 4486 c-17 -13 -16 -14 17 -30 29 -14 41 -15 57 -6 17 9 19 15
11 30 -13 24 -57 27 -85 6z"/>
<path d="M4032 4608 c6 -18 28 -21 28 -4 0 9 -7 16 -16 16 -9 0 -14 -5 -12
-12z"/>
<path d="M4205 4499 c-4 -6 -4 -13 -1 -16 8 -8 36 5 36 17 0 13 -27 13 -35 -1z"/>
<path d="M4006 3601 c-14 -16 -17 -24 -8 -33 11 -11 202 -26 202 -15 0 10
-105 58 -140 63 -28 5 -39 1 -54 -15z"/>
<path d="M4620 4280 c0 -13 5 -20 13 -17 6 2 12 10 12 17 0 7 -6 15 -12 18 -8
2 -13 -5 -13 -18z"/>
<path d="M2162 3888 c5 -15 37 -18 41 -3 1 6 -9 12 -22 13 -16 3 -22 -1 -19
-10z"/>
<path d="M4934 3549 c-10 -17 13 -36 27 -22 12 12 4 33 -11 33 -5 0 -12 -5
-16 -11z"/>
<path d="M3161 2983 c-17 -62 -15 -72 19 -71 29 1 41 20 20 33 -5 3 -10 22
-10 41 0 45 -16 43 -29 -3z"/>
<path d="M4068 3030 c-17 -40 -29 -92 -25 -104 5 -13 41 -15 53 -3 4 4 2 17
-4 30 -6 12 -13 38 -15 57 -2 21 -5 29 -9 20z"/>
<path d="M1735 2768 c-82 -59 -102 -87 -115 -167 -9 -56 2 -97 40 -149 59 -82
173 -126 267 -103 77 19 114 41 171 99 l53 55 -28 12 c-89 38 -128 60 -178
101 -60 48 -121 112 -145 150 -18 29 -26 29 -65 2z"/>
<path d="M2327 2593 c-13 -13 -7 -32 8 -27 8 4 15 12 15 20 0 15 -12 19 -23 7z"/>
<path d="M3787 1794 c-14 -14 -7 -25 13 -22 12 2 21 8 21 13 0 12 -24 18 -34
9z"/>
<path d="M2992 2128 c3 -7 13 -15 22 -16 12 -3 17 1 14 10 -3 7 -13 15 -22 16
-12 3 -17 -1 -14 -10z"/>
<path d="M5770 5711 c-8 -5 -71 -28 -140 -51 -69 -23 -129 -46 -134 -51 -6 -5
-19 -9 -31 -9 -12 0 -25 -4 -30 -8 -20 -17 -95 -35 -124 -29 -17 4 -31 4 -31
2 0 -13 100 -109 106 -102 4 4 2 13 -4 19 -23 23 -13 47 30 68 23 11 47 19 52
19 6 -1 37 -29 69 -64 l58 -62 -23 -52 c-23 -51 -42 -63 -66 -39 -6 6 -14 10
-16 7 -2 -2 32 -42 77 -89 74 -78 80 -82 74 -53 -4 18 -2 35 3 38 6 3 10 14
10 24 0 9 35 103 79 208 99 239 97 233 74 233 -10 0 -25 -4 -33 -9z m-100 -74
c0 -6 -56 -133 -64 -145 -6 -11 -19 -4 -52 29 -25 24 -43 50 -42 57 3 17 158
74 158 59z"/>
<path d="M1095 5557 c-44 -50 -71 -87 -60 -83 52 22 58 18 205 -110 175 -153
177 -156 156 -189 -21 -32 -54 -32 -65 -2 -15 38 -38 52 -66 39 -34 -15 -43
-58 -19 -82 37 -36 109 -30 160 14 51 43 72 110 50 159 -20 43 -23 46 -164
171 -121 106 -124 110 -117 142 3 19 5 34 3 33 -2 0 -39 -42 -83 -92z"/>
<path d="M6186 5262 c7 -34 3 -37 -96 -89 -41 -22 -120 -64 -174 -93 -86 -45
-102 -50 -123 -41 -36 17 -37 15 -9 -35 14 -26 26 -53 26 -60 0 -8 5 -14 10
-14 6 0 10 15 10 34 0 39 2 40 195 141 61 32 118 63 127 69 33 20 31 -5 -3
-42 -31 -32 -63 -71 -129 -156 -8 -10 -41 -50 -74 -88 -32 -38 -54 -73 -50
-78 5 -4 43 -4 84 1 41 4 127 13 190 19 63 6 132 13 153 16 56 9 45 -10 -25
-45 -35 -17 -112 -57 -173 -89 -110 -59 -129 -63 -152 -34 -27 34 -22 1 6 -45
17 -27 40 -71 51 -96 24 -53 40 -61 40 -19 0 26 10 34 108 87 59 32 139 75
178 96 82 45 107 48 128 17 30 -42 16 -3 -27 77 l-43 80 -45 -1 c-24 -1 -100
-7 -168 -13 -68 -6 -126 -9 -129 -7 -4 5 39 62 108 142 19 23 50 60 69 83 l33
42 -33 65 c-19 35 -38 73 -44 84 -14 29 -25 25 -19 -8z"/>
<path d="M677 4944 c-6 -6 31 -57 151 -208 124 -156 152 -196 152 -220 0 -39
14 -38 35 2 11 20 28 49 38 65 22 32 10 35 -25 7 l-25 -19 -37 36 c-34 34 -48
73 -27 73 5 0 13 10 16 21 4 12 19 42 34 66 l26 44 50 -7 c57 -7 82 -21 65
-38 -12 -12 -13 -26 -1 -26 5 0 11 8 14 18 3 9 24 49 46 87 49 85 51 99 14 80
-24 -12 -59 -12 -228 1 -110 8 -221 16 -246 19 -25 3 -48 2 -52 -1z m241 -129
c58 -7 75 -16 52 -30 -6 -3 -19 -26 -30 -51 -11 -24 -26 -44 -33 -44 -12 1
-107 120 -107 134 0 4 12 5 28 2 15 -3 55 -8 90 -11z"/>
<path d="M426 4330 c-19 -130 -22 -116 23 -141 23 -12 41 -26 41 -31 0 -4 5
-8 11 -8 17 0 189 -114 189 -125 0 -6 -37 -18 -82 -27 -147 -29 -233 -50 -244
-59 -6 -5 -14 -31 -18 -57 -18 -141 -18 -130 0 -104 18 25 55 28 126 12 24 -5
81 -16 128 -25 152 -28 190 -38 191 -52 1 -7 3 -17 4 -23 1 -5 3 -15 4 -21 3
-27 19 6 25 53 3 29 9 63 12 76 4 13 2 22 -5 22 -6 0 -11 -7 -11 -15 0 -8 -11
-22 -24 -30 -19 -13 -32 -14 -67 -6 -73 17 -208 41 -227 41 -30 0 -92 21 -92
30 0 6 12 10 26 10 24 0 192 37 269 59 17 5 58 15 93 22 34 7 62 16 62 20 0 3
-84 60 -186 125 -103 66 -192 122 -198 126 -22 15 5 20 51 9 26 -6 111 -22
188 -36 77 -15 147 -33 156 -41 20 -18 23 -12 39 78 6 29 13 67 16 83 l6 30
-24 -29 c-27 -32 -28 -32 -193 -1 -44 8 -111 20 -150 25 -41 6 -81 18 -97 30
-15 11 -29 20 -32 20 -2 0 -7 -18 -10 -40z"/>
<path d="M6115 4288 c4 -13 11 -47 17 -75 11 -60 25 -69 30 -20 3 31 4 32 51
31 58 0 73 -14 88 -79 22 -104 23 -98 -20 -127 -46 -33 -59 -34 -77 -11 -17
24 -30 9 -16 -20 6 -12 19 -57 29 -99 19 -82 27 -94 37 -54 4 15 67 71 178
158 95 74 185 143 201 153 47 30 37 38 -68 54 -33 5 -87 14 -120 20 -33 7 -82
16 -110 21 -152 28 -175 34 -191 51 -23 26 -38 24 -29 -3z m303 -91 c34 -5 62
-13 62 -17 0 -4 -27 -29 -61 -55 -69 -54 -76 -53 -96 26 -14 56 -10 74 16 63
9 -4 44 -11 79 -17z"/>
<path d="M1240 2016 c0 -9 5 -16 10 -16 6 0 10 4 10 9 0 6 -4 13 -10 16 -5 3
-10 -1 -10 -9z"/>
<path d="M1252 1966 c-6 -14 -28 -36 -49 -50 -21 -13 -67 -45 -103 -71 -172
-122 -198 -137 -219 -126 -10 6 -21 16 -24 23 -2 7 -7 10 -11 7 -7 -6 56 -104
112 -175 l23 -29 -5 32 c-5 31 -3 34 164 152 94 67 178 121 188 121 10 0 23
-5 30 -12 6 -6 14 -9 17 -7 5 6 -92 152 -104 157 -4 1 -13 -9 -19 -22z"/>
<path d="M5680 1851 c0 -6 15 -39 33 -73 205 -385 200 -374 193 -403 -10 -40
15 -29 57 24 20 27 37 52 37 55 0 4 -13 0 -30 -9 -30 -15 -30 -15 -60 26 -16
23 -30 45 -30 48 0 9 29 50 57 82 13 14 30 34 37 44 12 17 17 18 67 4 49 -13
54 -17 52 -42 -1 -15 1 -27 5 -27 4 0 25 25 46 55 21 30 50 64 63 76 31 30 29
42 -6 34 -34 -7 -95 3 -231 40 -52 14 -113 30 -135 35 -50 11 -103 25 -132 34
-14 4 -23 3 -23 -3z m208 -162 c34 -7 62 -17 62 -21 0 -15 -75 -107 -85 -104
-13 3 -73 116 -74 139 -1 14 3 16 17 9 9 -5 45 -15 80 -23z"/>
<path d="M1510 1631 c17 -33 12 -52 -27 -95 -21 -23 -63 -71 -93 -106 -129
-149 -132 -151 -163 -148 -16 2 -29 0 -28 -4 2 -14 91 -91 98 -85 3 4 0 13 -6
21 -7 8 -11 24 -9 35 3 22 217 275 226 267 7 -7 3 -238 -7 -391 -5 -66 -6
-123 -2 -127 3 -4 32 23 63 60 32 37 70 81 85 97 16 17 59 65 97 108 66 74 72
78 103 72 20 -4 33 -2 33 5 0 5 -3 10 -7 10 -5 0 -25 16 -45 35 -47 45 -73 49
-47 6 10 -15 7 -26 -19 -62 -40 -57 -139 -165 -145 -159 -3 3 -1 66 4 140 4
74 8 160 8 191 l1 57 -56 46 c-60 49 -81 58 -64 27z"/>
<path d="M5296 1455 c-42 -37 -76 -69 -76 -72 0 -3 11 -2 24 1 24 6 29 2 131
-115 178 -202 190 -220 163 -247 -6 -6 -10 -14 -7 -16 3 -3 23 11 45 32 22 20
62 56 89 80 27 23 44 42 37 42 -6 0 -13 -4 -16 -9 -3 -4 -17 -6 -30 -4 -25 5
-30 10 -126 123 -30 36 -59 70 -65 76 -99 109 -107 122 -94 146 21 39 0 28
-75 -37z"/>
<path d="M2053 1192 c10 -10 17 -23 17 -28 0 -13 -164 -338 -172 -342 -5 -2
-8 -8 -8 -14 0 -5 -10 -18 -22 -28 -13 -10 -21 -20 -18 -22 3 -2 52 -27 110
-56 193 -95 304 -78 392 63 29 45 32 58 32 130 1 74 -1 83 -31 126 -34 50 -80
82 -208 148 -89 45 -119 53 -92 23z m191 -116 c48 -45 52 -118 13 -211 -43
-103 -115 -175 -176 -175 -32 0 -91 24 -92 38 0 4 42 91 93 194 65 130 98 187
110 188 9 0 33 -15 52 -34z"/>
<path d="M4962 1190 c-9 -14 -23 -20 -51 -20 -75 0 -151 -78 -151 -155 0 -35
7 -50 39 -86 l39 -44 133 -5 c74 -3 141 -9 150 -14 9 -4 22 -18 29 -31 20 -38
-2 -79 -57 -106 -57 -28 -113 -20 -166 22 -61 49 -59 36 13 -85 l23 -38 20 26
c10 14 28 26 40 26 24 0 86 21 105 35 85 65 105 165 47 233 -33 40 -84 52
-213 52 -102 0 -113 2 -132 22 -27 30 -25 53 9 88 24 26 36 30 80 30 38 0 62
-7 91 -25 22 -14 40 -21 40 -15 0 13 -60 110 -68 110 -4 0 -13 -9 -20 -20z"/>
<path d="M4400 949 c-34 -11 -171 -52 -252 -75 -38 -10 -68 -23 -68 -27 0 -5
7 -6 16 -3 33 13 51 -12 78 -111 16 -54 32 -106 37 -115 5 -10 9 -25 9 -33 0
-9 9 -43 21 -77 23 -69 19 -108 -11 -108 -12 0 -20 -7 -20 -16 0 -9 6 -13 13
-11 19 8 133 44 232 72 142 42 154 46 159 53 7 12 -16 132 -25 132 -5 0 -9
-10 -9 -23 0 -38 -34 -88 -76 -112 -44 -25 -104 -38 -120 -27 -5 4 -23 45 -38
91 -22 67 -25 86 -14 92 28 18 61 8 95 -28 33 -35 35 -36 30 -13 -12 56 -50
186 -57 193 -4 5 -11 -12 -14 -37 -8 -53 -48 -95 -72 -75 -8 6 -14 17 -14 25
0 7 -6 33 -14 56 -8 24 -17 57 -21 74 -6 31 -5 31 53 48 84 23 97 21 142 -24
45 -45 47 -41 24 36 -16 58 -27 63 -84 43z"/>
<path d="M2805 873 c-37 -8 -113 -66 -138 -106 -33 -50 -51 -127 -43 -184 17
-123 108 -208 239 -220 87 -8 140 9 198 64 121 113 116 299 -9 393 -67 49
-169 71 -247 53z m158 -37 c50 -21 67 -54 67 -134 0 -81 -38 -209 -76 -259
-52 -68 -160 -64 -197 7 -26 51 -18 173 17 260 51 124 106 161 189 126z"/>
<path d="M3732 807 c3 -6 14 -13 26 -15 12 -2 26 -11 31 -21 13 -23 17 -244 5
-248 -5 -2 -17 9 -27 24 -9 16 -37 51 -62 78 -25 28 -69 78 -98 112 l-52 63
-72 0 c-78 0 -96 -9 -59 -33 22 -15 23 -22 31 -194 11 -227 11 -225 -14 -242
-36 -23 -24 -31 50 -31 52 0 70 3 67 13 -3 6 -14 13 -26 15 -39 6 -46 38 -50
212 l-3 165 33 -35 c18 -19 58 -64 88 -99 196 -229 226 -260 241 -261 3 0 2
29 -3 64 -5 35 -7 141 -6 237 3 172 3 173 26 179 50 11 24 25 -51 27 -59 2
-78 0 -75 -10z"/>
<path d="M1810 780 c0 -5 7 -10 16 -10 8 0 12 5 9 10 -3 6 -10 10 -16 10 -5 0
-9 -4 -9 -10z"/>
</g>
</svg>
