<?xml version="1.0" standalone="no"?>
<!DOCTYPE svg PUBLIC "-//W3C//DTD SVG 20010904//EN"
 "http://www.w3.org/TR/2001/REC-SVG-20010904/DTD/svg10.dtd">
<svg version="1.0" xmlns="http://www.w3.org/2000/svg"
 width="663.000000pt" height="442.000000pt" viewBox="0 0 663.000000 442.000000"
 preserveAspectRatio="xMidYMid meet">

<g transform="translate(0.000000,442.000000) scale(0.100000,-0.100000)"
fill="#000000" stroke="none">
<path d="M0 4240 l0 -179 50 -18 c27 -10 50 -20 50 -23 0 -3 -9 -11 -20 -18
-17 -10 -25 -10 -43 3 -24 17 -37 19 -37 6 0 -5 10 -11 22 -14 l22 -6 -22 -19
-22 -19 0 -701 c0 -688 0 -701 19 -697 28 5 61 24 61 35 0 19 66 107 125 166
51 52 67 62 105 67 166 23 231 69 204 145 -10 27 -10 27 -96 24 -153 -5 -183
33 -46 58 82 15 178 55 178 75 0 7 -7 18 -15 25 -9 8 -15 31 -16 59 -1 76 -7
84 -83 98 -74 13 -96 26 -96 54 0 24 26 34 105 43 94 12 145 27 145 43 0 12 8
14 38 8 108 -19 152 -18 187 7 19 12 35 28 35 34 0 19 -52 64 -79 69 -14 3
-46 10 -71 16 -72 18 -148 29 -255 34 -132 8 -133 8 -183 55 -24 22 -48 40
-53 40 -5 0 -9 7 -9 15 0 42 116 48 280 15 58 -12 152 -28 210 -35 103 -13
137 -22 173 -47 12 -9 20 -10 25 -2 9 13 45 27 37 15 -3 -5 -1 -12 5 -16 5 -3
10 1 10 9 0 9 15 22 33 29 23 10 33 21 35 40 1 23 -2 26 -35 29 -32 3 -38 7
-45 34 -4 18 -15 35 -24 38 -24 9 -30 -2 -16 -24 11 -18 9 -20 -12 -20 -13 0
-29 7 -36 15 -7 8 -19 15 -26 15 -8 0 -14 4 -14 9 0 9 -77 62 -134 92 -67 35
-188 61 -292 61 -56 0 -107 -2 -113 -6 -12 -8 -111 32 -111 44 0 5 -10 6 -22
3 -14 -3 -7 4 17 18 39 23 45 24 248 21 227 -3 224 -4 193 56 -20 39 -108 103
-158 115 -43 11 -33 27 17 27 49 0 90 -17 116 -46 19 -22 59 -120 59 -143 0
-19 149 -74 177 -65 15 5 16 4 3 -6 -12 -9 -10 -10 13 -6 15 4 36 2 47 -4 14
-7 20 -7 20 0 0 5 -5 10 -12 10 -6 0 -9 3 -6 6 4 3 15 1 25 -4 11 -6 40 -6 73
-1 50 8 106 15 268 35 28 4 52 10 52 14 0 4 9 10 20 13 11 3 20 12 20 21 0 9
5 16 10 16 6 0 10 17 10 38 l0 38 78 17 c42 10 88 17 102 18 14 0 36 6 49 13
14 8 31 11 39 8 8 -3 21 3 28 12 7 10 25 18 41 20 50 3 45 17 -16 46 -31 14
-19 26 36 39 50 11 92 40 93 64 0 4 -403 7 -895 7 l-895 0 0 -180z"/>
<path d="M2456 4283 c2 -76 9 -208 16 -294 6 -86 8 -164 5 -173 -4 -10 9 -62
28 -118 19 -55 35 -108 35 -119 0 -19 27 -39 53 -39 9 0 17 14 21 33 3 18 15
49 26 70 11 20 20 47 20 59 0 32 37 203 48 225 6 10 16 43 22 73 15 65 52 110
83 102 12 -3 37 -16 55 -29 19 -13 43 -23 53 -23 11 0 19 -7 19 -15 0 -8 5
-15 10 -15 6 0 10 -6 10 -14 0 -8 9 -21 21 -29 13 -10 16 -17 10 -22 -8 -4 -8
-12 0 -27 6 -11 9 -30 7 -42 -6 -28 13 -46 49 -46 15 0 39 -9 53 -20 14 -11
32 -20 41 -20 9 0 28 -11 43 -25 15 -14 32 -25 37 -25 6 0 20 -5 32 -12 12 -7
28 -13 36 -14 23 -4 71 -26 71 -33 0 -6 129 -8 140 -2 13 7 79 14 115 13 145
-5 184 -8 191 -14 4 -5 23 -8 43 -8 20 0 42 -4 50 -9 9 -6 29 -1 59 15 25 13
53 22 63 19 12 -4 26 5 46 30 18 22 37 35 53 36 22 0 23 1 6 8 -19 7 -19 8 2
13 12 4 22 13 22 21 0 9 13 18 30 22 16 4 36 14 42 23 7 9 32 30 56 46 23 16
42 33 42 37 0 5 24 25 54 44 29 18 64 47 78 63 18 22 35 30 72 34 42 5 51 2
84 -26 21 -17 39 -35 41 -41 2 -5 7 -20 12 -32 12 -33 4 -204 -16 -318 -30
-178 -30 -165 -5 -182 21 -15 22 -21 16 -89 -8 -86 2 -94 50 -41 45 48 114
213 114 270 0 13 9 32 20 42 19 17 100 209 100 238 0 8 7 30 15 49 8 19 21 93
30 164 8 71 20 152 26 180 7 29 9 68 5 88 l-7 36 -1279 0 -1279 0 5 -137z"/>
<path d="M5160 4406 c0 -8 9 -43 20 -78 11 -34 20 -72 20 -83 1 -36 33 -63 74
-63 21 0 43 -5 49 -11 7 -7 14 -7 24 0 10 9 13 8 13 -4 0 -9 10 -17 23 -19 12
-2 22 -10 22 -18 0 -10 -8 -14 -22 -13 -13 2 -23 -2 -23 -7 0 -6 10 -10 23
-10 20 -1 20 -2 5 -11 -27 -15 -22 -26 17 -40 19 -7 35 -17 35 -21 0 -4 16 -8
35 -8 22 0 38 -6 41 -15 4 -8 13 -15 21 -15 11 0 13 -7 9 -25 -4 -15 -2 -25 4
-25 7 0 9 -8 5 -19 -4 -14 0 -21 17 -27 12 -3 28 -13 36 -20 7 -8 19 -14 26
-14 7 0 21 -18 31 -40 10 -22 25 -40 34 -40 12 0 12 -3 3 -12 -7 -7 -12 -15
-12 -18 0 -13 52 -30 73 -25 12 3 31 0 41 -8 13 -9 34 -12 62 -9 31 3 47 0 59
-12 9 -9 26 -16 37 -16 27 0 78 -38 78 -58 0 -14 2 -14 9 -3 6 10 12 4 20 -21
l12 -35 87 -5 c104 -6 152 -1 152 17 0 7 6 16 13 18 9 4 8 8 -3 16 -9 7 -10
11 -3 11 6 0 15 9 18 21 4 12 26 29 52 41 42 19 44 21 37 51 -10 47 -6 99 8
108 19 12 112 22 153 17 l35 -4 0 283 0 283 -735 0 c-626 0 -735 -2 -735 -14z
m1400 -415 c0 -5 9 -11 20 -14 11 -3 20 -10 20 -17 0 -7 -9 -14 -20 -17 -11
-3 -20 -12 -20 -20 0 -10 -11 -13 -44 -11 -34 2 -44 7 -43 20 1 9 4 15 8 12 9
-5 30 21 23 29 -3 3 -3 10 1 16 8 13 55 15 55 2z m-453 -377 c-3 -3 -12 -4
-19 -1 -8 3 -5 6 6 6 11 1 17 -2 13 -5z m6 -31 c-7 -2 -19 -2 -25 0 -7 3 -2 5
12 5 14 0 19 -2 13 -5z"/>
<path d="M831 3976 c2 -2 15 -9 29 -15 24 -11 24 -11 6 3 -16 13 -49 24 -35
12z"/>
<path d="M938 3928 c7 -7 16 -7 28 0 14 8 13 10 -10 10 -18 0 -24 -4 -18 -10z"/>
<path d="M1005 3920 c-3 -5 -1 -10 4 -10 6 0 11 5 11 10 0 6 -2 10 -4 10 -3 0
-8 -4 -11 -10z"/>
<path d="M2370 3765 c-15 -18 -7 -54 19 -86 16 -20 21 -21 35 -10 9 7 16 26
16 42 0 15 5 31 12 35 7 5 5 11 -7 21 -25 17 -60 17 -75 -2z"/>
<path d="M960 3650 c0 -11 4 -20 9 -20 5 0 7 9 4 20 -3 11 -7 20 -9 20 -2 0
-4 -9 -4 -20z"/>
<path d="M2395 3587 c-4 -10 -5 -21 -1 -24 10 -10 18 4 13 24 -4 17 -4 17 -12
0z"/>
<path d="M1100 3580 c0 -5 5 -10 11 -10 5 0 7 5 4 10 -3 6 -8 10 -11 10 -2 0
-4 -4 -4 -10z"/>
<path d="M1165 3550 c3 -5 13 -10 21 -10 8 0 12 5 9 10 -3 6 -13 10 -21 10 -8
0 -12 -4 -9 -10z"/>
<path d="M2878 3483 c6 -2 18 -2 25 0 6 3 1 5 -13 5 -14 0 -19 -2 -12 -5z"/>
<path d="M2972 3466 c9 -11 219 -58 226 -51 3 3 3 7 0 10 -5 5 -96 25 -138 30
-14 2 -41 7 -60 11 -19 4 -32 4 -28 0z"/>
<path d="M3269 3453 c-1 -5 -1 -12 0 -17 1 -4 -6 -14 -15 -20 -14 -11 -8 -14
42 -25 64 -13 183 -26 369 -41 66 -5 139 -11 163 -14 23 -3 42 -2 42 3 0 10
-34 21 -64 21 -11 0 -34 12 -53 26 -29 22 -40 25 -81 19 -26 -4 -58 -9 -72
-10 -14 -1 -36 -5 -50 -9 -16 -4 -38 0 -64 13 -34 18 -42 18 -65 7 -30 -15
-81 0 -74 22 3 8 -7 12 -32 12 -21 0 -34 4 -30 10 3 6 1 10 -4 10 -6 0 -12 -3
-12 -7z"/>
<path d="M4865 3408 c-20 -85 2 -138 23 -56 7 27 7 48 1 60 -13 24 -18 23 -24
-4z"/>
<path d="M6575 3375 c-16 -13 -50 -27 -75 -32 l-45 -9 4 -114 c5 -164 32 -371
51 -395 4 -5 11 -27 15 -47 4 -22 13 -38 21 -38 8 0 14 -4 14 -10 0 -18 19
-10 36 15 18 28 20 53 29 408 7 271 8 268 -50 222z"/>
<path d="M3360 3312 c0 -10 58 -22 105 -22 21 1 26 3 15 9 -23 13 -120 23
-120 13z"/>
<path d="M6320 3290 c0 -5 -9 -10 -19 -10 -23 0 -37 -18 -25 -30 5 -4 26 -10
46 -13 27 -4 43 -1 60 12 20 17 21 20 6 35 -18 17 -68 22 -68 6z"/>
<path d="M2870 3185 c-10 -11 -9 -18 3 -30 9 -8 22 -15 29 -15 8 0 18 -4 24
-9 15 -15 58 -25 50 -12 -4 6 -3 11 2 11 6 0 13 -11 16 -25 5 -19 13 -25 35
-25 19 0 36 -9 49 -24 20 -26 55 -39 112 -40 28 -1 36 3 38 20 2 17 -5 24 -30
33 -17 6 -41 20 -53 30 -17 16 -98 48 -138 55 -7 1 -28 12 -47 24 -41 26 -73
28 -90 7z"/>
<path d="M2110 3169 c0 -14 41 -32 51 -22 5 5 -4 14 -21 20 -17 6 -30 7 -30 2z"/>
<path d="M6311 3133 c2 -22 15 -41 25 -35 6 5 4 13 -8 25 -10 9 -18 14 -17 10z"/>
<path d="M2260 3110 c20 -13 43 -13 35 0 -3 6 -16 10 -28 10 -18 0 -19 -2 -7
-10z"/>
<path d="M3300 2970 c0 -5 4 -10 9 -10 6 0 13 5 16 10 3 6 -1 10 -9 10 -9 0
-16 -4 -16 -10z"/>
<path d="M3471 2803 c-22 -32 -49 -67 -61 -78 -11 -12 -20 -23 -20 -27 0 -7
26 -18 58 -24 20 -4 22 -2 13 15 -6 11 -11 28 -11 39 0 20 64 92 82 92 6 0 8
3 5 7 -4 3 -2 12 4 20 9 10 7 13 -9 13 -14 0 -34 -19 -61 -57z"/>
<path d="M2905 2830 c3 -5 16 -10 28 -10 18 0 19 2 7 10 -20 13 -43 13 -35 0z"/>
<path d="M3156 2811 c-6 -9 95 -51 125 -51 17 0 16 3 -8 30 -21 24 -34 30 -69
30 -24 0 -45 -4 -48 -9z"/>
<path d="M3615 2790 c-11 -4 -34 -5 -51 -3 -18 3 -35 0 -39 -6 -11 -18 15 -41
46 -41 18 0 32 -7 39 -20 15 -27 4 -41 -25 -34 -18 4 -25 1 -30 -15 -3 -12
-11 -19 -16 -16 -5 4 -9 1 -9 -5 0 -6 -6 -8 -12 -4 -9 5 -10 4 -3 -3 17 -17
97 -41 159 -48 69 -8 68 -11 6 91 -23 38 -39 76 -37 86 6 22 -2 28 -28 18z"/>
<path d="M3013 2723 c-17 -2 -37 -10 -43 -18 -9 -10 -5 -14 17 -19 15 -4 37
-8 48 -11 110 -23 232 -45 243 -43 8 2 -40 24 -106 51 -66 26 -121 46 -123 45
-2 0 -18 -3 -36 -5z"/>
<path d="M3766 2708 c4 -13 15 -30 25 -39 11 -9 19 -28 19 -42 0 -30 6 -33
120 -42 41 -4 86 -9 99 -12 17 -4 22 -2 19 8 -3 8 -13 16 -24 18 -10 2 -30 11
-44 21 -14 10 -50 28 -80 41 -30 12 -71 33 -90 46 -43 29 -53 29 -44 1z"/>
<path d="M3230 2710 c8 -5 20 -10 25 -10 6 0 3 5 -5 10 -8 5 -19 10 -25 10 -5
0 -3 -5 5 -10z"/>
<path d="M320 2674 l-25 -15 25 7 c14 3 29 10 35 15 15 14 -7 10 -35 -7z"/>
<path d="M6568 2663 c7 -3 16 -2 19 1 4 3 -2 6 -13 5 -11 0 -14 -3 -6 -6z"/>
<path d="M6555 2440 c-6 -10 5 -40 15 -40 12 0 33 30 26 37 -10 10 -35 12 -41
3z"/>
<path d="M2 2360 c0 -14 2 -19 5 -12 2 6 2 18 0 25 -3 6 -5 1 -5 -13z"/>
<path d="M6557 2293 c-4 -21 -3 -41 2 -46 11 -11 53 1 46 13 -3 5 -1 11 5 15
18 11 11 31 -15 43 -14 7 -27 12 -29 12 -2 0 -6 -17 -9 -37z"/>
<path d="M0 2092 l0 -230 49 -11 c59 -12 96 -3 148 37 21 16 58 37 83 46 64
24 131 85 123 114 -7 27 -11 27 -39 1 -13 -12 -42 -25 -66 -29 -46 -9 -142 6
-133 20 3 5 -4 11 -14 15 -11 3 -18 12 -15 19 3 8 -7 18 -25 25 -29 13 -72 51
-56 51 4 0 0 8 -9 19 -9 10 -21 47 -27 82 -6 35 -12 65 -15 68 -2 2 -4 -100
-4 -227z m213 -90 l48 -7 -59 -33 c-51 -27 -64 -31 -87 -22 -19 7 -25 15 -21
26 4 10 -1 22 -11 30 -16 12 -12 13 32 13 28 -1 72 -4 98 -7z"/>
<path d="M6547 2133 c-11 -10 -8 -51 3 -58 6 -3 10 2 11 12 0 10 3 13 6 6 5
-14 63 -18 63 -5 0 33 -62 67 -83 45z"/>
<path d="M6558 1979 c-43 -38 -53 -270 -12 -286 8 -3 14 -10 14 -17 1 -16 32
-51 53 -59 16 -6 17 3 17 103 0 60 -5 120 -11 133 -8 17 -8 35 0 61 17 63 -19
101 -61 65z"/>
<path d="M6337 1960 c-8 -11 -16 -17 -19 -14 -3 3 -9 0 -14 -7 -4 -8 -3 -10 4
-5 7 4 12 3 12 -2 0 -21 34 -22 52 -2 16 17 17 24 8 35 -17 20 -26 19 -43 -5z"/>
<path d="M6370 1846 c0 -12 -5 -16 -15 -12 -10 3 -15 -1 -16 -12 -3 -48 17
-132 32 -132 6 0 7 5 4 10 -3 6 -3 16 1 22 6 9 10 5 15 -12 7 -25 7 -25 8 3 1
20 6 27 17 25 21 -4 45 32 27 39 -9 3 -10 10 -3 22 11 22 4 31 -23 31 -11 0
-26 8 -33 18 -13 16 -13 16 -14 -2z"/>
<path d="M2910 1633 c0 -56 2 -63 19 -63 11 0 21 5 23 12 5 13 -11 62 -29 93
-11 17 -12 11 -13 -42z"/>
<path d="M4588 1563 c7 -3 16 -2 19 1 4 3 -2 6 -13 5 -11 0 -14 -3 -6 -6z"/>
<path d="M2950 1287 c0 -8 14 -62 30 -120 17 -59 30 -117 30 -130 0 -35 20
-97 31 -97 7 0 9 26 7 70 -3 67 -2 70 20 70 12 0 22 5 22 10 0 5 -3 9 -7 9
-38 -6 -41 0 -48 101 l-8 100 -38 0 c-26 0 -39 -5 -39 -13z"/>
<path d="M3375 1218 c-22 -11 -42 -24 -45 -27 -3 -4 -27 -14 -55 -24 l-50 -17
40 4 40 3 -5 -121 c-3 -91 -5 -104 -8 -53 -3 68 -8 75 -46 61 -9 -3 -14 -10
-11 -14 3 -5 1 -11 -4 -15 -6 -3 -8 -12 -4 -20 3 -8 0 -15 -6 -15 -6 0 -11 5
-11 11 0 5 -4 7 -10 4 -10 -6 -14 7 -11 32 2 15 -36 36 -49 28 -6 -4 -10 -12
-8 -18 1 -7 -2 -39 -6 -72 -12 -87 -10 -495 2 -507 16 -16 142 -5 153 13 5 7
10 48 11 89 1 41 3 57 5 35 2 -22 6 -55 9 -73 l5 -32 26 27 c38 42 93 128 93
147 0 9 5 16 10 16 7 0 10 89 8 270 -2 175 1 270 7 271 9 0 -23 17 -35 18 -3
0 -23 -9 -45 -21z"/>
<path d="M4055 1220 c-10 -11 -27 -46 -37 -77 -19 -56 -19 -57 0 -82 21 -28
42 -36 75 -27 34 9 73 48 75 76 3 41 -28 100 -57 107 -14 3 -29 10 -32 15 -3
5 -14 -1 -24 -12z"/>
<path d="M3480 1200 c0 -5 6 -10 13 -10 6 0 30 -3 52 -6 27 -4 35 -2 25 4 -24
15 -90 24 -90 12z"/>
<path d="M3625 1200 l-30 -8 37 -1 c20 0 40 4 43 9 7 11 -6 11 -50 0z"/>
<path d="M3585 1171 l-69 -6 -3 -145 c-2 -80 -4 -177 -6 -216 -3 -69 -3 -70
20 -66 13 2 31 14 41 27 23 29 76 39 185 36 56 -2 87 1 87 8 0 19 -46 41 -109
52 -65 12 -67 15 -64 84 2 32 5 198 4 218 -1 9 -4 16 -8 15 -5 -1 -39 -4 -78
-7z"/>
<path d="M2870 1160 c-12 -8 -11 -10 7 -10 12 0 25 5 28 10 8 13 -15 13 -35 0z"/>
<path d="M3080 1161 c0 -5 18 -11 40 -13 47 -4 54 7 9 16 -42 8 -49 8 -49 -3z"/>
<path d="M3697 1156 c-9 -24 -9 -28 3 -21 6 3 10 -2 11 -12 0 -10 3 -13 5 -7
3 6 1 21 -4 34 -8 20 -9 21 -15 6z"/>
<path d="M4405 1160 c-7 -12 2 -12 30 0 19 8 19 9 -2 9 -12 1 -25 -3 -28 -9z"/>
<path d="M3190 1150 c-9 -6 -10 -10 -3 -10 6 0 15 5 18 10 8 12 4 12 -15 0z"/>
<path d="M3170 1120 c0 -5 9 -10 21 -10 11 0 17 5 14 10 -3 6 -13 10 -21 10
-8 0 -14 -4 -14 -10z"/>
<path d="M4391 1091 c-1 -32 2 -42 10 -34 7 7 7 21 1 44 l-10 34 -1 -44z"/>
<path d="M3118 1083 c6 -2 18 -2 25 0 6 3 1 5 -13 5 -14 0 -19 -2 -12 -5z"/>
<path d="M5755 1020 c4 -19 13 -48 20 -65 18 -41 19 -3 2 47 -18 51 -31 61
-22 18z"/>
<path d="M2840 983 c-6 -21 -16 -55 -22 -76 -12 -41 2 -153 28 -216 8 -18 14
-60 14 -92 0 -60 13 -109 29 -109 10 0 17 184 14 362 -2 90 -6 123 -19 143
-22 34 -30 32 -44 -12z"/>
<path d="M4405 993 c-11 -2 -27 -18 -35 -36 -21 -44 -68 -64 -180 -77 -165
-18 -224 -31 -249 -51 -13 -11 -21 -23 -17 -26 4 -4 38 -10 76 -14 38 -4 79
-13 91 -19 20 -11 21 -17 16 -77 -6 -59 -5 -65 14 -70 11 -3 18 -11 16 -17 -5
-14 -82 -12 -100 3 -11 9 -20 6 -42 -11 -60 -47 -105 -98 -128 -145 -13 -26
-28 -57 -33 -68 -6 -11 -19 -36 -28 -55 -47 -92 -106 -191 -138 -231 -24 -30
-91 -69 -118 -69 -34 0 -53 21 -78 87 -19 49 -64 102 -88 103 -6 0 -19 -9 -29
-20 -10 -11 -24 -20 -31 -20 -7 0 -15 -18 -19 -40 -4 -22 -11 -43 -16 -46 -10
-6 -19 -25 -33 -71 l-7 -23 799 0 800 0 7 73 c8 89 13 107 29 107 8 0 11 11 8
32 -4 28 -6 30 -13 13 -7 -19 -8 -19 -8 2 -1 12 -7 26 -15 30 -13 7 -40 92
-32 100 1 1 19 4 39 5 59 5 44 22 -25 31 -47 5 -68 13 -81 30 -34 41 -122 129
-139 138 -13 7 -26 1 -53 -22 -53 -47 -94 -39 -222 44 -128 83 -183 132 -183
163 0 31 66 79 138 100 48 14 70 14 125 -2 15 -5 17 3 17 75 0 45 -3 80 -7 80
-5 -1 -17 -4 -28 -6z"/>
<path d="M400 923 c-1 -64 -14 -104 -36 -103 -5 1 -30 30 -57 65 -30 42 -55
65 -67 65 -19 0 -27 -20 -13 -33 13 -14 13 -83 0 -100 -12 -17 -15 -17 -54 4
-62 33 -77 22 -68 -48 4 -31 11 -68 16 -81 5 -14 8 -27 5 -29 -5 -5 -55 36
-98 81 l-28 28 0 -212 0 -212 133 7 c176 8 171 7 186 57 7 24 28 72 46 108 38
75 125 342 125 383 0 20 -7 30 -25 37 -14 5 -25 16 -25 24 0 12 -20 26 -36 26
-2 0 -4 -30 -4 -67z"/>
<path d="M6492 878 c-22 -80 -35 -215 -23 -250 6 -17 11 -48 11 -68 0 -25 7
-43 23 -58 l23 -22 41 20 c35 17 41 25 45 57 4 33 1 41 -26 64 -28 24 -32 34
-37 100 -7 81 -30 199 -39 199 -3 0 -11 -19 -18 -42z"/>
<path d="M3051 864 c0 -11 3 -14 6 -6 3 7 2 16 -1 19 -3 4 -6 -2 -5 -13z"/>
<path d="M3054 710 c0 -74 1 -105 3 -67 2 37 2 97 0 135 -2 37 -3 6 -3 -68z"/>
<path d="M3083 785 c0 -27 2 -38 4 -22 2 15 2 37 0 50 -2 12 -4 0 -4 -28z"/>
<path d="M3471 734 c0 -11 3 -14 6 -6 3 7 2 16 -1 19 -3 4 -6 -2 -5 -13z"/>
<path d="M5836 700 c4 -25 13 -54 19 -65 7 -11 18 -37 25 -58 6 -20 15 -35 20
-32 11 7 -37 166 -56 185 -13 13 -14 10 -8 -30z"/>
<path d="M5914 422 c-34 -22 -59 -132 -34 -147 6 -4 8 -11 5 -16 -4 -5 2 -9
13 -9 26 0 58 92 48 143 -7 38 -12 42 -32 29z"/>
<path d="M6167 394 c-11 -12 -8 -122 4 -129 16 -11 19 -3 21 65 3 58 -7 82
-25 64z"/>
<path d="M5101 376 c2 -2 62 -6 133 -9 76 -3 123 -1 115 4 -13 8 -257 13 -248
5z"/>
<path d="M4960 299 c0 -12 5 -19 12 -17 18 6 20 25 3 31 -10 5 -15 0 -15 -14z"/>
<path d="M4955 160 c3 -5 16 -10 28 -10 18 0 19 2 7 10 -20 13 -43 13 -35 0z"/>
<path d="M1325 140 c10 -34 21 -44 28 -27 3 8 -4 23 -15 34 -20 18 -21 18 -13
-7z"/>
<path d="M293 128 c-27 -30 -50 -105 -36 -119 12 -12 66 40 83 82 23 54 -8 79
-47 37z"/>
<path d="M6043 24 c0 -24 1 -24 86 -23 l86 2 -55 9 c-30 5 -69 15 -86 23 -30
13 -31 13 -31 -11z"/>
<path d="M6338 3 c7 -3 16 -2 19 1 4 3 -2 6 -13 5 -11 0 -14 -3 -6 -6z"/>
</g>
</svg>
